# Vertices

v -96 64 64
v -32 64 64
v -32 0 64
v -96 0 64
v -32 64 64
v 32 64 64
v 32 0 64
v -32 0 64
v 32 64 64
v 96 64 64
v 96 0 64
v 32 0 64
v 96 64 64
v 96 64 0
v 96 0 0
v 96 0 64
v 96 64 0
v 32 64 0
v 32 0 0
v 96 0 0
v 32 64 0
v 32 64 -64
v 32 0 -64
v 32 0 0
v 32 64 -64
v -32 64 -64
v -32 0 -64
v 32 0 -64
v -32 64 -64
v -32 64 0
v -32 0 0
v -32 0 -64
v -32 64 0
v -96 64 0
v -96 0 0
v -32 0 0
v -96 64 0
v -96 64 64
v -96 0 64
v -96 0 0
v -96 64 0
v -32 64 0
v -32 64 64
v -96 64 64
v -32 64 0
v 32 64 0
v 32 64 64
v -32 64 64
v 32 64 0
v 96 64 0
v 96 64 64
v 32 64 64
v -32 128 0
v 32 128 0
v 32 64 0
v -32 64 0
v 32 128 0
v 32 128 -64
v 32 64 -64
v 32 64 0
v 32 128 -64
v -32 128 -64
v -32 64 -64
v 32 64 -64
v -32 128 -64
v -32 128 0
v -32 64 0
v -32 64 -64
v 0 160 -32
v 32 128 0
v -32 128 0
v 0 160 -32
v 32 128 -64
v 32 128 0
v 0 160 -32
v -32 128 -64
v 32 128 -64
v 0 160 -32
v -32 128 0
v -32 128 -64

# Texture Coordinates

vt 0.2 1
vt 0.396875 1
vt 0.396875 0.685
vt 0.2 0.685
vt 0.2 0.6799999999999999
vt 0.396875 0.6799999999999999
vt 0.396875 0.365
vt 0.2 0.365
vt 0.2 1
vt 0.396875 1
vt 0.396875 0.685
vt 0.2 0.685
vt 0 1
vt 0.196875 1
vt 0.196875 0.685
vt 0 0.685
vt 0 1
vt 0.196875 1
vt 0.196875 0.685
vt 0 0.685
vt 0.2 0.6799999999999999
vt 0.396875 0.6799999999999999
vt 0.396875 0.365
vt 0.2 0.365
vt 0 1
vt 0.196875 1
vt 0.196875 0.685
vt 0 0.685
vt 0 1
vt 0.196875 1
vt 0.196875 0.685
vt 0 0.685
vt 0 1
vt 0.196875 1
vt 0.196875 0.685
vt 0 0.685
vt 0 1
vt 0.196875 1
vt 0.196875 0.685
vt 0 0.685
vt 0 1
vt 0.196875 1
vt 0.196875 0.685
vt 0 0.685
vt 0 1
vt 0.196875 1
vt 0.196875 0.685
vt 0 0.685
vt 0 1
vt 0.196875 1
vt 0.196875 0.685
vt 0 0.685
vt 0.2 0.6799999999999999
vt 0.396875 0.6799999999999999
vt 0.396875 0.365
vt 0.2 0.365
vt 0.2 1
vt 0.396875 1
vt 0.396875 0.685
vt 0.2 0.685
vt 0.2 1
vt 0.396875 1
vt 0.396875 0.685
vt 0.2 0.685
vt 0.2 1
vt 0.396875 1
vt 0.396875 0.685
vt 0.2 0.685
vt 0.096875 0.845
vt 0.196875 0.685
vt 0 0.685
vt 0.096875 0.845
vt 0.196875 0.685
vt 0 0.685
vt 0.096875 0.845
vt 0.196875 0.685
vt 0 0.685
vt 0.096875 0.845
vt 0.196875 0.685
vt 0 0.685

# Groups

g Group1

f 1/1 3/3 2/2
f 1/1 4/4 3/3
f 5/5 7/7 6/6
f 5/5 8/8 7/7
f 9/9 11/11 10/10
f 9/9 12/12 11/11
f 13/13 15/15 14/14
f 13/13 16/16 15/15
f 17/17 19/19 18/18
f 17/17 20/20 19/19
f 21/21 23/23 22/22
f 21/21 24/24 23/23
f 25/25 27/27 26/26
f 25/25 28/28 27/27
f 29/29 31/31 30/30
f 29/29 32/32 31/31
f 33/33 35/35 34/34
f 33/33 36/36 35/35
f 37/37 39/39 38/38
f 37/37 40/40 39/39
f 41/41 43/43 42/42
f 41/41 44/44 43/43
f 45/45 47/47 46/46
f 45/45 48/48 47/47
f 49/49 51/51 50/50
f 49/49 52/52 51/51
f 53/53 55/55 54/54
f 53/53 56/56 55/55
f 57/57 59/59 58/58
f 57/57 60/60 59/59
f 61/61 63/63 62/62
f 61/61 64/64 63/63
f 65/65 67/67 66/66
f 65/65 68/68 67/67

g Group2

f 69/69 71/71 70/70
f 72/72 74/74 73/73
f 75/75 77/77 76/76
f 78/78 80/80 79/79
