# Vertices

v -96 32 96
v -64 32 96
v -64 0 96
v -96 0 96
v -64 32 96
v 0 32 96
v 0 0 96
v -64 0 96
v 0 32 96
v 64 32 96
v 64 0 96
v 0 0 96
v 64 32 96
v 96 32 96
v 96 0 96
v 64 0 96
v 96 32 96
v 96 32 64
v 96 0 64
v 96 0 96
v 96 32 64
v 96 32 0
v 96 0 0
v 96 0 64
v 96 32 0
v 96 32 -64
v 96 0 -64
v 96 0 0
v 96 32 -64
v 96 32 -96
v 96 0 -96
v 96 0 -64
v 96 32 -96
v 64 32 -96
v 64 0 -96
v 96 0 -96
v 64 32 -96
v 0 32 -96
v 0 0 -96
v 64 0 -96
v 0 32 -96
v -64 32 -96
v -64 0 -96
v 0 0 -96
v -64 32 -96
v -96 32 -96
v -96 0 -96
v -64 0 -96
v -96 32 -96
v -96 32 -64
v -96 0 -64
v -96 0 -96
v -96 32 -64
v -96 32 0
v -96 0 0
v -96 0 -64
v -96 32 0
v -96 32 64
v -96 0 64
v -96 0 0
v -96 32 64
v -96 32 96
v -96 0 96
v -96 0 64
v -64 64 64
v -64 32 96
v -96 32 96
v -64 64 64
v 0 64 64
v 0 32 96
v -64 32 96
v 0 64 64
v 64 64 64
v 64 32 96
v 0 32 96
v 64 64 64
v 96 32 96
v 64 32 96
v 64 64 64
v 96 32 64
v 96 32 96
v 64 64 64
v 64 64 0
v 96 32 0
v 96 32 64
v 64 64 0
v 64 64 -64
v 96 32 -64
v 96 32 0
v 64 64 -64
v 96 32 -96
v 96 32 -64
v 64 64 -64
v 64 32 -96
v 96 32 -96
v 64 64 -64
v 0 64 -64
v 0 32 -96
v 64 32 -96
v 0 64 -64
v -64 64 -64
v -64 32 -96
v 0 32 -96
v -64 64 -64
v -96 32 -96
v -64 32 -96
v -64 64 -64
v -96 32 -64
v -96 32 -96
v -64 64 -64
v -64 64 0
v -96 32 0
v -96 32 -64
v -64 64 0
v -64 64 64
v -96 32 64
v -96 32 0
v -64 64 64
v -96 32 96
v -96 32 64
v -64 128 64
v 0 128 64
v 0 64 64
v -64 64 64
v 0 128 64
v 64 128 64
v 64 64 64
v 0 64 64
v 64 128 64
v 64 128 0
v 64 64 0
v 64 64 64
v 64 128 0
v 64 128 -64
v 64 64 -64
v 64 64 0
v 64 128 -64
v 0 128 -64
v 0 64 -64
v 64 64 -64
v 0 128 -64
v -64 128 -64
v -64 64 -64
v 0 64 -64
v -64 128 -64
v -64 128 0
v -64 64 0
v -64 64 -64
v -64 128 0
v -64 128 64
v -64 64 64
v -64 64 0
v -64 160 0
v 0 160 0
v 0 128 64
v -64 128 64
v 0 160 0
v 64 160 0
v 64 128 64
v 0 128 64
v 64 160 0
v 64 128 0
v 64 128 64
v 64 160 0
v 64 128 -64
v 64 128 0
v 64 160 0
v 0 160 0
v 0 128 -64
v 64 128 -64
v 0 160 0
v -64 160 0
v -64 128 -64
v 0 128 -64
v -64 160 0
v -64 128 0
v -64 128 -64
v -64 160 0
v -64 128 64
v -64 128 0

# Texture Coordinates

vt 0 0.84
vt 0.196875 0.84
vt 0.196875 0.685
vt 0 0.685
vt 0.2 0.52
vt 0.396875 0.52
vt 0.396875 0.365
vt 0.2 0.365
vt 0.2 1
vt 0.396875 1
vt 0.396875 0.845
vt 0.2 0.845
vt 0 0.84
vt 0.196875 0.84
vt 0.196875 0.685
vt 0 0.685
vt 0 0.84
vt 0.196875 0.84
vt 0.196875 0.685
vt 0 0.685
vt 0.2 0.84
vt 0.396875 0.84
vt 0.396875 0.685
vt 0.2 0.685
vt 0.2 0.84
vt 0.396875 0.84
vt 0.396875 0.685
vt 0.2 0.685
vt 0 0.84
vt 0.196875 0.84
vt 0.196875 0.685
vt 0 0.685
vt 0 0.84
vt 0.196875 0.84
vt 0.196875 0.685
vt 0 0.685
vt 0.2 0.84
vt 0.396875 0.84
vt 0.396875 0.685
vt 0.2 0.685
vt 0.2 0.84
vt 0.396875 0.84
vt 0.396875 0.685
vt 0.2 0.685
vt 0 0.84
vt 0.196875 0.84
vt 0.196875 0.685
vt 0 0.685
vt 0 0.84
vt 0.196875 0.84
vt 0.196875 0.685
vt 0 0.685
vt 0.2 0.84
vt 0.396875 0.84
vt 0.396875 0.685
vt 0.2 0.685
vt 0.2 0.84
vt 0.396875 0.84
vt 0.396875 0.685
vt 0.2 0.685
vt 0 0.84
vt 0.196875 0.84
vt 0.196875 0.685
vt 0 0.685
vt 0.196875 1
vt 0.196875 0.685
vt 0 0.685
vt 0 1
vt 0.196875 1
vt 0.196875 0.685
vt 0 0.685
vt 0 1
vt 0.196875 1
vt 0.196875 0.685
vt 0 0.685
vt 0 1
vt 0.196875 0.685
vt 0 0.685
vt 0.196875 1
vt 0.196875 0.685
vt 0 0.685
vt 0 1
vt 0.196875 1
vt 0.196875 0.685
vt 0 0.685
vt 0 1
vt 0.196875 1
vt 0.196875 0.685
vt 0 0.685
vt 0 1
vt 0.196875 0.685
vt 0 0.685
vt 0.196875 1
vt 0.196875 0.685
vt 0 0.685
vt 0 1
vt 0.196875 1
vt 0.196875 0.685
vt 0 0.685
vt 0 1
vt 0.196875 1
vt 0.196875 0.685
vt 0 0.685
vt 0 1
vt 0.196875 0.685
vt 0 0.685
vt 0.196875 1
vt 0.196875 0.685
vt 0 0.685
vt 0 1
vt 0.196875 1
vt 0.196875 0.685
vt 0 0.685
vt 0 1
vt 0.196875 1
vt 0.196875 0.685
vt 0 0.685
vt 0 1
vt 0.196875 0.685
vt 0 0.685
vt 0.2 1
vt 0.396875 1
vt 0.396875 0.685
vt 0.2 0.685
vt 0.2 1
vt 0.396875 1
vt 0.396875 0.685
vt 0.2 0.685
vt 0.2 1
vt 0.396875 1
vt 0.396875 0.685
vt 0.2 0.685
vt 0.2 1
vt 0.396875 1
vt 0.396875 0.685
vt 0.2 0.685
vt 0.2 1
vt 0.396875 1
vt 0.396875 0.685
vt 0.2 0.685
vt 0.2 1
vt 0.396875 1
vt 0.396875 0.685
vt 0.2 0.685
vt 0.2 1
vt 0.396875 1
vt 0.396875 0.685
vt 0.2 0.685
vt 0.2 1
vt 0.396875 1
vt 0.396875 0.685
vt 0.2 0.685
vt 0 0.84
vt 0.196875 0.84
vt 0.196875 0.685
vt 0 0.685
vt 0 0.84
vt 0.196875 0.84
vt 0.196875 0.685
vt 0 0.685
vt 0.196875 0.84
vt 0.196875 0.685
vt 0 0.685
vt 0 0.84
vt 0.196875 0.685
vt 0 0.685
vt 0 0.84
vt 0.196875 0.84
vt 0.196875 0.685
vt 0 0.685
vt 0 0.84
vt 0.196875 0.84
vt 0.196875 0.685
vt 0 0.685
vt 0.196875 0.84
vt 0.196875 0.685
vt 0 0.685
vt 0 0.84
vt 0.196875 0.685
vt 0 0.685

# Groups

g Group1

f 1/1 3/3 2/2
f 1/1 4/4 3/3
f 5/5 7/7 6/6
f 5/5 8/8 7/7
f 9/9 11/11 10/10
f 9/9 12/12 11/11
f 13/13 15/15 14/14
f 13/13 16/16 15/15
f 17/17 19/19 18/18
f 17/17 20/20 19/19
f 21/21 23/23 22/22
f 21/21 24/24 23/23
f 25/25 27/27 26/26
f 25/25 28/28 27/27
f 29/29 31/31 30/30
f 29/29 32/32 31/31
f 33/33 35/35 34/34
f 33/33 36/36 35/35
f 37/37 39/39 38/38
f 37/37 40/40 39/39
f 41/41 43/43 42/42
f 41/41 44/44 43/43
f 45/45 47/47 46/46
f 45/45 48/48 47/47
f 49/49 51/51 50/50
f 49/49 52/52 51/51
f 53/53 55/55 54/54
f 53/53 56/56 55/55
f 57/57 59/59 58/58
f 57/57 60/60 59/59
f 61/61 63/63 62/62
f 61/61 64/64 63/63
f 121/121 123/123 122/122
f 121/121 124/124 123/123
f 125/125 127/127 126/126
f 125/125 128/128 127/127
f 129/129 131/131 130/130
f 129/129 132/132 131/131
f 133/133 135/135 134/134
f 133/133 136/136 135/135
f 137/137 139/139 138/138
f 137/137 140/140 139/139
f 141/141 143/143 142/142
f 141/141 144/144 143/143
f 145/145 147/147 146/146
f 145/145 148/148 147/147
f 149/149 151/151 150/150
f 149/149 152/152 151/151
f 161/161 163/163 162/162
f 164/164 166/166 165/165
f 175/175 177/177 176/176
f 178/178 180/180 179/179

g Group2

f 65/65 67/67 66/66
f 68/68 70/70 69/69
f 68/68 71/71 70/70
f 72/72 74/74 73/73
f 72/72 75/75 74/74
f 76/76 78/78 77/77
f 79/79 81/81 80/80
f 82/82 84/84 83/83
f 82/82 85/85 84/84
f 86/86 88/88 87/87
f 86/86 89/89 88/88
f 90/90 92/92 91/91
f 93/93 95/95 94/94
f 96/96 98/98 97/97
f 96/96 99/99 98/98
f 100/100 102/102 101/101
f 100/100 103/103 102/102
f 104/104 106/106 105/105
f 107/107 109/109 108/108
f 110/110 112/112 111/111
f 110/110 113/113 112/112
f 114/114 116/116 115/115
f 114/114 117/117 116/116
f 118/118 120/120 119/119
f 153/153 155/155 154/154
f 153/153 156/156 155/155
f 157/157 159/159 158/158
f 157/157 160/160 159/159
f 167/167 169/169 168/168
f 167/167 170/170 169/169
f 171/171 173/173 172/172
f 171/171 174/174 173/173
