# Vertices

v 24 40 -12
v -8 28 -12
v 12 20 -12
v 24 28 -12
v 24 40 -12
v -32 40 -12
v -36 36 -12
v -36 32 -12
v -32 28 -12
v -8 28 -12
v -8 28 8
v -32 28 8
v -36 32 8
v -36 36 8
v -32 40 8
v 24 40 8
v 24 28 8
v 12 20 8
v -8 28 8
v 24 40 8
v 24 40 8
v 24 40 -12
v 24 28 -12
v 24 28 8
v 24 40 8
v -32 40 8
v -32 40 -12
v 24 40 -12
v -32 40 8
v -36 36 8
v -36 36 -12
v -32 40 -12
v -36 36 8
v -36 32 8
v -36 32 -12
v -36 36 -12
v -36 32 8
v -32 28 8
v -32 28 -12
v -36 32 -12
v -8 28 -12
v -32 28 -12
v -32 28 8
v -8 28 8
v 12 20 -12
v -8 28 -12
v -8 28 8
v 12 20 8
v 24 28 -12
v 12 20 -12
v 12 20 8
v 24 28 8
v 20 40 -20
v 12 44 -20
v 4 20 -20
v 16 20 -20
v 16 20 -20
v 4 20 -20
v 12 0 -20
v 20 4 -20
v 16 20 -12
v 4 20 -12
v 12 44 -12
v 20 40 -12
v 20 4 -12
v 12 0 -12
v 4 20 -12
v 16 20 -12
v 16 20 16
v 4 20 16
v 12 44 16
v 20 40 16
v 20 4 16
v 12 0 16
v 4 20 16
v 16 20 16
v 20 40 8
v 12 44 8
v 4 20 8
v 16 20 8
v 16 20 8
v 4 20 8
v 12 0 8
v 20 4 8
v 20 40 -12
v 12 44 -12
v 12 44 -20
v 20 40 -20
v 12 44 -12
v 4 20 -12
v 4 20 -20
v 12 44 -20
v 4 20 -12
v 12 0 -12
v 12 0 -20
v 4 20 -20
v 28 0 -20
v 12 0 -20
v 12 0 -12
v 28 0 -12
v 24 4 -12
v 24 4 -20
v 28 0 -20
v 28 0 -12
v 24 4 -12
v 20 4 -12
v 20 4 -20
v 24 4 -20
v 16 20 -12
v 16 20 -20
v 20 4 -20
v 20 4 -12
v 20 40 -12
v 20 40 -20
v 16 20 -20
v 16 20 -12
v 20 40 16
v 12 44 16
v 12 44 8
v 20 40 8
v 12 44 16
v 4 20 16
v 4 20 8
v 12 44 8
v 4 20 16
v 12 0 16
v 12 0 8
v 4 20 8
v 28 0 8
v 12 0 8
v 12 0 16
v 28 0 16
v 28 0 8
v 28 0 16
v 24 4 16
v 24 4 8
v 24 4 16
v 20 4 16
v 20 4 8
v 24 4 8
v 20 4 8
v 20 4 16
v 16 20 16
v 16 20 8
v 16 20 8
v 16 20 16
v 20 40 16
v 20 40 8
v -20 28 -20
v -32 36 -20
v -40 20 -20
v -28 20 -20
v -28 20 -20
v -40 20 -20
v -32 0 -20
v -24 4 -20
v -28 20 -12
v -40 20 -12
v -32 36 -12
v -20 28 -12
v -24 4 -12
v -32 0 -12
v -40 20 -12
v -28 20 -12
v -28 20 16
v -40 20 16
v -32 36 16
v -20 28 16
v -24 4 16
v -32 0 16
v -40 20 16
v -28 20 16
v -20 28 8
v -32 36 8
v -40 20 8
v -28 20 8
v -28 20 8
v -40 20 8
v -32 0 8
v -24 4 8
v -20 28 -12
v -32 36 -12
v -32 36 -20
v -20 28 -20
v -32 36 -12
v -40 20 -12
v -40 20 -20
v -32 36 -20
v -40 20 -12
v -32 0 -12
v -32 0 -20
v -40 20 -20
v -16 0 -20
v -32 0 -20
v -32 0 -12
v -16 0 -12
v -20 4 -12
v -20 4 -20
v -16 0 -20
v -16 0 -12
v -20 4 -12
v -24 4 -12
v -24 4 -20
v -20 4 -20
v -28 20 -12
v -28 20 -20
v -24 4 -20
v -24 4 -12
v -20 28 -12
v -20 28 -20
v -28 20 -20
v -28 20 -12
v -20 28 16
v -32 36 16
v -32 36 8
v -20 28 8
v -32 36 16
v -40 20 16
v -40 20 8
v -32 36 8
v -40 20 16
v -32 0 16
v -32 0 8
v -40 20 8
v -16 0 8
v -32 0 8
v -32 0 16
v -16 0 16
v -16 0 8
v -16 0 16
v -20 4 16
v -20 4 8
v -20 4 16
v -24 4 16
v -24 4 8
v -20 4 8
v -24 4 8
v -24 4 16
v -28 20 16
v -28 20 8
v -28 20 8
v -28 20 16
v -20 28 16
v -20 28 8
v 24 4 -20
v 20 4 -20
v 12 0 -20
v 28 0 -20
v 28 0 -12
v 12 0 -12
v 20 4 -12
v 24 4 -12
v 28 0 16
v 12 0 16
v 20 4 16
v 24 4 16
v 24 4 8
v 20 4 8
v 12 0 8
v 28 0 8
v -20 4 -20
v -24 4 -20
v -32 0 -20
v -16 0 -20
v -16 0 -12
v -32 0 -12
v -24 4 -12
v -20 4 -12
v -16 0 16
v -32 0 16
v -24 4 16
v -20 4 16
v -20 4 8
v -24 4 8
v -32 0 8
v -16 0 8
v 44 36 -8
v 32 40 -8
v 32 32 -8
v 44 32 -8
v 24 42 -12
v 24 24 -16
v 32 28 -8
v 32 40 -8
v 24 42 -12
v 32 28 -8
v 32 28 4
v 24 24 12
v 24 42 8
v 32 28 4
v 24 42 8
v 32 40 4
v 44 32 4
v 32 32 4
v 32 40 4
v 44 36 4
v 24 42 8
v 24 24 12
v 24 24 -16
v 24 42 -12
v 32 40 4
v 24 42 8
v 24 42 -12
v 32 40 -8
v 44 36 4
v 32 40 4
v 32 40 -8
v 44 36 -8
v 44 36 4
v 44 36 -8
v 44 32 -8
v 44 32 4
v 32 28 -8
v 24 24 -16
v 24 24 12
v 32 28 4
v 36 24 -8
v 32 28 -8
v 32 28 4
v 36 24 4
v 40 28 4
v 40 28 -8
v 36 24 -8
v 36 24 4
v 40 28 -8
v 40 28 4
v 32 32 4
v 32 32 -8
v 44 32 -8
v 32 32 -8
v 32 32 4
v 44 32 4
v 40 28 -8
v 32 32 -8
v 32 28 -8
v 40 28 -8
v 32 28 -8
v 36 24 -8
v 40 28 4
v 32 28 4
v 32 32 4
v 36 24 4
v 32 28 4
v 40 28 4
v -36 36 -4
v -44 28 -4
v -44 24 -4
v -36 32 -4
v -44 28 -4
v -48 20 -4
v -48 16 -4
v -44 24 -4
v -48 20 -4
v -60 16 -4
v -60 12 -4
v -48 16 -4
v -60 16 -4
v -68 20 0
v -60 12 -4
v -36 32 0
v -44 24 0
v -44 28 0
v -36 36 0
v -44 24 0
v -48 16 0
v -48 20 0
v -44 28 0
v -48 16 0
v -60 12 0
v -60 16 0
v -48 20 0
v -60 12 0
v -68 20 0
v -60 16 0
v -36 36 0
v -44 28 0
v -44 28 -4
v -36 36 -4
v -44 28 -4
v -44 28 0
v -48 20 0
v -48 20 -4
v -48 20 -4
v -48 20 0
v -60 16 0
v -60 16 -4
v -60 16 -4
v -60 16 0
v -68 20 0
v -36 32 -4
v -44 24 -4
v -44 24 0
v -36 32 0
v -44 24 -4
v -48 16 -4
v -48 16 0
v -44 24 0
v -48 16 -4
v -60 12 -4
v -60 12 0
v -48 16 0
v -60 12 -4
v -68 20 0
v -60 12 0

# Texture Coordinates

vt 0.0125 0.98
vt 0.1125 0.92
vt 0.05 0.88
vt 0.0125 0.92
vt 0.0125 0.98
vt 0.1875 0.98
vt 0.2 0.96
vt 0.2 0.94
vt 0.1875 0.92
vt 0.1125 0.92
vt 0.096875 0.8049999999999999
vt 0.021875 0.8049999999999999
vt 0.009375 0.825
vt 0.009375 0.845
vt 0.021875 0.865
vt 0.196875 0.865
vt 0.196875 0.8049999999999999
vt 0.159375 0.765
vt 0.096875 0.8049999999999999
vt 0.196875 0.865
vt 0.753125 0.885
vt 0.753125 0.985
vt 0.790625 0.985
vt 0.790625 0.885
vt 0.746875 0.885
vt 0.571875 0.885
vt 0.571875 0.985
vt 0.746875 0.985
vt 0.565625 0.885
vt 0.546875 0.885
vt 0.546875 0.985
vt 0.565625 0.985
vt 0.540625 0.885
vt 0.528125 0.885
vt 0.528125 0.985
vt 0.540625 0.985
vt 0.521875 0.885
vt 0.503125 0.885
vt 0.503125 0.985
vt 0.521875 0.985
vt 0.421875 0.985
vt 0.496875 0.985
vt 0.496875 0.885
vt 0.421875 0.885
vt 0.346875 0.985
vt 0.415625 0.985
vt 0.415625 0.885
vt 0.346875 0.885
vt 0.296875 0.985
vt 0.340625 0.985
vt 0.340625 0.885
vt 0.296875 0.885
vt 0.7375 0.85
vt 0.7625 0.87
vt 0.7875 0.75
vt 0.75 0.75
vt 0.75 0.75
vt 0.7875 0.75
vt 0.7625 0.65
vt 0.7375 0.6699999999999999
vt 0.7125 0.75
vt 0.675 0.75
vt 0.7 0.87
vt 0.725 0.85
vt 0.725 0.6699999999999999
vt 0.7 0.65
vt 0.675 0.75
vt 0.7125 0.75
vt 0.659375 0.755
vt 0.621875 0.755
vt 0.646875 0.875
vt 0.671875 0.855
vt 0.671875 0.675
vt 0.646875 0.655
vt 0.621875 0.755
vt 0.659375 0.755
vt 0.5625 0.855
vt 0.5875 0.875
vt 0.6125 0.755
vt 0.575 0.755
vt 0.575 0.755
vt 0.6125 0.755
vt 0.5875 0.655
vt 0.5625 0.675
vt 0.55625 0.7050000000000001
vt 0.528125 0.7050000000000001
vt 0.528125 0.745
vt 0.55625 0.745
vt 0.521875 0.7050000000000001
vt 0.44375 0.7050000000000001
vt 0.44375 0.745
vt 0.521875 0.745
vt 0.4375 0.7050000000000001
vt 0.36875 0.7050000000000001
vt 0.36875 0.745
vt 0.4375 0.745
vt 0.3125 0.745
vt 0.3625 0.745
vt 0.3625 0.7050000000000001
vt 0.3125 0.7050000000000001
vt 0.2875 0.7050000000000001
vt 0.2875 0.745
vt 0.30625 0.745
vt 0.30625 0.7050000000000001
vt 0.28125 0.7050000000000001
vt 0.26875 0.7050000000000001
vt 0.26875 0.745
vt 0.28125 0.745
vt 0.2125 0.7050000000000001
vt 0.2125 0.745
vt 0.2625 0.745
vt 0.2625 0.7050000000000001
vt 0.14375 0.7050000000000001
vt 0.14375 0.745
vt 0.20625 0.745
vt 0.20625 0.7050000000000001
vt 0.55625 0.65
vt 0.528125 0.65
vt 0.528125 0.69
vt 0.55625 0.69
vt 0.521875 0.65
vt 0.44375 0.65
vt 0.44375 0.69
vt 0.521875 0.69
vt 0.4375 0.65
vt 0.36875 0.65
vt 0.36875 0.69
vt 0.4375 0.69
vt 0.3125 0.69
vt 0.3625 0.69
vt 0.3625 0.65
vt 0.3125 0.65
vt 0.30625 0.69
vt 0.30625 0.65
vt 0.2875 0.65
vt 0.2875 0.69
vt 0.28125 0.65
vt 0.26875 0.65
vt 0.26875 0.69
vt 0.28125 0.69
vt 0.2625 0.69
vt 0.2625 0.65
vt 0.2125 0.65
vt 0.2125 0.69
vt 0.20625 0.69
vt 0.20625 0.65
vt 0.14375 0.65
vt 0.14375 0.69
vt 0.009375 0.745
vt 0.046875 0.785
vt 0.071875 0.7050000000000001
vt 0.034375 0.7050000000000001
vt 0.034375 0.7050000000000001
vt 0.071875 0.7050000000000001
vt 0.046875 0.605
vt 0.021875 0.625
vt 0.1 0.625
vt 0.0625 0.625
vt 0.0875 0.7050000000000001
vt 0.125 0.665
vt 0.1125 0.5449999999999999
vt 0.0875 0.525
vt 0.0625 0.625
vt 0.1 0.625
vt 0.234375 0.905
vt 0.196875 0.905
vt 0.221875 0.985
vt 0.259375 0.945
vt 0.246875 0.825
vt 0.221875 0.8049999999999999
vt 0.196875 0.905
vt 0.234375 0.905
vt 0.121875 0.5900000000000001
vt 0.159375 0.63
vt 0.184375 0.55
vt 0.146875 0.55
vt 0.146875 0.55
vt 0.184375 0.55
vt 0.159375 0.44999999999999996
vt 0.134375 0.47
vt 0.7875 0.5900000000000001
vt 0.74375 0.5900000000000001
vt 0.74375 0.63
vt 0.7875 0.63
vt 0.7375 0.5900000000000001
vt 0.68125 0.5900000000000001
vt 0.68125 0.63
vt 0.7375 0.63
vt 0.675 0.5900000000000001
vt 0.60625 0.5900000000000001
vt 0.60625 0.63
vt 0.675 0.63
vt 0.55 0.63
vt 0.6 0.63
vt 0.6 0.5900000000000001
vt 0.55 0.5900000000000001
vt 0.525 0.5900000000000001
vt 0.525 0.63
vt 0.54375 0.63
vt 0.54375 0.5900000000000001
vt 0.51875 0.5900000000000001
vt 0.50625 0.5900000000000001
vt 0.50625 0.63
vt 0.51875 0.63
vt 0.45 0.5900000000000001
vt 0.45 0.63
vt 0.5 0.63
vt 0.5 0.5900000000000001
vt 0.409375 0.5900000000000001
vt 0.409375 0.63
vt 0.44375 0.63
vt 0.44375 0.5900000000000001
vt 0.7875 0.54
vt 0.74375 0.54
vt 0.74375 0.5800000000000001
vt 0.7875 0.5800000000000001
vt 0.7375 0.54
vt 0.68125 0.54
vt 0.68125 0.5800000000000001
vt 0.7375 0.5800000000000001
vt 0.675 0.54
vt 0.60625 0.54
vt 0.60625 0.5800000000000001
vt 0.675 0.5800000000000001
vt 0.55 0.5800000000000001
vt 0.6 0.5800000000000001
vt 0.6 0.54
vt 0.55 0.54
vt 0.54375 0.5800000000000001
vt 0.54375 0.54
vt 0.525 0.54
vt 0.525 0.5800000000000001
vt 0.51875 0.54
vt 0.50625 0.54
vt 0.50625 0.5800000000000001
vt 0.51875 0.5800000000000001
vt 0.5 0.5800000000000001
vt 0.5 0.54
vt 0.45 0.54
vt 0.45 0.5800000000000001
vt 0.44375 0.5800000000000001
vt 0.44375 0.54
vt 0.409375 0.54
vt 0.409375 0.5800000000000001
vt 0.1 0.9
vt 0.1125 0.9
vt 0.1375 0.88
vt 0.0875 0.88
vt 0.228125 0.77
vt 0.178125 0.77
vt 0.203125 0.79
vt 0.215625 0.79
vt 0.121875 0.755
vt 0.071875 0.755
vt 0.096875 0.775
vt 0.109375 0.775
vt 0.153125 0.91
vt 0.165625 0.91
vt 0.190625 0.89
vt 0.140625 0.89
vt 0.09375 0.74
vt 0.10625 0.74
vt 0.13125 0.72
vt 0.08125 0.72
vt 0.0625 0.5700000000000001
vt 0.0125 0.5700000000000001
vt 0.0375 0.5900000000000001
vt 0.05 0.5900000000000001
vt 0.065625 0.5349999999999999
vt 0.015625 0.5349999999999999
vt 0.040625 0.5549999999999999
vt 0.053125 0.5549999999999999
vt 0.253125 0.92
vt 0.265625 0.92
vt 0.290625 0.9
vt 0.240625 0.9
vt 0.259375 0.8200000000000001
vt 0.296875 0.84
vt 0.296875 0.8
vt 0.259375 0.8
vt 0.340625 0.855
vt 0.340625 0.765
vt 0.30625 0.79
vt 0.30625 0.865
vt 0.334375 0.875
vt 0.30625 0.8049999999999999
vt 0.39375 0.79
vt 0.359375 0.76
vt 0.359375 0.855
vt 0.396875 0.8
vt 0.36875 0.87
vt 0.396875 0.86
vt 0.44375 0.8
vt 0.40625 0.8
vt 0.40625 0.84
vt 0.44375 0.8200000000000001
vt 0.25625 0.54
vt 0.26875 0.44999999999999996
vt 0.18125 0.44999999999999996
vt 0.19375 0.54
vt 0.296875 0.55
vt 0.271875 0.53
vt 0.271875 0.63
vt 0.296875 0.61
vt 0.34375 0.55
vt 0.303125 0.55
vt 0.303125 0.61
vt 0.34375 0.61
vt 0.35 0.55
vt 0.35 0.61
vt 0.3625 0.61
vt 0.3625 0.55
vt 0.4 0.46499999999999997
vt 0.371875 0.42500000000000004
vt 0.371875 0.565
vt 0.4 0.525
vt 0.425 0.46499999999999997
vt 0.40625 0.46499999999999997
vt 0.40625 0.525
vt 0.425 0.525
vt 0.45 0.525
vt 0.45 0.46499999999999997
vt 0.43125 0.46499999999999997
vt 0.43125 0.525
vt 0.45625 0.46499999999999997
vt 0.45625 0.525
vt 0.484375 0.525
vt 0.484375 0.46499999999999997
vt 0.528125 0.46499999999999997
vt 0.490625 0.46499999999999997
vt 0.490625 0.525
vt 0.528125 0.525
vt 0.4625 0.81
vt 0.4875 0.83
vt 0.4875 0.81
vt 0.4625 0.81
vt 0.4875 0.81
vt 0.475 0.79
vt 0.5375 0.81
vt 0.5125 0.81
vt 0.5125 0.83
vt 0.525 0.79
vt 0.5125 0.81
vt 0.5375 0.81
vt 0.55 0.515
vt 0.575 0.475
vt 0.575 0.45499999999999996
vt 0.55 0.495
vt 0.6 0.45499999999999996
vt 0.5875 0.495
vt 0.5875 0.515
vt 0.6 0.475
vt 0.646875 0.47
vt 0.609375 0.49
vt 0.609375 0.51
vt 0.646875 0.49
vt 0.684375 0.495
vt 0.65625 0.475
vt 0.684375 0.515
vt 0.71875 0.5
vt 0.69375 0.45999999999999996
vt 0.69375 0.48
vt 0.71875 0.52
vt 0.73125 0.495
vt 0.71875 0.45499999999999996
vt 0.71875 0.475
vt 0.73125 0.515
vt 0.778125 0.495
vt 0.740625 0.475
vt 0.740625 0.495
vt 0.778125 0.515
vt 0.0125 0.46499999999999997
vt 0.0375 0.505
vt 0.025 0.46499999999999997
vt 0.08125 0.475
vt 0.046875 0.475
vt 0.046875 0.495
vt 0.08125 0.495
vt 0.125 0.505
vt 0.125 0.485
vt 0.096875 0.485
vt 0.096875 0.505
vt 0.075 0.45999999999999996
vt 0.075 0.43999999999999995
vt 0.034375 0.43999999999999995
vt 0.034375 0.45999999999999996
vt 0.1125 0.46499999999999997
vt 0.1125 0.44499999999999995
vt 0.084375 0.44499999999999995
vt 0.31875 0.495
vt 0.284375 0.495
vt 0.284375 0.515
vt 0.31875 0.515
vt 0.359375 0.495
vt 0.33125 0.495
vt 0.33125 0.515
vt 0.359375 0.515
vt 0.3625 0.45499999999999996
vt 0.321875 0.45499999999999996
vt 0.321875 0.475
vt 0.3625 0.475
vt 0.309375 0.45499999999999996
vt 0.275 0.475
vt 0.309375 0.475

# Groups

g Group0

f 1/1 3/3 2/2
f 1/1 4/4 3/3
f 5/5 7/7 6/6
f 5/5 8/8 7/7
f 5/5 9/9 8/8
f 5/5 10/10 9/9
f 11/11 13/13 12/12
f 11/11 14/14 13/13
f 11/11 15/15 14/14
f 11/11 16/16 15/15
f 17/17 19/19 18/18
f 17/17 20/20 19/19
f 21/21 23/23 22/22
f 21/21 24/24 23/23
f 25/25 27/27 26/26
f 25/25 28/28 27/27
f 29/29 31/31 30/30
f 29/29 32/32 31/31
f 33/33 35/35 34/34
f 33/33 36/36 35/35
f 37/37 39/39 38/38
f 37/37 40/40 39/39
f 41/41 43/43 42/42
f 41/41 44/44 43/43
f 45/45 47/47 46/46
f 45/45 48/48 47/47
f 49/49 51/51 50/50
f 49/49 52/52 51/51
f 53/53 55/55 54/54
f 53/53 56/56 55/55
f 57/57 59/59 58/58
f 57/57 60/60 59/59
f 61/61 63/63 62/62
f 61/61 64/64 63/63
f 65/65 67/67 66/66
f 65/65 68/68 67/67
f 69/69 71/71 70/70
f 69/69 72/72 71/71
f 73/73 75/75 74/74
f 73/73 76/76 75/75
f 77/77 79/79 78/78
f 77/77 80/80 79/79
f 81/81 83/83 82/82
f 81/81 84/84 83/83
f 85/85 87/87 86/86
f 85/85 88/88 87/87
f 89/89 91/91 90/90
f 89/89 92/92 91/91
f 93/93 95/95 94/94
f 93/93 96/96 95/95
f 97/97 99/99 98/98
f 97/97 100/100 99/99
f 101/101 103/103 102/102
f 101/101 104/104 103/103
f 105/105 107/107 106/106
f 105/105 108/108 107/107
f 109/109 111/111 110/110
f 109/109 112/112 111/111
f 113/113 115/115 114/114
f 113/113 116/116 115/115
f 117/117 119/119 118/118
f 117/117 120/120 119/119
f 121/121 123/123 122/122
f 121/121 124/124 123/123
f 125/125 127/127 126/126
f 125/125 128/128 127/127
f 129/129 131/131 130/130
f 129/129 132/132 131/131
f 133/133 135/135 134/134
f 133/133 136/136 135/135
f 137/137 139/139 138/138
f 137/137 140/140 139/139
f 141/141 143/143 142/142
f 141/141 144/144 143/143
f 145/145 147/147 146/146
f 145/145 148/148 147/147
f 149/149 151/151 150/150
f 149/149 152/152 151/151
f 153/153 155/155 154/154
f 153/153 156/156 155/155
f 157/157 159/159 158/158
f 157/157 160/160 159/159
f 161/161 163/163 162/162
f 161/161 164/164 163/163
f 165/165 167/167 166/166
f 165/165 168/168 167/167
f 169/169 171/171 170/170
f 169/169 172/172 171/171
f 173/173 175/175 174/174
f 173/173 176/176 175/175
f 177/177 179/179 178/178
f 177/177 180/180 179/179
f 181/181 183/183 182/182
f 181/181 184/184 183/183
f 185/185 187/187 186/186
f 185/185 188/188 187/187
f 189/189 191/191 190/190
f 189/189 192/192 191/191
f 193/193 195/195 194/194
f 193/193 196/196 195/195
f 197/197 199/199 198/198
f 197/197 200/200 199/199
f 201/201 203/203 202/202
f 201/201 204/204 203/203
f 205/205 207/207 206/206
f 205/205 208/208 207/207
f 209/209 211/211 210/210
f 209/209 212/212 211/211
f 213/213 215/215 214/214
f 213/213 216/216 215/215
f 217/217 219/219 218/218
f 217/217 220/220 219/219
f 221/221 223/223 222/222
f 221/221 224/224 223/223
f 225/225 227/227 226/226
f 225/225 228/228 227/227
f 229/229 231/231 230/230
f 229/229 232/232 231/231
f 233/233 235/235 234/234
f 233/233 236/236 235/235
f 237/237 239/239 238/238
f 237/237 240/240 239/239
f 241/241 243/243 242/242
f 241/241 244/244 243/243
f 245/245 247/247 246/246
f 245/245 248/248 247/247
f 249/249 251/251 250/250
f 249/249 252/252 251/251
f 253/253 255/255 254/254
f 253/253 256/256 255/255
f 257/257 259/259 258/258
f 257/257 260/260 259/259
f 261/261 263/263 262/262
f 261/261 264/264 263/263
f 265/265 267/267 266/266
f 265/265 268/268 267/267
f 269/269 271/271 270/270
f 269/269 272/272 271/271
f 273/273 275/275 274/274
f 273/273 276/276 275/275
f 277/277 279/279 278/278
f 277/277 280/280 279/279
f 281/281 283/283 282/282
f 284/284 286/286 285/285
f 287/287 289/289 288/288
f 290/290 292/292 291/291
f 293/293 295/295 294/294
f 293/293 296/296 295/295
f 297/297 299/299 298/298
f 297/297 300/300 299/299
f 301/301 303/303 302/302
f 301/301 304/304 303/303
f 305/305 307/307 306/306
f 305/305 308/308 307/307
f 309/309 311/311 310/310
f 309/309 312/312 311/311
f 313/313 315/315 314/314
f 313/313 316/316 315/315
f 317/317 319/319 318/318
f 317/317 320/320 319/319
f 321/321 323/323 322/322
f 321/321 324/324 323/323
f 325/325 327/327 326/326
f 325/325 328/328 327/327
f 329/329 331/331 330/330
f 329/329 332/332 331/331
f 333/333 335/335 334/334
f 336/336 338/338 337/337
f 339/339 341/341 340/340
f 342/342 344/344 343/343
f 345/345 347/347 346/346
f 345/345 348/348 347/347
f 349/349 351/351 350/350
f 349/349 352/352 351/351
f 353/353 355/355 354/354
f 353/353 356/356 355/355
f 357/357 359/359 358/358
f 360/360 362/362 361/361
f 360/360 363/363 362/362
f 364/364 366/366 365/365
f 364/364 367/367 366/366
f 368/368 370/370 369/369
f 368/368 371/371 370/370
f 372/372 374/374 373/373
f 375/375 377/377 376/376
f 375/375 378/378 377/377
f 379/379 381/381 380/380
f 379/379 382/382 381/381
f 383/383 385/385 384/384
f 383/383 386/386 385/385
f 387/387 389/389 388/388
f 390/390 392/392 391/391
f 390/390 393/393 392/392
f 394/394 396/396 395/395
f 394/394 397/397 396/396
f 398/398 400/400 399/399
f 398/398 401/401 400/400
f 402/402 404/404 403/403
