# Vertices

v 10 10 -3
v 5 12 -3
v -5 9 -3
v -5 8 -3
v 0 8 -3
v 10 10 -3
v 0 8 -3
v 5 6 -3
v 10 8 -3
v 10 10 3
v 0 8 3
v -5 8 3
v -5 9 3
v 5 12 3
v 10 8 3
v 5 6 3
v 0 8 3
v 10 10 3
v 10 10 3
v 10 10 -3
v 10 8 -3
v 10 8 3
v 5 12 3
v 5 12 -3
v 10 10 -3
v 10 10 3
v 5 12 3
v -5 9 3
v -5 9 -3
v 5 12 -3
v -5 9 3
v -5 8 3
v -5 8 -3
v -5 9 -3
v 0 8 -3
v -5 8 -3
v -5 8 3
v 0 8 3
v 5 6 -3
v 0 8 -3
v 0 8 3
v 5 6 3
v 10 8 3
v 10 8 -3
v 5 6 -3
v 5 6 3
v 9 8 -4
v 7 10 -4
v 5 8 -4
v 7 6 -4
v 7 6 -3
v 5 8 -3
v 7 10 -3
v 9 8 -3
v 9 8 -3
v 9 8 -4
v 7 6 -4
v 7 6 -3
v 7 6 -4
v 5 8 -4
v 5 8 -3
v 7 6 -3
v 7 10 -3
v 5 8 -3
v 5 8 -4
v 7 10 -4
v 7 10 -3
v 7 10 -4
v 9 8 -4
v 9 8 -3
v 7 6 4
v 5 8 4
v 7 10 4
v 9 8 4
v 9 8 3
v 7 10 3
v 5 8 3
v 7 6 3
v 7 6 3
v 7 6 4
v 9 8 4
v 9 8 3
v 7 6 3
v 5 8 3
v 5 8 4
v 7 6 4
v 7 10 4
v 5 8 4
v 5 8 3
v 7 10 3
v 9 8 3
v 9 8 4
v 7 10 4
v 7 10 3
v 6 7 -4
v 5 8 -4
v 6 0 -4
v 7 1 -4
v 9 0 -4
v 7 1 -4
v 6 0 -4
v 7 1 -3
v 6 0 -3
v 5 8 -3
v 6 7 -3
v 9 0 -3
v 6 0 -3
v 7 1 -3
v 6 7 -3
v 6 7 -4
v 7 1 -4
v 7 1 -3
v 7 1 -3
v 7 1 -4
v 9 0 -4
v 9 0 -3
v 5 8 -3
v 6 0 -3
v 6 0 -4
v 5 8 -4
v 7 1 4
v 6 0 4
v 5 8 4
v 6 7 4
v 6 0 4
v 7 1 4
v 9 0 4
v 6 7 3
v 5 8 3
v 6 0 3
v 7 1 3
v 7 1 3
v 6 0 3
v 9 0 3
v 7 1 3
v 7 1 4
v 6 7 4
v 6 7 3
v 9 0 3
v 9 0 4
v 7 1 4
v 7 1 3
v 5 8 4
v 6 0 4
v 6 0 3
v 5 8 3
v 0 8 -4
v -2 10 -4
v -4 8 -4
v -2 6 -4
v -2 6 -3
v -4 8 -3
v -2 10 -3
v 0 8 -3
v 0 8 -3
v 0 8 -4
v -2 6 -4
v -2 6 -3
v -2 6 -4
v -4 8 -4
v -4 8 -3
v -2 6 -3
v -2 10 -3
v -4 8 -3
v -4 8 -4
v -2 10 -4
v -2 10 -3
v -2 10 -4
v 0 8 -4
v 0 8 -3
v -2 6 4
v -4 8 4
v -2 10 4
v 0 8 4
v 0 8 3
v -2 10 3
v -4 8 3
v -2 6 3
v -2 6 3
v -2 6 4
v 0 8 4
v 0 8 3
v -2 6 3
v -4 8 3
v -4 8 4
v -2 6 4
v -2 10 4
v -4 8 4
v -4 8 3
v -2 10 3
v 0 8 3
v 0 8 4
v -2 10 4
v -2 10 3
v -2 6 -4
v -3 7 -4
v -4 4 -4
v -3 4 -4
v -3 4 -4
v -4 4 -4
v -2 0 -4
v -1 1 -4
v 1 0 -4
v -1 1 -4
v -2 0 -4
v -3 4 -3
v -4 4 -3
v -3 7 -3
v -2 6 -3
v -1 1 -3
v -2 0 -3
v -4 4 -3
v -3 4 -3
v 1 0 -3
v -2 0 -3
v -1 1 -3
v -2 6 -3
v -2 6 -4
v -3 4 -4
v -3 4 -3
v -3 4 -3
v -3 4 -4
v -1 1 -4
v -1 1 -3
v -1 1 -3
v -1 1 -4
v 1 0 -4
v 1 0 -3
v -3 7 -3
v -4 4 -3
v -4 4 -4
v -3 7 -4
v -4 4 -3
v -2 0 -3
v -2 0 -4
v -4 4 -4
v -3 4 4
v -4 4 4
v -3 7 4
v -2 6 4
v -1 1 4
v -2 0 4
v -4 4 4
v -3 4 4
v -2 0 4
v -1 1 4
v 1 0 4
v -1 1 3
v -2 0 3
v 1 0 3
v -3 4 3
v -4 4 3
v -2 0 3
v -1 1 3
v -2 6 3
v -3 7 3
v -4 4 3
v -3 4 3
v -3 4 3
v -3 4 4
v -2 6 4
v -2 6 3
v -1 1 3
v -1 1 4
v -3 4 4
v -3 4 3
v 1 0 3
v 1 0 4
v -1 1 4
v -1 1 3
v -3 7 4
v -4 4 4
v -4 4 3
v -3 7 3
v -4 4 4
v -2 0 4
v -2 0 3
v -4 4 3
v 12 9 1
v 12 9 -1
v 15 8 -1
v 15 8 1
v 15 8 1
v 15 8 -1
v 12 7 0
v 15 8 -1
v 12 9 -1
v 12 8 -2
v 15 8 -1
v 12 8 -2
v 12 7 0
v 12 8 2
v 12 9 1
v 15 8 1
v 12 8 2
v 15 8 1
v 12 7 0
v 10 11 2
v 10 11 -2
v 12 9 -1
v 12 9 1
v 12 9 -1
v 10 11 -2
v 10 8 -3
v 12 8 -2
v 12 8 -2
v 10 8 -3
v 10 6 0
v 12 7 0
v 10 8 3
v 10 11 2
v 12 9 1
v 12 8 2
v 12 8 2
v 12 7 0
v 10 6 0
v 10 8 3
v 10 12 3
v 10 11 2
v 10 8 3
v 10 8 3
v 10 11 2
v 10 12 3
v 10 11 -2
v 10 12 -3
v 10 8 -3
v 10 8 -3
v 10 12 -3
v 10 11 -2
v 10 8 3
v 10 6 0
v 10 8 -3
v 10 11 -2
v 10 11 2
v -5 9 0
v -8 8 0
v -8 6 -1
v -8 8 0
v -10 4 0
v -8 6 -1
v -5 9 0
v -8 6 1
v -8 8 0
v -8 8 0
v -8 6 1
v -10 4 0
v -5 9 0
v -8 6 -1
v -8 6 1
v -8 6 -1
v -10 4 0
v -8 6 1
v 9 0 -4
v 6 0 -4
v 6 0 -3
v 9 0 -3
v 9 0 3
v 6 0 3
v 6 0 4
v 9 0 4
v 1 0 -4
v -2 0 -4
v -2 0 -3
v 1 0 -3
v 1 0 3
v -2 0 3
v -2 0 4
v 1 0 4

# Texture Coordinates

vt 0.021875 0.935
vt 0.084375 0.975
vt 0.209375 0.915
vt 0.209375 0.895
vt 0.146875 0.895
vt 0.021875 0.935
vt 0.146875 0.895
vt 0.084375 0.855
vt 0.021875 0.895
vt 0.415625 0.935
vt 0.290625 0.895
vt 0.228125 0.895
vt 0.228125 0.915
vt 0.353125 0.975
vt 0.415625 0.895
vt 0.353125 0.855
vt 0.290625 0.895
vt 0.415625 0.935
vt 0.7625 0.71
vt 0.7625 0.83
vt 0.7875 0.83
vt 0.7875 0.71
vt 0.6875 0.71
vt 0.6875 0.83
vt 0.75625 0.83
vt 0.75625 0.71
vt 0.68125 0.71
vt 0.55 0.71
vt 0.55 0.83
vt 0.68125 0.83
vt 0.54375 0.71
vt 0.53125 0.71
vt 0.53125 0.83
vt 0.54375 0.83
vt 0.4625 0.83
vt 0.525 0.83
vt 0.525 0.71
vt 0.4625 0.71
vt 0.3875 0.83
vt 0.45625 0.83
vt 0.45625 0.71
vt 0.3875 0.71
vt 0.3125 0.71
vt 0.3125 0.83
vt 0.38125 0.83
vt 0.38125 0.71
vt 0.490625 0.92
vt 0.465625 0.88
vt 0.440625 0.92
vt 0.465625 0.96
vt 0.5375 0.875
vt 0.5125 0.915
vt 0.5375 0.955
vt 0.5625 0.915
vt 0.575 0.905
vt 0.575 0.925
vt 0.609375 0.925
vt 0.609375 0.905
vt 0.615625 0.925
vt 0.65 0.925
vt 0.65 0.905
vt 0.615625 0.905
vt 0.690625 0.905
vt 0.65625 0.905
vt 0.65625 0.925
vt 0.690625 0.925
vt 0.7 0.905
vt 0.7 0.925
vt 0.734375 0.925
vt 0.734375 0.905
vt 0.0375 0.73
vt 0.0125 0.77
vt 0.0375 0.81
vt 0.0625 0.77
vt 0.125 0.77
vt 0.1 0.73
vt 0.075 0.77
vt 0.1 0.81
vt 0.16875 0.775
vt 0.16875 0.755
vt 0.134375 0.755
vt 0.134375 0.775
vt 0.175 0.775
vt 0.209375 0.775
vt 0.209375 0.755
vt 0.175 0.755
vt 0.25 0.755
vt 0.215625 0.755
vt 0.215625 0.775
vt 0.25 0.775
vt 0.290625 0.775
vt 0.290625 0.755
vt 0.25625 0.755
vt 0.25625 0.775
vt 0.0625 0.675
vt 0.075 0.6950000000000001
vt 0.0625 0.5349999999999999
vt 0.05 0.5549999999999999
vt 0.025 0.5349999999999999
vt 0.05 0.5549999999999999
vt 0.0625 0.5349999999999999
vt 0.1125 0.5549999999999999
vt 0.1 0.5349999999999999
vt 0.0875 0.6950000000000001
vt 0.1 0.675
vt 0.1375 0.5349999999999999
vt 0.1 0.5349999999999999
vt 0.1125 0.5549999999999999
vt 0.146875 0.65
vt 0.146875 0.6699999999999999
vt 0.221875 0.6699999999999999
vt 0.221875 0.65
vt 0.228125 0.65
vt 0.228125 0.6699999999999999
vt 0.25625 0.6699999999999999
vt 0.25625 0.65
vt 0.15 0.63
vt 0.25 0.63
vt 0.25 0.61
vt 0.15 0.61
vt 0.303125 0.55
vt 0.290625 0.53
vt 0.278125 0.69
vt 0.290625 0.6699999999999999
vt 0.290625 0.53
vt 0.303125 0.55
vt 0.328125 0.53
vt 0.396875 0.665
vt 0.409375 0.685
vt 0.396875 0.525
vt 0.384375 0.5449999999999999
vt 0.384375 0.5449999999999999
vt 0.396875 0.525
vt 0.359375 0.525
vt 0.509375 0.6699999999999999
vt 0.509375 0.65
vt 0.434375 0.65
vt 0.434375 0.6699999999999999
vt 0.54375 0.6699999999999999
vt 0.54375 0.65
vt 0.515625 0.65
vt 0.515625 0.6699999999999999
vt 0.434375 0.63
vt 0.534375 0.63
vt 0.534375 0.61
vt 0.434375 0.61
vt 0.6125 0.64
vt 0.5875 0.6
vt 0.5625 0.64
vt 0.5875 0.6799999999999999
vt 0.55625 0.525
vt 0.53125 0.565
vt 0.55625 0.605
vt 0.58125 0.565
vt 0.59375 0.55
vt 0.59375 0.5700000000000001
vt 0.628125 0.5700000000000001
vt 0.628125 0.55
vt 0.634375 0.5700000000000001
vt 0.66875 0.5700000000000001
vt 0.66875 0.55
vt 0.634375 0.55
vt 0.709375 0.55
vt 0.675 0.55
vt 0.675 0.5700000000000001
vt 0.709375 0.5700000000000001
vt 0.71875 0.55
vt 0.71875 0.5700000000000001
vt 0.753125 0.5700000000000001
vt 0.753125 0.55
vt 0.665625 0.6
vt 0.640625 0.64
vt 0.665625 0.6799999999999999
vt 0.690625 0.64
vt 0.75625 0.645
vt 0.73125 0.605
vt 0.70625 0.645
vt 0.73125 0.685
vt 0.61875 0.525
vt 0.61875 0.505
vt 0.584375 0.505
vt 0.584375 0.525
vt 0.625 0.525
vt 0.659375 0.525
vt 0.659375 0.505
vt 0.625 0.505
vt 0.703125 0.505
vt 0.66875 0.505
vt 0.66875 0.525
vt 0.703125 0.525
vt 0.746875 0.525
vt 0.746875 0.505
vt 0.7125 0.505
vt 0.7125 0.525
vt 0.071875 0.49
vt 0.084375 0.51
vt 0.096875 0.44999999999999996
vt 0.084375 0.44999999999999996
vt 0.084375 0.44999999999999996
vt 0.096875 0.44999999999999996
vt 0.071875 0.37
vt 0.059375 0.39
vt 0.034375 0.37
vt 0.059375 0.39
vt 0.071875 0.37
vt 0.125 0.44999999999999996
vt 0.1125 0.44999999999999996
vt 0.125 0.51
vt 0.1375 0.49
vt 0.15 0.39
vt 0.1375 0.37
vt 0.1125 0.44999999999999996
vt 0.125 0.44999999999999996
vt 0.175 0.37
vt 0.1375 0.37
vt 0.15 0.39
vt 0.184375 0.46499999999999997
vt 0.184375 0.485
vt 0.2125 0.485
vt 0.2125 0.46499999999999997
vt 0.21875 0.46499999999999997
vt 0.21875 0.485
vt 0.2625 0.485
vt 0.2625 0.46499999999999997
vt 0.26875 0.46499999999999997
vt 0.26875 0.485
vt 0.296875 0.485
vt 0.296875 0.46499999999999997
vt 0.18125 0.43999999999999995
vt 0.221875 0.43999999999999995
vt 0.221875 0.42000000000000004
vt 0.18125 0.42000000000000004
vt 0.228125 0.43999999999999995
vt 0.284375 0.43999999999999995
vt 0.284375 0.42000000000000004
vt 0.228125 0.42000000000000004
vt 0.34375 0.43999999999999995
vt 0.33125 0.43999999999999995
vt 0.34375 0.5
vt 0.35625 0.48
vt 0.36875 0.38
vt 0.35625 0.36
vt 0.33125 0.43999999999999995
vt 0.34375 0.43999999999999995
vt 0.35625 0.36
vt 0.36875 0.38
vt 0.39375 0.36
vt 0.434375 0.38
vt 0.446875 0.36
vt 0.409375 0.36
vt 0.459375 0.43999999999999995
vt 0.471875 0.43999999999999995
vt 0.446875 0.36
vt 0.434375 0.38
vt 0.446875 0.48
vt 0.459375 0.5
vt 0.471875 0.43999999999999995
vt 0.459375 0.43999999999999995
vt 0.525 0.47
vt 0.525 0.44999999999999996
vt 0.496875 0.44999999999999996
vt 0.496875 0.47
vt 0.575 0.47
vt 0.575 0.44999999999999996
vt 0.53125 0.44999999999999996
vt 0.53125 0.47
vt 0.609375 0.47
vt 0.609375 0.44999999999999996
vt 0.58125 0.44999999999999996
vt 0.58125 0.47
vt 0.49375 0.42000000000000004
vt 0.534375 0.42000000000000004
vt 0.534375 0.4
vt 0.49375 0.4
vt 0.540625 0.42000000000000004
vt 0.596875 0.42000000000000004
vt 0.596875 0.4
vt 0.540625 0.4
vt 0.1625 0.21499999999999997
vt 0.1875 0.21499999999999997
vt 0.1875 0.15000000000000002
vt 0.1625 0.15000000000000002
vt 0.1625 0.14
vt 0.1875 0.14
vt 0.175 0.07499999999999996
vt 0.203125 0.15500000000000003
vt 0.19375 0.21499999999999997
vt 0.2125 0.21499999999999997
vt 0.234375 0.15500000000000003
vt 0.221875 0.21499999999999997
vt 0.25 0.21499999999999997
vt 0.134375 0.21499999999999997
vt 0.153125 0.21499999999999997
vt 0.14375 0.15500000000000003
vt 0.125 0.21499999999999997
vt 0.1125 0.15500000000000003
vt 0.096875 0.21499999999999997
vt 0.15 0.28
vt 0.2 0.28
vt 0.1875 0.22499999999999998
vt 0.1625 0.22499999999999998
vt 0.228125 0.22999999999999998
vt 0.209375 0.28
vt 0.246875 0.28
vt 0.24375 0.24
vt 0.2625 0.24
vt 0.253125 0.28
vt 0.296875 0.28
vt 0.290625 0.24
vt 0.1 0.28
vt 0.140625 0.28
vt 0.11875 0.22999999999999998
vt 0.103125 0.235
vt 0.078125 0.235
vt 0.05 0.235
vt 0.04375 0.28
vt 0.090625 0.275
vt 0.09375 0.37
vt 0.10625 0.35
vt 0.09375 0.29000000000000004
vt 0.084375 0.29000000000000004
vt 0.071875 0.35
vt 0.084375 0.37
vt 0.203125 0.36
vt 0.215625 0.38
vt 0.215625 0.30000000000000004
vt 0.221875 0.30000000000000004
vt 0.221875 0.38
vt 0.234375 0.36
vt 0.396875 0.26
vt 0.359375 0.21999999999999997
vt 0.321875 0.26
vt 0.334375 0.31999999999999995
vt 0.384375 0.31999999999999995
vt 0.428125 0.30000000000000004
vt 0.465625 0.28
vt 0.465625 0.235
vt 0.471875 0.275
vt 0.50625 0.20499999999999996
vt 0.471875 0.22999999999999998
vt 0.503125 0.28500000000000003
vt 0.540625 0.35
vt 0.540625 0.30500000000000005
vt 0.546875 0.30500000000000005
vt 0.546875 0.35
vt 0.58125 0.375
vt 0.515625 0.26
vt 0.56875 0.28
vt 0.56875 0.24
vt 0.575 0.28
vt 0.609375 0.26
vt 0.575 0.24
vt 0.215625 0.55
vt 0.178125 0.55
vt 0.178125 0.5700000000000001
vt 0.215625 0.5700000000000001
vt 0.484375 0.5549999999999999
vt 0.446875 0.5549999999999999
vt 0.446875 0.575
vt 0.484375 0.575
vt 0.309375 0.37
vt 0.271875 0.37
vt 0.271875 0.39
vt 0.309375 0.39
vt 0.659375 0.36
vt 0.621875 0.36
vt 0.621875 0.38
vt 0.659375 0.38

# Groups

g Group0

f 1/1 3/3 2/2
f 1/1 4/4 3/3
f 1/1 5/5 4/4
f 6/6 8/8 7/7
f 6/6 9/9 8/8
f 10/10 12/12 11/11
f 10/10 13/13 12/12
f 10/10 14/14 13/13
f 15/15 17/17 16/16
f 15/15 18/18 17/17
f 23/23 25/25 24/24
f 23/23 26/26 25/25
f 27/27 29/29 28/28
f 27/27 30/30 29/29
f 31/31 33/33 32/32
f 31/31 34/34 33/33
f 35/35 37/37 36/36
f 35/35 38/38 37/37
f 39/39 41/41 40/40
f 39/39 42/42 41/41
f 43/43 45/45 44/44
f 43/43 46/46 45/45
f 47/47 49/49 48/48
f 47/47 50/50 49/49
f 51/51 53/53 52/52
f 51/51 54/54 53/53
f 55/55 57/57 56/56
f 55/55 58/58 57/57
f 59/59 61/61 60/60
f 59/59 62/62 61/61
f 63/63 65/65 64/64
f 63/63 66/66 65/65
f 67/67 69/69 68/68
f 67/67 70/70 69/69
f 71/71 73/73 72/72
f 71/71 74/74 73/73
f 75/75 77/77 76/76
f 75/75 78/78 77/77
f 79/79 81/81 80/80
f 79/79 82/82 81/81
f 83/83 85/85 84/84
f 83/83 86/86 85/85
f 87/87 89/89 88/88
f 87/87 90/90 89/89
f 91/91 93/93 92/92
f 91/91 94/94 93/93
f 95/95 97/97 96/96
f 95/95 98/98 97/97
f 99/99 101/101 100/100
f 102/102 104/104 103/103
f 102/102 105/105 104/104
f 106/106 108/108 107/107
f 109/109 111/111 110/110
f 109/109 112/112 111/111
f 113/113 115/115 114/114
f 113/113 116/116 115/115
f 117/117 119/119 118/118
f 117/117 120/120 119/119
f 121/121 123/123 122/122
f 121/121 124/124 123/123
f 125/125 127/127 126/126
f 128/128 130/130 129/129
f 128/128 131/131 130/130
f 132/132 134/134 133/133
f 135/135 137/137 136/136
f 135/135 138/138 137/137
f 139/139 141/141 140/140
f 139/139 142/142 141/141
f 143/143 145/145 144/144
f 143/143 146/146 145/145
f 147/147 149/149 148/148
f 147/147 150/150 149/149
f 151/151 153/153 152/152
f 151/151 154/154 153/153
f 155/155 157/157 156/156
f 155/155 158/158 157/157
f 159/159 161/161 160/160
f 159/159 162/162 161/161
f 163/163 165/165 164/164
f 163/163 166/166 165/165
f 167/167 169/169 168/168
f 167/167 170/170 169/169
f 171/171 173/173 172/172
f 171/171 174/174 173/173
f 175/175 177/177 176/176
f 175/175 178/178 177/177
f 179/179 181/181 180/180
f 179/179 182/182 181/181
f 183/183 185/185 184/184
f 183/183 186/186 185/185
f 187/187 189/189 188/188
f 187/187 190/190 189/189
f 191/191 193/193 192/192
f 191/191 194/194 193/193
f 195/195 197/197 196/196
f 195/195 198/198 197/197
f 199/199 201/201 200/200
f 199/199 202/202 201/201
f 203/203 205/205 204/204
f 206/206 208/208 207/207
f 206/206 209/209 208/208
f 210/210 212/212 211/211
f 210/210 213/213 212/212
f 214/214 216/216 215/215
f 217/217 219/219 218/218
f 217/217 220/220 219/219
f 221/221 223/223 222/222
f 221/221 224/224 223/223
f 225/225 227/227 226/226
f 225/225 228/228 227/227
f 229/229 231/231 230/230
f 229/229 232/232 231/231
f 233/233 235/235 234/234
f 233/233 236/236 235/235
f 237/237 239/239 238/238
f 237/237 240/240 239/239
f 241/241 243/243 242/242
f 241/241 244/244 243/243
f 245/245 247/247 246/246
f 248/248 250/250 249/249
f 251/251 253/253 252/252
f 251/251 254/254 253/253
f 255/255 257/257 256/256
f 255/255 258/258 257/257
f 259/259 261/261 260/260
f 259/259 262/262 261/261
f 263/263 265/265 264/264
f 263/263 266/266 265/265
f 267/267 269/269 268/268
f 267/267 270/270 269/269
f 271/271 273/273 272/272
f 271/271 274/274 273/273
f 275/275 277/277 276/276
f 275/275 278/278 277/277
f 279/279 281/281 280/280
f 279/279 282/282 281/281
f 283/283 285/285 284/284
f 286/286 288/288 287/287
f 289/289 291/291 290/290
f 292/292 294/294 293/293
f 295/295 297/297 296/296
f 298/298 300/300 299/299
f 298/298 301/301 300/300
f 302/302 304/304 303/303
f 302/302 305/305 304/304
f 306/306 308/308 307/307
f 306/306 309/309 308/308
f 310/310 312/312 311/311
f 310/310 313/313 312/312
f 314/314 316/316 315/315
f 314/314 317/317 316/316
f 318/318 320/320 319/319
f 321/321 323/323 322/322
f 324/324 326/326 325/325
f 327/327 329/329 328/328
f 330/330 332/332 331/331
f 330/330 333/333 332/332
f 330/330 334/334 333/333
f 335/335 337/337 336/336
f 338/338 340/340 339/339
f 341/341 343/343 342/342
f 344/344 346/346 345/345
f 347/347 349/349 348/348
f 350/350 352/352 351/351
f 353/353 355/355 354/354
f 353/353 356/356 355/355
f 357/357 359/359 358/358
f 357/357 360/360 359/359
f 361/361 363/363 362/362
f 361/361 364/364 363/363
f 365/365 367/367 366/366
f 365/365 368/368 367/367
