# Vertices

v -128 64 128
v -96 64 128
v -96 0 160
v -160 0 160
v -96 64 128
v -32 64 128
v -32 0 160
v -96 0 160
v -32 64 128
v -32 64 96
v -32 0 96
v -32 0 160
v -32 64 96
v 32 64 96
v 32 0 96
v -32 0 96
v 32 64 96
v 32 64 128
v 32 0 160
v 32 0 96
v 32 64 128
v 96 64 128
v 96 0 160
v 32 0 160
v 96 64 128
v 128 64 128
v 160 0 160
v 96 0 160
v 128 64 128
v 128 64 96
v 160 0 96
v 160 0 160
v 128 64 96
v 128 64 32
v 160 0 32
v 160 0 96
v 128 64 32
v 128 64 -32
v 160 0 -32
v 160 0 32
v 128 64 -32
v 128 64 -96
v 160 0 -96
v 160 0 -32
v 128 64 -96
v 128 64 -128
v 160 0 -160
v 160 0 -96
v 128 64 -128
v 96 64 -128
v 96 0 -160
v 160 0 -160
v 96 64 -128
v 32 64 -128
v 32 0 -160
v 96 0 -160
v 32 64 -128
v -32 64 -128
v -32 0 -160
v 32 0 -160
v -32 64 -128
v -96 64 -128
v -96 0 -160
v -32 0 -160
v -96 64 -128
v -128 64 -128
v -160 0 -160
v -96 0 -160
v -128 64 -128
v -128 64 -96
v -160 0 -96
v -160 0 -160
v -128 64 -96
v -128 64 -32
v -160 0 -32
v -160 0 -96
v -128 64 -32
v -128 64 32
v -160 0 32
v -160 0 -32
v -128 64 32
v -128 64 96
v -160 0 96
v -160 0 32
v -128 64 96
v -128 64 128
v -160 0 160
v -160 0 96
v -96 128 96
v -96 64 128
v -128 64 128
v -96 128 96
v -32 128 96
v -32 64 128
v -96 64 128
v -32 128 96
v -32 64 96
v -32 64 128
v -32 128 96
v 32 128 96
v 32 64 96
v -32 64 96
v 32 128 96
v 32 64 128
v 32 64 96
v 32 128 96
v 96 128 96
v 96 64 128
v 32 64 128
v 96 128 96
v 128 64 128
v 96 64 128
v 96 128 96
v 128 64 96
v 128 64 128
v 96 128 96
v 96 128 32
v 128 64 32
v 128 64 96
v 96 128 32
v 96 128 -32
v 128 64 -32
v 128 64 32
v 96 128 -32
v 96 128 -96
v 128 64 -96
v 128 64 -32
v 96 128 -96
v 128 64 -128
v 128 64 -96
v 96 128 -96
v 96 64 -128
v 128 64 -128
v 96 128 -96
v 32 128 -96
v 32 64 -128
v 96 64 -128
v 32 128 -96
v -32 128 -96
v -32 64 -128
v 32 64 -128
v -32 128 -96
v -96 128 -96
v -96 64 -128
v -32 64 -128
v -96 128 -96
v -128 64 -128
v -96 64 -128
v -96 128 -96
v -128 64 -96
v -128 64 -128
v -96 128 -96
v -96 128 -32
v -128 64 -32
v -128 64 -96
v -96 128 -32
v -96 128 32
v -128 64 32
v -128 64 -32
v -96 128 32
v -96 128 96
v -128 64 96
v -128 64 32
v -96 128 96
v -128 64 128
v -128 64 96
v -96 192 96
v -32 192 96
v -32 128 96
v -96 128 96
v -32 192 96
v 32 192 96
v 32 128 96
v -32 128 96
v 32 192 96
v 96 192 96
v 96 128 96
v 32 128 96
v 96 192 96
v 96 192 32
v 96 128 32
v 96 128 96
v 96 192 32
v 96 192 -32
v 96 128 -32
v 96 128 32
v 96 192 -32
v 96 192 -96
v 96 128 -96
v 96 128 -32
v 96 192 -96
v 32 192 -96
v 32 128 -96
v 96 128 -96
v 32 192 -96
v -32 192 -96
v -32 128 -96
v 32 128 -96
v -32 192 -96
v -96 192 -96
v -96 128 -96
v -32 128 -96
v -96 192 -96
v -96 192 -32
v -96 128 -32
v -96 128 -96
v -96 192 -32
v -96 192 32
v -96 128 32
v -96 128 -32
v -96 192 32
v -96 192 96
v -96 128 96
v -96 128 32
v -32 192 32
v 32 192 32
v 32 192 96
v -32 192 96
v 32 192 -32
v 96 192 -32
v 96 192 32
v 32 192 32
v -32 192 -96
v 32 192 -96
v 32 192 -32
v -32 192 -32
v -96 192 -32
v -32 192 -32
v -32 192 32
v -96 192 32
v -32 192 -32
v 32 192 -32
v 32 192 32
v -32 192 32
v -64 256 64
v -32 192 96
v -96 192 96
v -64 256 64
v -32 192 32
v -32 192 96
v -64 256 64
v -96 192 32
v -32 192 32
v -64 256 64
v -96 192 96
v -96 192 32
v 64 256 64
v 96 192 96
v 32 192 96
v 64 256 64
v 96 192 32
v 96 192 96
v 64 256 64
v 32 192 32
v 96 192 32
v 64 256 64
v 32 192 96
v 32 192 32
v 64 256 -64
v 96 192 -32
v 32 192 -32
v 64 256 -64
v 96 192 -96
v 96 192 -32
v 64 256 -64
v 32 192 -96
v 96 192 -96
v 64 256 -64
v 32 192 -32
v 32 192 -96
v -64 256 -64
v -32 192 -32
v -96 192 -32
v -64 256 -64
v -32 192 -96
v -32 192 -32
v -64 256 -64
v -96 192 -96
v -32 192 -96
v -64 256 -64
v -96 192 -32
v -96 192 -96

# Texture Coordinates

vt 0.1 1
vt 0.196875 1
vt 0.196875 0.685
vt 0 0.685
vt 0 1
vt 0.196875 1
vt 0.196875 0.685
vt 0 0.685
vt 0.1 1
vt 0.196875 1
vt 0.196875 0.685
vt 0 0.685
vt 0 0.6799999999999999
vt 0.196875 0.6799999999999999
vt 0.196875 0.365
vt 0 0.365
vt 0 1
vt 0.1 1
vt 0.196875 0.685
vt 0 0.685
vt 0 1
vt 0.196875 1
vt 0.196875 0.685
vt 0 0.685
vt 0 1
vt 0.1 1
vt 0.196875 0.685
vt 0 0.685
vt 0.1 1
vt 0.196875 1
vt 0.196875 0.685
vt 0 0.685
vt 0 1
vt 0.196875 1
vt 0.196875 0.685
vt 0 0.685
vt 0 1
vt 0.196875 1
vt 0.196875 0.685
vt 0 0.685
vt 0 1
vt 0.196875 1
vt 0.196875 0.685
vt 0 0.685
vt 0 1
vt 0.1 1
vt 0.196875 0.685
vt 0 0.685
vt 0.1 1
vt 0.196875 1
vt 0.196875 0.685
vt 0 0.685
vt 0 1
vt 0.196875 1
vt 0.196875 0.685
vt 0 0.685
vt 0 1
vt 0.196875 1
vt 0.196875 0.685
vt 0 0.685
vt 0 1
vt 0.196875 1
vt 0.196875 0.685
vt 0 0.685
vt 0 1
vt 0.1 1
vt 0.196875 0.685
vt 0 0.685
vt 0.1 1
vt 0.196875 1
vt 0.196875 0.685
vt 0 0.685
vt 0 1
vt 0.196875 1
vt 0.196875 0.685
vt 0 0.685
vt 0 1
vt 0.196875 1
vt 0.196875 0.685
vt 0 0.685
vt 0 1
vt 0.196875 1
vt 0.196875 0.685
vt 0 0.685
vt 0 1
vt 0.1 1
vt 0.196875 0.685
vt 0 0.685
vt 0.196875 1
vt 0.196875 0.685
vt 0.1 0.685
vt 0 1
vt 0.196875 1
vt 0.196875 0.685
vt 0 0.685
vt 0.196875 1
vt 0.196875 0.685
vt 0.1 0.685
vt 0.2 0.84
vt 0.396875 0.84
vt 0.396875 0.525
vt 0.2 0.525
vt 0 1
vt 0.1 0.685
vt 0 0.685
vt 0 1
vt 0.196875 1
vt 0.196875 0.685
vt 0 0.685
vt 0 1
vt 0.1 0.685
vt 0 0.685
vt 0.196875 1
vt 0.196875 0.685
vt 0.1 0.685
vt 0 1
vt 0.196875 1
vt 0.196875 0.685
vt 0 0.685
vt 0 1
vt 0.196875 1
vt 0.196875 0.685
vt 0 0.685
vt 0 1
vt 0.196875 1
vt 0.196875 0.685
vt 0 0.685
vt 0 1
vt 0.1 0.685
vt 0 0.685
vt 0.196875 1
vt 0.196875 0.685
vt 0.1 0.685
vt 0 1
vt 0.196875 1
vt 0.196875 0.685
vt 0 0.685
vt 0 1
vt 0.196875 1
vt 0.196875 0.685
vt 0 0.685
vt 0 1
vt 0.196875 1
vt 0.196875 0.685
vt 0 0.685
vt 0 1
vt 0.1 0.685
vt 0 0.685
vt 0.196875 1
vt 0.196875 0.685
vt 0.1 0.685
vt 0 1
vt 0.196875 1
vt 0.196875 0.685
vt 0 0.685
vt 0 1
vt 0.196875 1
vt 0.196875 0.685
vt 0 0.685
vt 0 1
vt 0.196875 1
vt 0.196875 0.685
vt 0 0.685
vt 0 1
vt 0.1 0.685
vt 0 0.685
vt 0.2 0.84
vt 0.396875 0.84
vt 0.396875 0.525
vt 0.2 0.525
vt 0.2 1
vt 0.396875 1
vt 0.396875 0.685
vt 0.2 0.685
vt 0.2 0.84
vt 0.396875 0.84
vt 0.396875 0.525
vt 0.2 0.525
vt 0.2 0.84
vt 0.396875 0.84
vt 0.396875 0.525
vt 0.2 0.525
vt 0.2 1
vt 0.396875 1
vt 0.396875 0.685
vt 0.2 0.685
vt 0.2 0.84
vt 0.396875 0.84
vt 0.396875 0.525
vt 0.2 0.525
vt 0.2 0.84
vt 0.396875 0.84
vt 0.396875 0.525
vt 0.2 0.525
vt 0.2 1
vt 0.396875 1
vt 0.396875 0.685
vt 0.2 0.685
vt 0.2 0.84
vt 0.396875 0.84
vt 0.396875 0.525
vt 0.2 0.525
vt 0.2 0.84
vt 0.396875 0.84
vt 0.396875 0.525
vt 0.2 0.525
vt 0.2 1
vt 0.396875 1
vt 0.396875 0.685
vt 0.2 0.685
vt 0.2 0.84
vt 0.396875 0.84
vt 0.396875 0.525
vt 0.2 0.525
vt 0 1
vt 0.196875 1
vt 0.196875 0.685
vt 0 0.685
vt 0 1
vt 0.196875 1
vt 0.196875 0.685
vt 0 0.685
vt 0 1
vt 0.196875 1
vt 0.196875 0.685
vt 0 0.685
vt 0 1
vt 0.196875 1
vt 0.196875 0.685
vt 0 0.685
vt 0 1
vt 0.196875 1
vt 0.196875 0.685
vt 0 0.685
vt 0.1 1
vt 0.196875 0.685
vt 0 0.685
vt 0.1 1
vt 0.196875 0.685
vt 0 0.685
vt 0.1 1
vt 0.196875 0.685
vt 0 0.685
vt 0.1 1
vt 0.196875 0.685
vt 0 0.685
vt 0.1 1
vt 0.196875 0.685
vt 0 0.685
vt 0.1 1
vt 0.196875 0.685
vt 0 0.685
vt 0.1 1
vt 0.196875 0.685
vt 0 0.685
vt 0.1 1
vt 0.196875 0.685
vt 0 0.685
vt 0.1 1
vt 0.196875 0.685
vt 0 0.685
vt 0.1 1
vt 0.196875 0.685
vt 0 0.685
vt 0.1 1
vt 0.196875 0.685
vt 0 0.685
vt 0.1 1
vt 0.196875 0.685
vt 0 0.685
vt 0.1 1
vt 0.196875 0.685
vt 0 0.685
vt 0.1 1
vt 0.196875 0.685
vt 0 0.685
vt 0.1 1
vt 0.196875 0.685
vt 0 0.685
vt 0.1 1
vt 0.196875 0.685
vt 0 0.685

# Groups

g Group1

f 1/1 3/3 2/2
f 1/1 4/4 3/3
f 5/5 7/7 6/6
f 5/5 8/8 7/7
f 9/9 11/11 10/10
f 9/9 12/12 11/11
f 13/13 15/15 14/14
f 13/13 16/16 15/15
f 17/17 19/19 18/18
f 17/17 20/20 19/19
f 21/21 23/23 22/22
f 21/21 24/24 23/23
f 25/25 27/27 26/26
f 25/25 28/28 27/27
f 29/29 31/31 30/30
f 29/29 32/32 31/31
f 33/33 35/35 34/34
f 33/33 36/36 35/35
f 37/37 39/39 38/38
f 37/37 40/40 39/39
f 41/41 43/43 42/42
f 41/41 44/44 43/43
f 45/45 47/47 46/46
f 45/45 48/48 47/47
f 49/49 51/51 50/50
f 49/49 52/52 51/51
f 53/53 55/55 54/54
f 53/53 56/56 55/55
f 57/57 59/59 58/58
f 57/57 60/60 59/59
f 61/61 63/63 62/62
f 61/61 64/64 63/63
f 65/65 67/67 66/66
f 65/65 68/68 67/67
f 69/69 71/71 70/70
f 69/69 72/72 71/71
f 73/73 75/75 74/74
f 73/73 76/76 75/75
f 77/77 79/79 78/78
f 77/77 80/80 79/79
f 81/81 83/83 82/82
f 81/81 84/84 83/83
f 85/85 87/87 86/86
f 85/85 88/88 87/87
f 89/89 91/91 90/90
f 92/92 94/94 93/93
f 92/92 95/95 94/94
f 96/96 98/98 97/97
f 99/99 101/101 100/100
f 99/99 102/102 101/101
f 103/103 105/105 104/104
f 106/106 108/108 107/107
f 106/106 109/109 108/108
f 110/110 112/112 111/111
f 113/113 115/115 114/114
f 116/116 118/118 117/117
f 116/116 119/119 118/118
f 120/120 122/122 121/121
f 120/120 123/123 122/122
f 124/124 126/126 125/125
f 124/124 127/127 126/126
f 128/128 130/130 129/129
f 131/131 133/133 132/132
f 134/134 136/136 135/135
f 134/134 137/137 136/136
f 138/138 140/140 139/139
f 138/138 141/141 140/140
f 142/142 144/144 143/143
f 142/142 145/145 144/144
f 146/146 148/148 147/147
f 149/149 151/151 150/150
f 152/152 154/154 153/153
f 152/152 155/155 154/154
f 156/156 158/158 157/157
f 156/156 159/159 158/158
f 160/160 162/162 161/161
f 160/160 163/163 162/162
f 164/164 166/166 165/165
f 167/167 169/169 168/168
f 167/167 170/170 169/169
f 171/171 173/173 172/172
f 171/171 174/174 173/173
f 175/175 177/177 176/176
f 175/175 178/178 177/177
f 179/179 181/181 180/180
f 179/179 182/182 181/181
f 183/183 185/185 184/184
f 183/183 186/186 185/185
f 187/187 189/189 188/188
f 187/187 190/190 189/189
f 191/191 193/193 192/192
f 191/191 194/194 193/193
f 195/195 197/197 196/196
f 195/195 198/198 197/197
f 199/199 201/201 200/200
f 199/199 202/202 201/201
f 203/203 205/205 204/204
f 203/203 206/206 205/205
f 207/207 209/209 208/208
f 207/207 210/210 209/209
f 211/211 213/213 212/212
f 211/211 214/214 213/213
f 215/215 217/217 216/216
f 215/215 218/218 217/217
f 219/219 221/221 220/220
f 219/219 222/222 221/221
f 223/223 225/225 224/224
f 223/223 226/226 225/225
f 227/227 229/229 228/228
f 227/227 230/230 229/229
f 231/231 233/233 232/232
f 231/231 234/234 233/233

g Group2

f 235/235 237/237 236/236
f 238/238 240/240 239/239
f 241/241 243/243 242/242
f 244/244 246/246 245/245
f 247/247 249/249 248/248
f 250/250 252/252 251/251
f 253/253 255/255 254/254
f 256/256 258/258 257/257
f 259/259 261/261 260/260
f 262/262 264/264 263/263
f 265/265 267/267 266/266
f 268/268 270/270 269/269
f 271/271 273/273 272/272
f 274/274 276/276 275/275
f 277/277 279/279 278/278
f 280/280 282/282 281/281
