# Vertices

v -96 64 -32
v -32 64 -32
v -32 0 -32
v -96 0 -32
v -32 64 -32
v -32 64 32
v -32 0 32
v -32 0 -32
v -32 64 32
v -32 64 96
v -32 0 96
v -32 0 32
v -32 64 96
v 32 64 96
v 32 0 96
v -32 0 96
v 32 64 96
v 32 64 32
v 32 0 32
v 32 0 96
v 32 64 32
v 32 64 -32
v 32 0 -32
v 32 0 32
v 32 64 -32
v 96 64 -32
v 96 0 -32
v 32 0 -32
v 96 64 -32
v 96 64 -96
v 96 0 -96
v 96 0 -32
v 96 64 -96
v 32 64 -96
v 32 0 -96
v 96 0 -96
v 32 64 -96
v -32 64 -96
v -32 0 -96
v 32 0 -96
v -32 64 -96
v -96 64 -96
v -96 0 -96
v -32 0 -96
v -96 64 -96
v -96 64 -32
v -96 0 -32
v -96 0 -96
v -64 96 -64
v -32 96 -64
v -32 64 -32
v -96 64 -32
v -32 96 -64
v 0 96 -64
v -32 64 -32
v 0 96 -64
v 0 96 -32
v -32 64 -32
v 0 96 -32
v 0 96 32
v -32 64 32
v -32 64 -32
v 0 96 32
v 0 96 96
v -32 64 96
v -32 64 32
v 0 96 96
v 32 64 96
v -32 64 96
v 0 96 96
v 0 96 32
v 32 64 32
v 32 64 96
v 0 96 32
v 0 96 -32
v 32 64 -32
v 32 64 32
v 0 96 -32
v 0 96 -64
v 32 64 -32
v 0 96 -64
v 32 96 -64
v 32 64 -32
v 32 96 -64
v 64 96 -64
v 96 64 -32
v 32 64 -32
v 64 96 -64
v 96 64 -96
v 96 64 -32
v 64 96 -64
v 32 96 -64
v 32 64 -96
v 96 64 -96
v 32 96 -64
v -32 96 -64
v -32 64 -96
v 32 64 -96
v -32 96 -64
v -64 96 -64
v -96 64 -96
v -32 64 -96
v -64 96 -64
v -96 64 -32
v -96 64 -96

# Texture Coordinates

vt 0.2 1
vt 0.396875 1
vt 0.396875 0.685
vt 0.2 0.685
vt 0.2 0.6799999999999999
vt 0.396875 0.6799999999999999
vt 0.396875 0.365
vt 0.2 0.365
vt 0.2 1
vt 0.396875 1
vt 0.396875 0.685
vt 0.2 0.685
vt 0 1
vt 0.196875 1
vt 0.196875 0.685
vt 0 0.685
vt 0 1
vt 0.196875 1
vt 0.196875 0.685
vt 0 0.685
vt 0 1
vt 0.196875 1
vt 0.196875 0.685
vt 0 0.685
vt 0.2 1
vt 0.396875 1
vt 0.396875 0.685
vt 0.2 0.685
vt 0.2 0.6799999999999999
vt 0.396875 0.6799999999999999
vt 0.396875 0.365
vt 0.2 0.365
vt 0 1
vt 0.196875 1
vt 0.196875 0.685
vt 0 0.685
vt 0 1
vt 0.196875 1
vt 0.196875 0.685
vt 0 0.685
vt 0 1
vt 0.196875 1
vt 0.196875 0.685
vt 0 0.685
vt 0 1
vt 0.196875 1
vt 0.196875 0.685
vt 0 0.685
vt 0.1 1
vt 0.2 1
vt 0.196875 0.685
vt 0 0.685
vt 0 1
vt 0.196875 1
vt 0 0.685
vt 0 1
vt 0.196875 1
vt 0.196875 0.685
vt 0 1
vt 0.196875 1
vt 0.196875 0.685
vt 0 0.685
vt 0 1
vt 0.196875 1
vt 0.196875 0.685
vt 0 0.685
vt 0.1 1
vt 0.196875 0.685
vt 0 0.685
vt 0 1
vt 0.196875 1
vt 0.196875 0.685
vt 0 0.685
vt 0 1
vt 0.196875 1
vt 0.196875 0.685
vt 0 0.685
vt 0 1
vt 0.196875 1
vt 0 0.685
vt 0 1
vt 0.196875 1
vt 0.196875 0.685
vt 0 1
vt 0.096875 1
vt 0.196875 0.685
vt 0 0.685
vt 0.1 1
vt 0.196875 0.685
vt 0 0.685
vt 0.1 1
vt 0.2 1
vt 0.196875 0.685
vt 0 0.685
vt 0 1
vt 0.196875 1
vt 0.196875 0.685
vt 0 0.685
vt 0 1
vt 0.096875 1
vt 0.196875 0.685
vt 0 0.685
vt 0.1 1
vt 0.196875 0.685
vt 0 0.685

# Groups

g Group1

f 1/1 3/3 2/2
f 1/1 4/4 3/3
f 5/5 7/7 6/6
f 5/5 8/8 7/7
f 9/9 11/11 10/10
f 9/9 12/12 11/11
f 13/13 15/15 14/14
f 13/13 16/16 15/15
f 17/17 19/19 18/18
f 17/17 20/20 19/19
f 21/21 23/23 22/22
f 21/21 24/24 23/23
f 25/25 27/27 26/26
f 25/25 28/28 27/27
f 29/29 31/31 30/30
f 29/29 32/32 31/31
f 33/33 35/35 34/34
f 33/33 36/36 35/35
f 37/37 39/39 38/38
f 37/37 40/40 39/39
f 41/41 43/43 42/42
f 41/41 44/44 43/43
f 45/45 47/47 46/46
f 45/45 48/48 47/47

g Group2

f 49/49 51/51 50/50
f 49/49 52/52 51/51
f 53/53 55/55 54/54
f 56/56 58/58 57/57
f 59/59 61/61 60/60
f 59/59 62/62 61/61
f 63/63 65/65 64/64
f 63/63 66/66 65/65
f 67/67 69/69 68/68
f 70/70 72/72 71/71
f 70/70 73/73 72/72
f 74/74 76/76 75/75
f 74/74 77/77 76/76
f 78/78 80/80 79/79
f 81/81 83/83 82/82
f 84/84 86/86 85/85
f 84/84 87/87 86/86
f 88/88 90/90 89/89
f 91/91 93/93 92/92
f 91/91 94/94 93/93
f 95/95 97/97 96/96
f 95/95 98/98 97/97
f 99/99 101/101 100/100
f 99/99 102/102 101/101
f 103/103 105/105 104/104
