# Vertices

v -160 64 160
v -96 64 160
v -96 0 160
v -160 0 160
v -96 64 160
v -32 64 160
v -32 0 160
v -96 0 160
v -32 64 160
v -32 64 96
v -32 0 96
v -32 0 160
v -32 64 96
v 32 64 96
v 32 0 96
v -32 0 96
v 32 64 96
v 32 64 160
v 32 0 160
v 32 0 96
v 32 64 160
v 96 64 160
v 96 0 160
v 32 0 160
v 96 64 160
v 160 64 160
v 160 0 160
v 96 0 160
v 160 64 160
v 160 64 96
v 160 0 96
v 160 0 160
v 160 64 96
v 160 64 32
v 160 0 32
v 160 0 96
v 160 64 32
v 160 64 -32
v 160 0 -32
v 160 0 32
v 160 64 -32
v 160 64 -96
v 160 0 -96
v 160 0 -32
v 160 64 -96
v 160 64 -160
v 160 0 -160
v 160 0 -96
v 160 64 -160
v 96 64 -160
v 96 0 -160
v 160 0 -160
v 96 64 -160
v 32 64 -160
v 32 0 -160
v 96 0 -160
v 32 64 -160
v -32 64 -160
v -32 0 -160
v 32 0 -160
v -32 64 -160
v -96 64 -160
v -96 0 -160
v -32 0 -160
v -96 64 -160
v -160 64 -160
v -160 0 -160
v -96 0 -160
v -160 64 -160
v -160 64 -96
v -160 0 -96
v -160 0 -160
v -160 64 -96
v -160 64 -32
v -160 0 -32
v -160 0 -96
v -160 64 -32
v -160 64 32
v -160 0 32
v -160 0 -32
v -160 64 32
v -160 64 96
v -160 0 96
v -160 0 32
v -160 64 96
v -160 64 160
v -160 0 160
v -160 0 96
v -160 128 160
v -96 128 160
v -96 64 160
v -160 64 160
v -96 128 160
v -32 128 160
v -32 64 160
v -96 64 160
v -32 128 160
v 32 128 160
v 32 64 160
v -32 64 160
v 32 128 160
v 96 128 160
v 96 64 160
v 32 64 160
v 96 128 160
v 160 128 160
v 160 64 160
v 96 64 160
v 160 128 160
v 160 128 96
v 160 64 96
v 160 64 160
v 160 128 96
v 160 128 32
v 160 64 32
v 160 64 96
v 160 128 32
v 160 128 -32
v 160 64 -32
v 160 64 32
v 160 128 -32
v 160 128 -96
v 160 64 -96
v 160 64 -32
v 160 128 -96
v 160 128 -160
v 160 64 -160
v 160 64 -96
v 160 128 -160
v 96 128 -160
v 96 64 -160
v 160 64 -160
v 96 128 -160
v 32 128 -160
v 32 64 -160
v 96 64 -160
v 32 128 -160
v -32 128 -160
v -32 64 -160
v 32 64 -160
v -32 128 -160
v -96 128 -160
v -96 64 -160
v -32 64 -160
v -96 128 -160
v -160 128 -160
v -160 64 -160
v -96 64 -160
v -160 128 -160
v -160 128 -96
v -160 64 -96
v -160 64 -160
v -160 128 -96
v -160 128 -32
v -160 64 -32
v -160 64 -96
v -160 128 -32
v -160 128 32
v -160 64 32
v -160 64 -32
v -160 128 32
v -160 128 96
v -160 64 96
v -160 64 32
v -160 128 96
v -160 128 160
v -160 64 160
v -160 64 96
v -32 64 160
v 32 64 160
v 32 64 96
v -32 64 96
v -96 128 -96
v -32 128 -96
v -32 128 -32
v -96 128 -32
v -32 128 -96
v 32 128 -96
v 32 128 -32
v -32 128 -32
v 32 128 -96
v 96 128 -96
v 96 128 -32
v 32 128 -32
v -96 128 -32
v -32 128 -32
v -32 128 32
v -96 128 32
v -32 128 -32
v 32 128 -32
v 32 128 32
v -32 128 32
v 32 128 -32
v 96 128 -32
v 96 128 32
v 32 128 32
v -96 128 32
v -32 128 32
v -32 128 96
v -96 128 96
v -32 128 32
v 32 128 32
v 32 128 96
v -32 128 96
v 32 128 32
v 96 128 32
v 96 128 96
v 32 128 96
v -96 128 -160
v -32 128 -160
v -32 128 -96
v -96 128 -96
v -32 128 -160
v 32 128 -160
v 32 128 -96
v -32 128 -96
v 32 128 -160
v 96 128 -160
v 96 128 -96
v 32 128 -96
v 96 128 -96
v 160 128 -96
v 160 128 -32
v 96 128 -32
v 96 128 -32
v 160 128 -32
v 160 128 32
v 96 128 32
v 96 128 32
v 160 128 32
v 160 128 96
v 96 128 96
v 32 128 96
v 96 128 96
v 96 128 160
v 32 128 160
v -32 128 96
v 32 128 96
v 32 128 160
v -32 128 160
v -96 128 96
v -32 128 96
v -32 128 160
v -96 128 160
v -160 128 32
v -96 128 32
v -96 128 96
v -160 128 96
v -160 128 -32
v -96 128 -32
v -96 128 32
v -160 128 32
v -160 128 -96
v -96 128 -96
v -96 128 -32
v -160 128 -32
v -160 192 160
v -96 192 160
v -96 128 160
v -160 128 160
v -96 192 160
v -96 192 96
v -96 128 96
v -96 128 160
v -96 192 96
v -160 192 96
v -160 128 96
v -96 128 96
v -160 192 96
v -160 192 160
v -160 128 160
v -160 128 96
v -128 256 128
v -96 192 160
v -160 192 160
v -128 256 128
v -96 192 96
v -96 192 160
v -128 256 128
v -160 192 96
v -96 192 96
v -128 256 128
v -160 192 160
v -160 192 96
v 96 192 160
v 160 192 160
v 160 128 160
v 96 128 160
v 160 192 160
v 160 192 96
v 160 128 96
v 160 128 160
v 160 192 96
v 96 192 96
v 96 128 96
v 160 128 96
v 96 192 96
v 96 192 160
v 96 128 160
v 96 128 96
v 128 256 128
v 160 192 160
v 96 192 160
v 128 256 128
v 160 192 96
v 160 192 160
v 128 256 128
v 96 192 96
v 160 192 96
v 128 256 128
v 96 192 160
v 96 192 96
v 96 192 -96
v 160 192 -96
v 160 128 -96
v 96 128 -96
v 160 192 -96
v 160 192 -160
v 160 128 -160
v 160 128 -96
v 160 192 -160
v 96 192 -160
v 96 128 -160
v 160 128 -160
v 96 192 -160
v 96 192 -96
v 96 128 -96
v 96 128 -160
v 128 256 -128
v 160 192 -96
v 96 192 -96
v 128 256 -128
v 160 192 -160
v 160 192 -96
v 128 256 -128
v 96 192 -160
v 160 192 -160
v 128 256 -128
v 96 192 -96
v 96 192 -160
v -160 192 -96
v -96 192 -96
v -96 128 -96
v -160 128 -96
v -96 192 -96
v -96 192 -160
v -96 128 -160
v -96 128 -96
v -96 192 -160
v -160 192 -160
v -160 128 -160
v -96 128 -160
v -160 192 -160
v -160 192 -96
v -160 128 -96
v -160 128 -160
v -128 256 -128
v -96 192 -96
v -160 192 -96
v -128 256 -128
v -96 192 -160
v -96 192 -96
v -128 256 -128
v -160 192 -160
v -96 192 -160
v -128 256 -128
v -160 192 -96
v -160 192 -160

# Texture Coordinates

vt 0.2 0.84
vt 0.396875 0.84
vt 0.396875 0.525
vt 0.2 0.525
vt 0.2 0.84
vt 0.396875 0.84
vt 0.396875 0.525
vt 0.2 0.525
vt 0 1
vt 0.196875 1
vt 0.196875 0.685
vt 0 0.685
vt 0 0.6799999999999999
vt 0.196875 0.6799999999999999
vt 0.196875 0.365
vt 0 0.365
vt 0 1
vt 0.196875 1
vt 0.196875 0.685
vt 0 0.685
vt 0.2 0.84
vt 0.396875 0.84
vt 0.396875 0.525
vt 0.2 0.525
vt 0.2 0.84
vt 0.396875 0.84
vt 0.396875 0.525
vt 0.2 0.525
vt 0.2 0.84
vt 0.396875 0.84
vt 0.396875 0.525
vt 0.2 0.525
vt 0.2 0.84
vt 0.396875 0.84
vt 0.396875 0.525
vt 0.2 0.525
vt 0.2 0.84
vt 0.396875 0.84
vt 0.396875 0.525
vt 0.2 0.525
vt 0.2 0.84
vt 0.396875 0.84
vt 0.396875 0.525
vt 0.2 0.525
vt 0.2 0.84
vt 0.396875 0.84
vt 0.396875 0.525
vt 0.2 0.525
vt 0.2 0.84
vt 0.396875 0.84
vt 0.396875 0.525
vt 0.2 0.525
vt 0.2 0.84
vt 0.396875 0.84
vt 0.396875 0.525
vt 0.2 0.525
vt 0.2 0.84
vt 0.396875 0.84
vt 0.396875 0.525
vt 0.2 0.525
vt 0.2 0.84
vt 0.396875 0.84
vt 0.396875 0.525
vt 0.2 0.525
vt 0.2 0.84
vt 0.396875 0.84
vt 0.396875 0.525
vt 0.2 0.525
vt 0.2 0.84
vt 0.396875 0.84
vt 0.396875 0.525
vt 0.2 0.525
vt 0.2 0.84
vt 0.396875 0.84
vt 0.396875 0.525
vt 0.2 0.525
vt 0.2 0.84
vt 0.396875 0.84
vt 0.396875 0.525
vt 0.2 0.525
vt 0.2 0.84
vt 0.396875 0.84
vt 0.396875 0.525
vt 0.2 0.525
vt 0.2 0.84
vt 0.396875 0.84
vt 0.396875 0.525
vt 0.2 0.525
vt 0.2 1
vt 0.396875 1
vt 0.396875 0.685
vt 0.2 0.685
vt 0.2 0.84
vt 0.396875 0.84
vt 0.396875 0.525
vt 0.2 0.525
vt 0.2 1
vt 0.396875 1
vt 0.396875 0.685
vt 0.2 0.685
vt 0.2 0.84
vt 0.396875 0.84
vt 0.396875 0.525
vt 0.2 0.525
vt 0.2 1
vt 0.396875 1
vt 0.396875 0.685
vt 0.2 0.685
vt 0.2 1
vt 0.396875 1
vt 0.396875 0.685
vt 0.2 0.685
vt 0.2 0.84
vt 0.396875 0.84
vt 0.396875 0.525
vt 0.2 0.525
vt 0.2 0.84
vt 0.396875 0.84
vt 0.396875 0.525
vt 0.2 0.525
vt 0.2 0.84
vt 0.396875 0.84
vt 0.396875 0.525
vt 0.2 0.525
vt 0.2 1
vt 0.396875 1
vt 0.396875 0.685
vt 0.2 0.685
vt 0.2 1
vt 0.396875 1
vt 0.396875 0.685
vt 0.2 0.685
vt 0.2 0.84
vt 0.396875 0.84
vt 0.396875 0.525
vt 0.2 0.525
vt 0.2 0.84
vt 0.396875 0.84
vt 0.396875 0.525
vt 0.2 0.525
vt 0.2 0.84
vt 0.396875 0.84
vt 0.396875 0.525
vt 0.2 0.525
vt 0.2 1
vt 0.396875 1
vt 0.396875 0.685
vt 0.2 0.685
vt 0.2 1
vt 0.396875 1
vt 0.396875 0.685
vt 0.2 0.685
vt 0.2 0.84
vt 0.396875 0.84
vt 0.396875 0.525
vt 0.2 0.525
vt 0.2 0.84
vt 0.396875 0.84
vt 0.396875 0.525
vt 0.2 0.525
vt 0.2 0.84
vt 0.396875 0.84
vt 0.396875 0.525
vt 0.2 0.525
vt 0.2 1
vt 0.396875 1
vt 0.396875 0.685
vt 0.2 0.685
vt 0 1
vt 0.196875 1
vt 0.196875 0.685
vt 0 0.685
vt 0 1
vt 0.196875 1
vt 0.196875 0.685
vt 0 0.685
vt 0 1
vt 0.196875 1
vt 0.196875 0.685
vt 0 0.685
vt 0 1
vt 0.196875 1
vt 0.196875 0.685
vt 0 0.685
vt 0 1
vt 0.196875 1
vt 0.196875 0.685
vt 0 0.685
vt 0 1
vt 0.196875 1
vt 0.196875 0.685
vt 0 0.685
vt 0 1
vt 0.196875 1
vt 0.196875 0.685
vt 0 0.685
vt 0 1
vt 0.196875 1
vt 0.196875 0.685
vt 0 0.685
vt 0 1
vt 0.196875 1
vt 0.196875 0.685
vt 0 0.685
vt 0 1
vt 0.196875 1
vt 0.196875 0.685
vt 0 0.685
vt 0 1
vt 0.196875 1
vt 0.196875 0.685
vt 0 0.685
vt 0 1
vt 0.196875 1
vt 0.196875 0.685
vt 0 0.685
vt 0 1
vt 0.196875 1
vt 0.196875 0.685
vt 0 0.685
vt 0 1
vt 0.196875 1
vt 0.196875 0.685
vt 0 0.685
vt 0 1
vt 0.196875 1
vt 0.196875 0.685
vt 0 0.685
vt 0 1
vt 0.196875 1
vt 0.196875 0.685
vt 0 0.685
vt 0 1
vt 0.196875 1
vt 0.196875 0.685
vt 0 0.685
vt 0 1
vt 0.196875 1
vt 0.196875 0.685
vt 0 0.685
vt 0 1
vt 0.196875 1
vt 0.196875 0.685
vt 0 0.685
vt 0 1
vt 0.196875 1
vt 0.196875 0.685
vt 0 0.685
vt 0 1
vt 0.196875 1
vt 0.196875 0.685
vt 0 0.685
vt 0 1
vt 0.196875 1
vt 0.196875 0.685
vt 0 0.685
vt 0.2 1
vt 0.396875 1
vt 0.396875 0.685
vt 0.2 0.685
vt 0.2 1
vt 0.396875 1
vt 0.396875 0.685
vt 0.2 0.685
vt 0.2 1
vt 0.396875 1
vt 0.396875 0.685
vt 0.2 0.685
vt 0.2 1
vt 0.396875 1
vt 0.396875 0.685
vt 0.2 0.685
vt 0.1 1
vt 0.196875 0.685
vt 0 0.685
vt 0.1 1
vt 0.196875 0.685
vt 0 0.685
vt 0.1 1
vt 0.196875 0.685
vt 0 0.685
vt 0.1 1
vt 0.196875 0.685
vt 0 0.685
vt 0.2 1
vt 0.396875 1
vt 0.396875 0.685
vt 0.2 0.685
vt 0.2 1
vt 0.396875 1
vt 0.396875 0.685
vt 0.2 0.685
vt 0.2 1
vt 0.396875 1
vt 0.396875 0.685
vt 0.2 0.685
vt 0.2 1
vt 0.396875 1
vt 0.396875 0.685
vt 0.2 0.685
vt 0.1 1
vt 0.196875 0.685
vt 0 0.685
vt 0.1 1
vt 0.196875 0.685
vt 0 0.685
vt 0.1 1
vt 0.196875 0.685
vt 0 0.685
vt 0.1 1
vt 0.196875 0.685
vt 0 0.685
vt 0.2 1
vt 0.396875 1
vt 0.396875 0.685
vt 0.2 0.685
vt 0.2 1
vt 0.396875 1
vt 0.396875 0.685
vt 0.2 0.685
vt 0.2 1
vt 0.396875 1
vt 0.396875 0.685
vt 0.2 0.685
vt 0.2 1
vt 0.396875 1
vt 0.396875 0.685
vt 0.2 0.685
vt 0.1 1
vt 0.196875 0.685
vt 0 0.685
vt 0.1 1
vt 0.196875 0.685
vt 0 0.685
vt 0.1 1
vt 0.196875 0.685
vt 0 0.685
vt 0.1 1
vt 0.196875 0.685
vt 0 0.685
vt 0.2 1
vt 0.396875 1
vt 0.396875 0.685
vt 0.2 0.685
vt 0.2 1
vt 0.396875 1
vt 0.396875 0.685
vt 0.2 0.685
vt 0.2 1
vt 0.396875 1
vt 0.396875 0.685
vt 0.2 0.685
vt 0.2 1
vt 0.396875 1
vt 0.396875 0.685
vt 0.2 0.685
vt 0.1 1
vt 0.196875 0.685
vt 0 0.685
vt 0.1 1
vt 0.196875 0.685
vt 0 0.685
vt 0.1 1
vt 0.196875 0.685
vt 0 0.685
vt 0.1 1
vt 0.196875 0.685
vt 0 0.685

# Groups

g Group1

f 1/1 3/3 2/2
f 1/1 4/4 3/3
f 5/5 7/7 6/6
f 5/5 8/8 7/7
f 9/9 11/11 10/10
f 9/9 12/12 11/11
f 13/13 15/15 14/14
f 13/13 16/16 15/15
f 17/17 19/19 18/18
f 17/17 20/20 19/19
f 21/21 23/23 22/22
f 21/21 24/24 23/23
f 25/25 27/27 26/26
f 25/25 28/28 27/27
f 29/29 31/31 30/30
f 29/29 32/32 31/31
f 33/33 35/35 34/34
f 33/33 36/36 35/35
f 37/37 39/39 38/38
f 37/37 40/40 39/39
f 41/41 43/43 42/42
f 41/41 44/44 43/43
f 45/45 47/47 46/46
f 45/45 48/48 47/47
f 49/49 51/51 50/50
f 49/49 52/52 51/51
f 53/53 55/55 54/54
f 53/53 56/56 55/55
f 57/57 59/59 58/58
f 57/57 60/60 59/59
f 61/61 63/63 62/62
f 61/61 64/64 63/63
f 65/65 67/67 66/66
f 65/65 68/68 67/67
f 69/69 71/71 70/70
f 69/69 72/72 71/71
f 73/73 75/75 74/74
f 73/73 76/76 75/75
f 77/77 79/79 78/78
f 77/77 80/80 79/79
f 81/81 83/83 82/82
f 81/81 84/84 83/83
f 85/85 87/87 86/86
f 85/85 88/88 87/87
f 89/89 91/91 90/90
f 89/89 92/92 91/91
f 93/93 95/95 94/94
f 93/93 96/96 95/95
f 97/97 99/99 98/98
f 97/97 100/100 99/99
f 101/101 103/103 102/102
f 101/101 104/104 103/103
f 105/105 107/107 106/106
f 105/105 108/108 107/107
f 109/109 111/111 110/110
f 109/109 112/112 111/111
f 113/113 115/115 114/114
f 113/113 116/116 115/115
f 117/117 119/119 118/118
f 117/117 120/120 119/119
f 121/121 123/123 122/122
f 121/121 124/124 123/123
f 125/125 127/127 126/126
f 125/125 128/128 127/127
f 129/129 131/131 130/130
f 129/129 132/132 131/131
f 133/133 135/135 134/134
f 133/133 136/136 135/135
f 137/137 139/139 138/138
f 137/137 140/140 139/139
f 141/141 143/143 142/142
f 141/141 144/144 143/143
f 145/145 147/147 146/146
f 145/145 148/148 147/147
f 149/149 151/151 150/150
f 149/149 152/152 151/151
f 153/153 155/155 154/154
f 153/153 156/156 155/155
f 157/157 159/159 158/158
f 157/157 160/160 159/159
f 161/161 163/163 162/162
f 161/161 164/164 163/163
f 165/165 167/167 166/166
f 165/165 168/168 167/167
f 169/169 171/171 170/170
f 169/169 172/172 171/171
f 173/173 175/175 174/174
f 173/173 176/176 175/175
f 177/177 179/179 178/178
f 177/177 180/180 179/179
f 181/181 183/183 182/182
f 181/181 184/184 183/183
f 185/185 187/187 186/186
f 185/185 188/188 187/187
f 189/189 191/191 190/190
f 189/189 192/192 191/191
f 193/193 195/195 194/194
f 193/193 196/196 195/195
f 197/197 199/199 198/198
f 197/197 200/200 199/199
f 201/201 203/203 202/202
f 201/201 204/204 203/203
f 205/205 207/207 206/206
f 205/205 208/208 207/207
f 209/209 211/211 210/210
f 209/209 212/212 211/211
f 213/213 215/215 214/214
f 213/213 216/216 215/215
f 217/217 219/219 218/218
f 217/217 220/220 219/219
f 221/221 223/223 222/222
f 221/221 224/224 223/223
f 225/225 227/227 226/226
f 225/225 228/228 227/227
f 229/229 231/231 230/230
f 229/229 232/232 231/231
f 233/233 235/235 234/234
f 233/233 236/236 235/235
f 237/237 239/239 238/238
f 237/237 240/240 239/239
f 241/241 243/243 242/242
f 241/241 244/244 243/243
f 245/245 247/247 246/246
f 245/245 248/248 247/247
f 249/249 251/251 250/250
f 249/249 252/252 251/251
f 253/253 255/255 254/254
f 253/253 256/256 255/255
f 257/257 259/259 258/258
f 257/257 260/260 259/259
f 261/261 263/263 262/262
f 261/261 264/264 263/263
f 265/265 267/267 266/266
f 265/265 268/268 267/267
f 269/269 271/271 270/270
f 269/269 272/272 271/271
f 285/285 287/287 286/286
f 285/285 288/288 287/287
f 289/289 291/291 290/290
f 289/289 292/292 291/291
f 293/293 295/295 294/294
f 293/293 296/296 295/295
f 297/297 299/299 298/298
f 297/297 300/300 299/299
f 313/313 315/315 314/314
f 313/313 316/316 315/315
f 317/317 319/319 318/318
f 317/317 320/320 319/319
f 321/321 323/323 322/322
f 321/321 324/324 323/323
f 325/325 327/327 326/326
f 325/325 328/328 327/327
f 341/341 343/343 342/342
f 341/341 344/344 343/343
f 345/345 347/347 346/346
f 345/345 348/348 347/347
f 349/349 351/351 350/350
f 349/349 352/352 351/351
f 353/353 355/355 354/354
f 353/353 356/356 355/355

g Group2

f 273/273 275/275 274/274
f 276/276 278/278 277/277
f 279/279 281/281 280/280
f 282/282 284/284 283/283
f 301/301 303/303 302/302
f 304/304 306/306 305/305
f 307/307 309/309 308/308
f 310/310 312/312 311/311
f 329/329 331/331 330/330
f 332/332 334/334 333/333
f 335/335 337/337 336/336
f 338/338 340/340 339/339
f 357/357 359/359 358/358
f 360/360 362/362 361/361
f 363/363 365/365 364/364
f 366/366 368/368 367/367
