# Vertices

v -7 14 -3
v -9 8 -3
v -7 8 -3
v -7 14 -3
v -13 8 -3
v -9 8 -3
v -7 14 -3
v -64 11 0
v -13 8 -3
v -7 8 3
v -9 8 3
v -7 14 3
v -9 8 3
v -13 8 3
v -7 14 3
v -13 8 3
v -64 11 0
v -7 14 3
v -7 14 -3
v -7 14 3
v -64 11 0
v -13 8 -3
v -64 11 0
v -13 8 3
v -9 8 -3
v -13 8 -3
v -13 8 3
v -9 8 -3
v -13 8 3
v -9 8 3
v -7 8 -3
v -9 8 -3
v -9 8 3
v -7 8 -3
v -9 8 3
v -7 8 3
v 35 12 -1
v 15 13 -2
v 15 9 -2
v 35 10 -1
v 35 10 1
v 15 9 2
v 15 13 2
v 35 12 1
v 35 12 -1
v 35 12 1
v 15 13 2
v 15 13 -2
v 35 10 -1
v 15 9 -2
v 15 9 2
v 35 10 1
v 11 15 -5
v -10 15 -5
v -10 15 -25
v 11 15 -25
v 11 15 -25
v -10 15 -25
v -10 15 -5
v 11 15 -5
v 11 15 -25
v -10 15 -25
v -10 15 -60
v 11 15 -60
v 11 15 -60
v -10 15 -60
v -10 15 -25
v 11 15 -25
v 11 15 25
v -10 15 25
v -10 15 5
v 11 15 5
v 11 15 5
v -10 15 5
v -10 15 25
v 11 15 25
v 11 15 60
v -10 15 60
v -10 15 25
v 11 15 25
v 11 15 25
v -10 15 25
v -10 15 60
v 11 15 60
v 5 9 -6
v 3 10 -5
v 3 10 -10
v 5 9 -9
v 3 10 -5
v -6 8 -5
v -6 8 -8
v 3 10 -10
v 3 5 -10
v -3 7 -8
v -3 7 -5
v 3 5 -5
v 5 6 -9
v 3 5 -10
v 3 5 -5
v 5 6 -6
v 5 9 -6
v 5 9 -9
v 5 6 -9
v 5 6 -6
v 5 9 -9
v 3 5 -10
v 5 6 -9
v 5 9 -9
v 3 10 -10
v 3 5 -10
v 3 10 -10
v -6 8 -8
v -3 7 -8
v 3 10 -10
v -3 7 -8
v 3 5 -10
v 3 5 -5
v -3 7 -5
v 3 10 -5
v -3 7 -5
v -6 8 -5
v 3 10 -5
v 5 6 -6
v 3 5 -5
v 5 9 -6
v 3 5 -5
v 3 10 -5
v 5 9 -6
v -3 7 -8
v -6 8 -8
v -2 1 -7
v -6 8 -8
v -3 1 -7
v -2 1 -7
v -2 1 -6
v -3 1 -6
v -3 7 -5
v -3 1 -6
v -6 8 -5
v -3 7 -5
v -3 7 -5
v -3 7 -8
v -2 1 -7
v -2 1 -6
v -6 8 -5
v -3 1 -6
v -3 1 -7
v -6 8 -8
v -2 1 -7
v -3 1 -7
v -3 1 -6
v -2 1 -6
v 1 1 -5
v -2 1 -6
v -2 1 -7
v 1 1 -5
v -2 1 -7
v 1 1 -8
v 1 1 -8
v -2 1 -7
v 1 1 -5
v -2 1 -7
v -2 1 -6
v 1 1 -5
v 5 9 9
v 3 10 10
v 3 10 5
v 5 9 6
v 3 10 10
v -6 8 8
v -6 8 5
v 3 10 5
v 3 5 5
v -3 7 5
v -3 7 8
v 3 5 10
v 5 6 6
v 3 5 5
v 3 5 10
v 5 6 9
v 5 6 6
v 5 6 9
v 5 9 9
v 5 9 6
v 5 6 9
v 3 5 10
v 5 9 9
v 3 5 10
v 3 10 10
v 5 9 9
v -3 7 8
v -6 8 8
v 3 10 10
v 3 5 10
v -3 7 8
v 3 10 10
v 3 10 5
v -3 7 5
v 3 5 5
v 3 10 5
v -6 8 5
v -3 7 5
v 5 9 6
v 3 5 5
v 5 6 6
v 5 9 6
v 3 10 5
v 3 5 5
v -2 1 7
v -6 8 8
v -3 7 8
v -2 1 7
v -3 1 7
v -6 8 8
v -3 7 5
v -3 1 6
v -2 1 6
v -3 7 5
v -6 8 5
v -3 1 6
v -2 1 6
v -2 1 7
v -3 7 8
v -3 7 5
v -6 8 8
v -3 1 7
v -3 1 6
v -6 8 5
v -2 1 6
v -3 1 6
v -3 1 7
v -2 1 7
v -2 1 7
v -2 1 6
v 1 1 5
v 1 1 8
v -2 1 7
v 1 1 5
v 1 1 5
v -2 1 7
v 1 1 8
v 1 1 5
v -2 1 6
v -2 1 7
v -5 16 -5
v -7 14 -3
v -7 8 -3
v -5 6 -5
v 5 16 -5
v -5 16 -5
v -5 6 -5
v 5 6 -5
v 15 13 -2
v 5 16 -5
v 5 6 -5
v 15 9 -2
v -5 6 5
v -7 8 3
v -7 14 3
v -5 16 5
v 5 6 5
v -5 6 5
v -5 16 5
v 5 16 5
v 15 9 2
v 5 6 5
v 5 16 5
v 15 13 2
v -5 16 5
v -7 14 3
v -7 14 -3
v -5 16 -5
v 5 16 5
v -5 16 5
v -5 16 -5
v 5 16 -5
v 15 13 2
v 5 16 5
v 5 16 -5
v 15 13 -2
v -7 8 3
v -5 6 5
v -5 6 -5
v -7 8 -3
v 5 6 -5
v -5 6 -5
v -5 6 5
v 5 6 5
v 15 9 -2
v 5 6 -5
v 5 6 5
v 15 9 2
v 2 0 -5
v 1 1 -5
v 1 1 -8
v 2 0 -5
v 1 1 -8
v 2 0 -8
v 2 0 -8
v 1 1 -8
v 2 0 -5
v 1 1 -8
v 1 1 -5
v 2 0 -5
v 1 1 8
v 1 1 5
v 2 0 5
v 2 0 8
v 1 1 8
v 2 0 5
v 2 0 5
v 1 1 8
v 2 0 8
v 2 0 5
v 1 1 5
v 1 1 8
v 44 11 2
v 38 12 2
v 38 12 -2
v 44 11 -2
v 38 12 2
v 35 14 3
v 35 14 -3
v 38 12 -2
v 35 14 3
v 35 8 3
v 35 8 -3
v 35 14 -3
v 38 9 -2
v 35 8 -3
v 35 8 3
v 38 9 2
v 44 10 -2
v 38 10 -2
v 38 10 2
v 44 10 2
v 44 11 2
v 44 11 -2
v 44 10 -2
v 44 10 2
v 38 12 -2
v 35 14 -3
v 35 8 -3
v 38 9 -2
v 44 11 -2
v 38 12 -2
v 38 10 -2
v 44 10 -2
v 44 10 2
v 38 10 2
v 38 12 2
v 44 11 2
v 38 9 2
v 35 8 3
v 35 14 3
v 38 12 2
v 43 9 -2
v 43 8 -2
v 43 8 2
v 43 9 2
v 43 9 2
v 38 10 2
v 38 10 -2
v 43 9 -2
v 43 8 -2
v 38 9 -2
v 38 9 2
v 43 8 2
v 43 9 -2
v 38 10 -2
v 38 9 -2
v 43 9 -2
v 38 9 -2
v 43 8 -2
v 43 8 2
v 38 9 2
v 38 10 2
v 43 8 2
v 38 10 2
v 43 9 2

# Texture Coordinates

vt 0.025 0.92
vt 0.0125 0.98
vt 0.025 0.98
vt 0.05 0.915
vt 0.0125 0.975
vt 0.0375 0.975
vt 0.371875 0.925
vt 0.015625 0.955
vt 0.334375 0.985
vt 0.36875 0.915
vt 0.35625 0.915
vt 0.36875 0.975
vt 0.346875 0.92
vt 0.321875 0.92
vt 0.359375 0.98
vt 0.31875 0.92
vt 0 0.95
vt 0.35625 0.98
vt 0.359375 0.98
vt 0.359375 0.92
vt 0.003125 0.95
vt 0.3625 0.9299999999999999
vt 0.04375 0.96
vt 0.3625 0.99
vt 0.078125 0.925
vt 0.053125 0.925
vt 0.053125 0.985
vt 0.096875 0.925
vt 0.071875 0.985
vt 0.096875 0.985
vt 0.121875 0.925
vt 0.109375 0.925
vt 0.109375 0.985
vt 0.134375 0.925
vt 0.121875 0.985
vt 0.134375 0.985
vt 0.203125 0.94
vt 0.078125 0.9299999999999999
vt 0.078125 0.97
vt 0.203125 0.96
vt 0.2625 0.955
vt 0.1375 0.945
vt 0.1375 0.985
vt 0.2625 0.975
vt 0.1375 0.97
vt 0.1375 0.95
vt 0.0125 0.94
vt 0.0125 0.98
vt 0.1375 0.9299999999999999
vt 0.0125 0.92
vt 0.0125 0.96
vt 0.1375 0.95
vt 0.14375 0.9
vt 0.0125 0.9
vt 0.0125 0.7
vt 0.14375 0.7
vt 0.14375 0.7
vt 0.0125 0.7
vt 0.0125 0.9
vt 0.14375 0.9
vt 0.284375 0.9
vt 0.153125 0.9
vt 0.153125 0.55
vt 0.284375 0.55
vt 0.284375 0.55
vt 0.153125 0.55
vt 0.153125 0.9
vt 0.284375 0.9
vt 0.14375 0.7
vt 0.0125 0.7
vt 0.0125 0.9
vt 0.14375 0.9
vt 0.14375 0.9
vt 0.0125 0.9
vt 0.0125 0.7
vt 0.14375 0.7
vt 0.284375 0.55
vt 0.153125 0.55
vt 0.153125 0.9
vt 0.284375 0.9
vt 0.284375 0.9
vt 0.153125 0.9
vt 0.153125 0.55
vt 0.284375 0.55
vt 0.3375 0.94
vt 0.325 0.9299999999999999
vt 0.325 0.98
vt 0.3375 0.97
vt 0.3125 0.94
vt 0.25625 0.94
vt 0.25625 0.97
vt 0.3125 0.99
vt 0.2625 0.935
vt 0.221875 0.955
vt 0.221875 0.985
vt 0.2625 0.985
vt 0.225 0.94
vt 0.2125 0.9299999999999999
vt 0.2125 0.98
vt 0.225 0.97
vt 0.190625 0.945
vt 0.171875 0.945
vt 0.171875 0.975
vt 0.190625 0.975
vt 0.159375 0.945
vt 0.146875 0.985
vt 0.159375 0.975
vt 0.1375 0.945
vt 0.125 0.935
vt 0.125 0.985
vt 0.115625 0.945
vt 0.059375 0.97
vt 0.078125 0.98
vt 0.090625 0.94
vt 0.05 0.97
vt 0.090625 0.99
vt 0.075 0.94
vt 0.0375 0.96
vt 0.075 0.99
vt 0.075 0.94
vt 0.05625 0.95
vt 0.1125 0.97
vt 0.075 0.94
vt 0.0625 0.9299999999999999
vt 0.075 0.97
vt 0.071875 0.94
vt 0.071875 0.99
vt 0.084375 0.98
vt 0.071875 0.94
vt 0.053125 0.9299999999999999
vt 0.078125 1
vt 0.071875 0.94
vt 0.090625 1
vt 0.096875 1
vt 0.071875 0.94
vt 0.065625 0.94
vt 0.065625 1
vt 0.071875 0.94
vt 0.053125 1
vt 0.071875 1
vt 0.071875 0.94
vt 0.071875 0.97
vt 0.109375 0.96
vt 0.109375 0.95
vt 0.071875 0.94
vt 0.11875 0.9299999999999999
vt 0.11875 0.92
vt 0.071875 0.91
vt 0.06875 0.94
vt 0.0625 0.94
vt 0.0625 0.95
vt 0.06875 0.95
vt 0.06875 0.94
vt 0.05 0.95
vt 0.05 0.96
vt 0.06875 0.94
vt 0.05 0.96
vt 0.06875 0.97
vt 0.06875 0.94
vt 0.05 0.95
vt 0.06875 0.97
vt 0.06875 0.94
vt 0.06875 0.95
vt 0.0875 0.96
vt 0.18125 0.935
vt 0.16875 0.925
vt 0.16875 0.975
vt 0.18125 0.965
vt 0.18125 0.935
vt 0.125 0.955
vt 0.125 0.985
vt 0.18125 0.985
vt 0.18125 0.935
vt 0.140625 0.935
vt 0.140625 0.965
vt 0.18125 0.985
vt 0.18125 0.935
vt 0.16875 0.925
vt 0.16875 0.975
vt 0.18125 0.965
vt 0.20625 0.955
vt 0.225 0.955
vt 0.225 0.925
vt 0.20625 0.925
vt 0.240625 0.95
vt 0.228125 0.94
vt 0.240625 0.98
vt 0.2625 0.935
vt 0.2625 0.985
vt 0.275 0.975
vt 0.26875 0.935
vt 0.25 0.945
vt 0.30625 0.97
vt 0.303125 0.9299999999999999
vt 0.2625 0.95
vt 0.303125 0.98
vt 0.33125 0.925
vt 0.29375 0.955
vt 0.33125 0.975
vt 0.315625 0.9299999999999999
vt 0.259375 0.95
vt 0.278125 0.96
vt 0.29375 0.9299999999999999
vt 0.28125 0.97
vt 0.29375 0.96
vt 0.034375 0.9299999999999999
vt 0.021875 0.92
vt 0.021875 0.97
vt 0.05 0.915
vt 0.025 0.985
vt 0.04375 0.975
vt 0.06875 0.915
vt 0.0625 0.915
vt 0.04375 0.985
vt 0.021875 0.92
vt 0.021875 0.98
vt 0.028125 0.98
vt 0.31875 0.9299999999999999
vt 0.3 0.92
vt 0.31875 0.99
vt 0.346875 0.95
vt 0.346875 0.94
vt 0.309375 0.9299999999999999
vt 0.309375 0.96
vt 0.325 0.98
vt 0.371875 0.97
vt 0.371875 0.96
vt 0.325 0.95
vt 0.33125 0.965
vt 0.325 0.965
vt 0.325 0.975
vt 0.33125 0.975
vt 0.29375 0.965
vt 0.29375 0.975
vt 0.3125 0.985
vt 0.275 0.96
vt 0.25625 0.97
vt 0.275 0.99
vt 0.265625 0.955
vt 0.246875 0.975
vt 0.265625 0.985
vt 0.253125 0.955
vt 0.234375 0.965
vt 0.234375 0.975
vt 0.315625 0.795
vt 0.296875 0.815
vt 0.296875 0.875
vt 0.315625 0.895
vt 0.378125 0.795
vt 0.315625 0.795
vt 0.315625 0.895
vt 0.378125 0.895
vt 0.44375 0.825
vt 0.378125 0.795
vt 0.378125 0.895
vt 0.44375 0.865
vt 0.484375 0.795
vt 0.465625 0.815
vt 0.465625 0.875
vt 0.484375 0.895
vt 0.546875 0.795
vt 0.484375 0.795
vt 0.484375 0.895
vt 0.546875 0.895
vt 0.6125 0.825
vt 0.546875 0.795
vt 0.546875 0.895
vt 0.6125 0.865
vt 0.65 0.78
vt 0.63125 0.8
vt 0.63125 0.86
vt 0.65 0.88
vt 0.7125 0.78
vt 0.65 0.78
vt 0.65 0.88
vt 0.7125 0.88
vt 0.778125 0.81
vt 0.7125 0.78
vt 0.7125 0.88
vt 0.778125 0.85
vt 0.628125 0.97
vt 0.646875 0.99
vt 0.646875 0.89
vt 0.628125 0.91
vt 0.709375 0.89
vt 0.646875 0.89
vt 0.646875 0.99
vt 0.709375 0.99
vt 0.775 0.92
vt 0.709375 0.89
vt 0.709375 0.99
vt 0.775 0.96
vt 0.4 0.96
vt 0.4 0.975
vt 0.41875 0.975
vt 0.4 0.96
vt 0.41875 0.975
vt 0.41875 0.96
vt 0.4 0.9299999999999999
vt 0.4 0.945
vt 0.41875 0.9299999999999999
vt 0.4 0.945
vt 0.41875 0.945
vt 0.41875 0.9299999999999999
vt 0.4375 0.975
vt 0.45625 0.975
vt 0.45625 0.96
vt 0.4375 0.96
vt 0.4375 0.975
vt 0.45625 0.96
vt 0.4375 0.9299999999999999
vt 0.45625 0.945
vt 0.45625 0.9299999999999999
vt 0.4375 0.9299999999999999
vt 0.4375 0.945
vt 0.45625 0.945
vt 0.778125 0.7050000000000001
vt 0.740625 0.7050000000000001
vt 0.740625 0.745
vt 0.778125 0.745
vt 0.740625 0.7050000000000001
vt 0.71875 0.6950000000000001
vt 0.71875 0.755
vt 0.740625 0.745
vt 0.71875 0.6950000000000001
vt 0.68125 0.6950000000000001
vt 0.68125 0.755
vt 0.71875 0.755
vt 0.6625 0.745
vt 0.68125 0.755
vt 0.68125 0.6950000000000001
vt 0.6625 0.7050000000000001
vt 0.625 0.745
vt 0.6625 0.745
vt 0.6625 0.7050000000000001
vt 0.625 0.7050000000000001
vt 0.61875 0.7050000000000001
vt 0.61875 0.745
vt 0.625 0.745
vt 0.625 0.7050000000000001
vt 0.578125 0.74
vt 0.596875 0.76
vt 0.596875 0.7
vt 0.578125 0.71
vt 0.534375 0.73
vt 0.571875 0.74
vt 0.571875 0.72
vt 0.534375 0.72
vt 0.515625 0.72
vt 0.478125 0.72
vt 0.478125 0.74
vt 0.515625 0.73
vt 0.471875 0.71
vt 0.453125 0.7
vt 0.453125 0.76
vt 0.471875 0.74
vt 0.409375 0.755
vt 0.409375 0.765
vt 0.434375 0.765
vt 0.434375 0.755
vt 0.396875 0.73
vt 0.365625 0.73
vt 0.365625 0.77
vt 0.396875 0.77
vt 0.35625 0.73
vt 0.325 0.73
vt 0.325 0.77
vt 0.35625 0.77
vt 0.33125 0.71
vt 0.3 0.7
vt 0.3 0.71
vt 0.33125 0.7
vt 0.3 0.7
vt 0.33125 0.71
vt 0.38125 0.685
vt 0.35 0.6950000000000001
vt 0.35 0.7050000000000001
vt 0.38125 0.685
vt 0.35 0.7050000000000001
vt 0.38125 0.6950000000000001

# Groups

g Group0

f 1/1 3/3 2/2
f 4/4 6/6 5/5
f 7/7 9/9 8/8
f 10/10 12/12 11/11
f 13/13 15/15 14/14
f 16/16 18/18 17/17
f 19/19 21/21 20/20
f 22/22 24/24 23/23
f 25/25 27/27 26/26
f 28/28 30/30 29/29
f 31/31 33/33 32/32
f 34/34 36/36 35/35
f 37/37 39/39 38/38
f 37/37 40/40 39/39
f 41/41 43/43 42/42
f 41/41 44/44 43/43
f 45/45 47/47 46/46
f 45/45 48/48 47/47
f 49/49 51/51 50/50
f 49/49 52/52 51/51
f 53/53 55/55 54/54
f 53/53 56/56 55/55
f 57/57 59/59 58/58
f 57/57 60/60 59/59
f 61/61 63/63 62/62
f 61/61 64/64 63/63
f 65/65 67/67 66/66
f 65/65 68/68 67/67
f 69/69 71/71 70/70
f 69/69 72/72 71/71
f 73/73 75/75 74/74
f 73/73 76/76 75/75
f 77/77 79/79 78/78
f 77/77 80/80 79/79
f 81/81 83/83 82/82
f 81/81 84/84 83/83
f 85/85 87/87 86/86
f 85/85 88/88 87/87
f 89/89 91/91 90/90
f 89/89 92/92 91/91
f 93/93 95/95 94/94
f 93/93 96/96 95/95
f 97/97 99/99 98/98
f 97/97 100/100 99/99
f 101/101 103/103 102/102
f 101/101 104/104 103/103
f 105/105 107/107 106/106
f 108/108 110/110 109/109
f 111/111 113/113 112/112
f 114/114 116/116 115/115
f 117/117 119/119 118/118
f 120/120 122/122 121/121
f 123/123 125/125 124/124
f 126/126 128/128 127/127
f 129/129 131/131 130/130
f 132/132 134/134 133/133
f 135/135 137/137 136/136
f 138/138 140/140 139/139
f 141/141 143/143 142/142
f 141/141 144/144 143/143
f 145/145 147/147 146/146
f 145/145 148/148 147/147
f 149/149 151/151 150/150
f 149/149 152/152 151/151
f 153/153 155/155 154/154
f 156/156 158/158 157/157
f 159/159 161/161 160/160
f 162/162 164/164 163/163
f 165/165 167/167 166/166
f 165/165 168/168 167/167
f 169/169 171/171 170/170
f 169/169 172/172 171/171
f 173/173 175/175 174/174
f 173/173 176/176 175/175
f 177/177 179/179 178/178
f 177/177 180/180 179/179
f 181/181 183/183 182/182
f 181/181 184/184 183/183
f 185/185 187/187 186/186
f 188/188 190/190 189/189
f 191/191 193/193 192/192
f 194/194 196/196 195/195
f 197/197 199/199 198/198
f 200/200 202/202 201/201
f 203/203 205/205 204/204
f 206/206 208/208 207/207
f 209/209 211/211 210/210
f 212/212 214/214 213/213
f 215/215 217/217 216/216
f 218/218 220/220 219/219
f 221/221 223/223 222/222
f 221/221 224/224 223/223
f 225/225 227/227 226/226
f 225/225 228/228 227/227
f 229/229 231/231 230/230
f 229/229 232/232 231/231
f 233/233 235/235 234/234
f 236/236 238/238 237/237
f 239/239 241/241 240/240
f 242/242 244/244 243/243
f 245/245 247/247 246/246
f 245/245 248/248 247/247
f 249/249 251/251 250/250
f 249/249 252/252 251/251
f 253/253 255/255 254/254
f 253/253 256/256 255/255
f 257/257 259/259 258/258
f 257/257 260/260 259/259
f 261/261 263/263 262/262
f 261/261 264/264 263/263
f 265/265 267/267 266/266
f 265/265 268/268 267/267
f 269/269 271/271 270/270
f 269/269 272/272 271/271
f 273/273 275/275 274/274
f 273/273 276/276 275/275
f 277/277 279/279 278/278
f 277/277 280/280 279/279
f 281/281 283/283 282/282
f 281/281 284/284 283/283
f 285/285 287/287 286/286
f 285/285 288/288 287/287
f 289/289 291/291 290/290
f 289/289 292/292 291/291
f 293/293 295/295 294/294
f 296/296 298/298 297/297
f 299/299 301/301 300/300
f 302/302 304/304 303/303
f 305/305 307/307 306/306
f 308/308 310/310 309/309
f 311/311 313/313 312/312
f 314/314 316/316 315/315
f 317/317 319/319 318/318
f 317/317 320/320 319/319
f 321/321 323/323 322/322
f 321/321 324/324 323/323
f 325/325 327/327 326/326
f 325/325 328/328 327/327
f 329/329 331/331 330/330
f 329/329 332/332 331/331
f 333/333 335/335 334/334
f 333/333 336/336 335/335
f 337/337 339/339 338/338
f 337/337 340/340 339/339
f 341/341 343/343 342/342
f 341/341 344/344 343/343
f 345/345 347/347 346/346
f 345/345 348/348 347/347
f 349/349 351/351 350/350
f 349/349 352/352 351/351
f 353/353 355/355 354/354
f 353/353 356/356 355/355
f 357/357 359/359 358/358
f 357/357 360/360 359/359
f 361/361 363/363 362/362
f 361/361 364/364 363/363
f 365/365 367/367 366/366
f 365/365 368/368 367/367
f 369/369 371/371 370/370
f 372/372 374/374 373/373
f 375/375 377/377 376/376
f 378/378 380/380 379/379
