# Vertices

v -8 59 2
v 0 59 3
v -4 53 4
v -8 59 2
v -4 53 4
v -8 54 2
v 0 59 3
v 4 53 4
v -4 53 4
v 0 59 3
v 8 59 2
v 4 53 4
v 8 59 2
v 8 54 2
v 4 53 4
v 0 59 -3
v -4 53 -4
v 4 53 -4
v 8 59 -2
v 0 59 -3
v 4 53 -4
v 8 59 -2
v 4 53 -4
v 8 54 -2
v 0 59 -3
v -8 59 -2
v -4 53 -4
v -8 59 -2
v -8 54 -2
v -4 53 -4
v -4 53 4
v 4 53 4
v 0 43 3
v -4 53 4
v 0 43 3
v -6 43 0
v -8 54 2
v -4 53 4
v -6 43 0
v 4 53 4
v 6 43 0
v 0 43 3
v 4 53 4
v 8 54 2
v 6 43 0
v 4 53 -4
v -4 53 -4
v 0 43 -3
v 4 53 -4
v 0 43 -3
v 6 43 0
v 8 54 -2
v 4 53 -4
v 6 43 0
v 8 54 2
v 8 54 -2
v 6 43 0
v -4 53 -4
v -6 43 0
v 0 43 -3
v -4 53 -4
v -8 54 -2
v -6 43 0
v -8 54 -2
v -8 54 2
v -6 43 0
v 0 43 3
v 1 34 3
v -1 34 3
v -6 43 0
v 0 43 3
v -1 34 3
v -6 43 0
v -1 34 3
v -7 34 3
v 0 43 3
v 6 43 0
v 1 34 3
v 6 43 0
v 7 34 3
v 1 34 3
v 0 43 -3
v -1 38 -5
v 1 38 -5
v 6 43 0
v 0 43 -3
v 1 38 -5
v 6 43 0
v 1 38 -5
v 7 38 -5
v 6 43 0
v 7 38 -5
v 7 34 3
v 0 43 -3
v -6 43 0
v -1 38 -5
v -6 43 0
v -7 38 -5
v -1 38 -5
v -6 43 0
v -7 34 3
v -7 38 -5
v -3 60 0
v -8 59 2
v -8 59 -2
v -3 60 0
v -8 59 -2
v 0 59 -3
v -3 60 0
v 0 59 3
v -8 59 2
v 3 60 0
v 0 59 -3
v 8 59 -2
v 3 60 0
v 8 59 -2
v 8 59 2
v 3 60 0
v 8 59 2
v 0 59 3
v -7 34 3
v -7 34 -4
v -7 38 -5
v -7 34 3
v -7 33 -3
v -7 34 -4
v -7 34 3
v -7 33 3
v -7 33 -3
v -7 34 3
v -1 34 3
v -1 33 3
v -7 33 3
v -1 34 3
v -1 33 -3
v -1 33 3
v -1 34 3
v -1 34 -4
v -1 33 -3
v -1 34 3
v -1 38 -5
v -1 34 -4
v -1 38 -5
v -7 38 -5
v -7 34 -4
v -1 34 -4
v -1 34 -4
v -7 34 -4
v -7 33 -3
v -1 33 -3
v -7 33 -3
v -7 33 3
v -6 19 3
v -6 19 -2
v -7 33 3
v -1 33 3
v -1 19 3
v -6 19 3
v -1 33 3
v -1 33 -3
v -1 19 -2
v -1 19 3
v -1 33 -3
v -7 33 -3
v -6 19 -2
v -1 19 -2
v -6 19 -2
v -6 19 3
v -5 3 3
v -5 3 -1
v -6 19 3
v -1 19 3
v -1 3 3
v -5 3 3
v -1 19 3
v -1 19 -2
v -1 3 -1
v -1 3 3
v -1 19 -2
v -6 19 -2
v -5 3 -1
v -1 3 -1
v -5 3 3
v -1 3 3
v -1 1 9
v -5 1 9
v -5 1 9
v -1 1 9
v -1 0 9
v -5 0 9
v -5 0 -2
v -5 0 9
v -1 0 9
v -1 0 -2
v -5 3 3
v -5 1 9
v -5 0 9
v -5 0 -2
v -5 3 -1
v -5 3 3
v -5 0 -2
v -1 3 3
v -1 0 -2
v -1 0 9
v -1 1 9
v -1 3 3
v -1 3 -1
v -1 0 -2
v -1 3 -1
v -5 3 -1
v -5 0 -2
v -1 0 -2
v -1 34 3
v 1 34 3
v 1 38 -5
v -1 38 -5
v 7 34 3
v 7 38 -5
v 7 34 -4
v 7 34 3
v 7 34 -4
v 7 33 -3
v 7 34 3
v 7 33 -3
v 7 33 3
v 1 34 3
v 7 34 3
v 7 33 3
v 1 33 3
v 1 34 3
v 1 33 3
v 1 33 -3
v 1 34 3
v 1 33 -3
v 1 34 -4
v 1 34 3
v 1 34 -4
v 1 38 -5
v 7 38 -5
v 1 38 -5
v 1 34 -4
v 7 34 -4
v 7 34 -4
v 1 34 -4
v 1 33 -3
v 7 33 -3
v 7 33 3
v 7 33 -3
v 6 19 -2
v 6 19 3
v 1 33 3
v 7 33 3
v 6 19 3
v 1 19 3
v 1 33 -3
v 1 33 3
v 1 19 3
v 1 19 -2
v 7 33 -3
v 1 33 -3
v 1 19 -2
v 6 19 -2
v 6 19 3
v 6 19 -2
v 5 3 -1
v 5 3 3
v 1 19 3
v 6 19 3
v 5 3 3
v 1 3 3
v 1 19 -2
v 1 19 3
v 1 3 3
v 1 3 -1
v 6 19 -2
v 1 19 -2
v 1 3 -1
v 5 3 -1
v 1 3 3
v 5 3 3
v 5 1 9
v 1 1 9
v 1 1 9
v 5 1 9
v 5 0 9
v 1 0 9
v 1 0 -2
v 1 0 9
v 5 0 9
v 5 0 -2
v 5 3 -1
v 1 3 -1
v 1 0 -2
v 5 0 -2
v 1 3 3
v 1 1 9
v 1 0 9
v 1 0 -2
v 1 3 -1
v 1 3 3
v 1 0 -2
v 5 3 3
v 5 0 -2
v 5 0 9
v 5 1 9
v 5 3 3
v 5 3 -1
v 5 0 -2
v 8 59 2
v 10 55 2
v 8 54 2
v 8 59 2
v 10 59 2
v 10 55 2
v 8 59 2
v 10 59 -2
v 10 59 2
v 8 59 2
v 8 59 -2
v 10 59 -2
v 8 59 -2
v 10 55 -2
v 10 59 -2
v 8 59 -2
v 8 54 -2
v 10 55 -2
v 8 54 2
v 10 55 -2
v 8 54 -2
v 8 54 2
v 10 55 2
v 10 55 -2
v 10 59 2
v 12 59 2
v 10 55 2
v 12 59 2
v 18 55 2
v 10 55 2
v 12 59 2
v 18 59 2
v 18 55 2
v 10 59 -2
v 12 59 2
v 10 59 2
v 10 59 -2
v 12 59 -2
v 12 59 2
v 12 59 -2
v 18 59 2
v 12 59 2
v 12 59 -2
v 18 59 -2
v 18 59 2
v 10 55 -2
v 12 59 -2
v 10 59 -2
v 10 55 -2
v 18 59 -2
v 12 59 -2
v 10 55 -2
v 18 55 -2
v 18 59 -2
v 10 55 2
v 18 55 -2
v 10 55 -2
v 10 55 2
v 18 55 2
v 18 55 -2
v 18 59 2
v 30 55 2
v 18 55 2
v 18 59 2
v 30 57 2
v 30 55 2
v 18 59 -2
v 30 57 2
v 18 59 2
v 18 59 -2
v 30 57 -1
v 30 57 2
v 18 55 -2
v 30 57 -1
v 18 59 -2
v 18 55 -2
v 30 55 -1
v 30 57 -1
v 18 55 2
v 30 55 -1
v 18 55 -2
v 18 55 2
v 30 55 2
v 30 55 -1
v 30 57 2
v 34 58 2
v 34 55 2
v 30 55 2
v 30 57 -1
v 34 58 -2
v 34 58 2
v 30 57 2
v 30 55 -1
v 34 55 -2
v 34 58 -2
v 30 57 -1
v 30 55 2
v 34 55 2
v 34 55 -2
v 30 55 -1
v 34 55 2
v 34 58 2
v 34 58 -2
v 34 55 -2
v -10 55 2
v -8 59 2
v -8 54 2
v -10 55 2
v -10 59 2
v -8 59 2
v -10 59 -2
v -8 59 2
v -10 59 2
v -10 59 -2
v -8 59 -2
v -8 59 2
v -10 55 -2
v -8 59 -2
v -10 59 -2
v -10 55 -2
v -8 54 -2
v -8 59 -2
v -8 54 2
v -8 54 -2
v -10 55 -2
v -8 54 2
v -10 55 -2
v -10 55 2
v -12 59 2
v -10 59 2
v -10 55 2
v -12 59 2
v -10 55 2
v -18 55 2
v -12 59 2
v -18 55 2
v -18 59 2
v -12 59 2
v -10 59 -2
v -10 59 2
v -12 59 2
v -12 59 -2
v -10 59 -2
v -18 59 2
v -12 59 -2
v -12 59 2
v -18 59 2
v -18 59 -2
v -12 59 -2
v -12 59 -2
v -10 55 -2
v -10 59 -2
v -18 59 -2
v -10 55 -2
v -12 59 -2
v -18 59 -2
v -18 55 -2
v -10 55 -2
v -18 55 -2
v -10 55 2
v -10 55 -2
v -18 55 -2
v -18 55 2
v -10 55 2
v -30 55 2
v -18 59 2
v -18 55 2
v -30 55 2
v -30 57 2
v -18 59 2
v -30 57 2
v -18 59 -2
v -18 59 2
v -30 57 2
v -30 57 -1
v -18 59 -2
v -30 57 -1
v -18 55 -2
v -18 59 -2
v -30 57 -1
v -30 55 -1
v -18 55 -2
v -30 55 -1
v -18 55 2
v -18 55 -2
v -30 55 -1
v -30 55 2
v -18 55 2
v -34 58 2
v -30 57 2
v -30 55 2
v -34 55 2
v -34 58 -2
v -30 57 -1
v -30 57 2
v -34 58 2
v -34 55 -2
v -30 55 -1
v -30 57 -1
v -34 58 -2
v -34 55 2
v -30 55 2
v -30 55 -1
v -34 55 -2
v -34 58 2
v -34 55 2
v -34 55 -2
v -34 58 -2
v -2 71 -2
v -2 71 1
v -3 68 2
v -3 68 -3
v -2 71 -2
v 2 71 -2
v 2 71 1
v -2 71 1
v -2 71 1
v 2 71 1
v 0 68 4
v -2 71 1
v 0 68 4
v -3 68 2
v 2 71 1
v 3 68 2
v 0 68 4
v 2 71 1
v 2 71 -2
v 3 68 -3
v 3 68 2
v 2 71 -2
v -2 71 -2
v 0 68 -5
v 2 71 -2
v 0 68 -5
v 3 68 -3
v -2 71 -2
v -3 68 -3
v 0 68 -5
v 0 68 -5
v -3 68 -3
v -3 63 -3
v 0 63 -5
v -3 68 -3
v -3 68 2
v -3 63 2
v -3 63 -3
v -3 68 2
v 0 68 4
v 0 62 4
v -3 63 2
v 0 68 4
v 3 68 2
v 3 63 2
v 0 62 4
v 3 68 2
v 3 68 -3
v 3 63 -3
v 3 63 2
v 3 68 -3
v 0 68 -5
v 0 63 -5
v 3 63 -3
v 0 62 4
v 2 62 2
v -2 62 2
v -3 63 -3
v -3 63 2
v -2 62 2
v -2 62 -2
v 0 63 -5
v -3 63 -3
v -2 62 -2
v -3 63 2
v 0 62 4
v -2 62 2
v 0 62 4
v 3 63 2
v 2 62 2
v 3 63 2
v 3 63 -3
v 2 62 -2
v 2 62 2
v 3 63 -3
v 0 63 -5
v 2 62 -2
v 0 63 -5
v -2 62 -2
v 2 62 -2
v -2 62 2
v 2 62 2
v 0 59 3
v -2 62 -2
v -2 62 2
v -3 60 0
v -2 62 2
v 0 59 3
v -3 60 0
v 2 62 2
v 3 60 0
v 0 59 3
v 2 62 2
v 2 62 -2
v 3 60 0
v 2 62 -2
v -2 62 -2
v 0 59 -3
v 2 62 -2
v 0 59 -3
v 3 60 0
v -2 62 -2
v -3 60 0
v 0 59 -3

# Texture Coordinates

vt 0.00625 0.99
vt 0.05625 0.99
vt 0.03125 0.9299999999999999
vt 0.00625 0.99
vt 0.03125 0.9299999999999999
vt 0.00625 0.94
vt 0.05625 0.99
vt 0.08125 0.9299999999999999
vt 0.03125 0.9299999999999999
vt 0.05625 0.99
vt 0.10625 0.99
vt 0.08125 0.9299999999999999
vt 0.10625 0.99
vt 0.10625 0.94
vt 0.08125 0.9299999999999999
vt 0.05625 0.92
vt 0.08125 0.855
vt 0.03125 0.855
vt 0.00625 0.92
vt 0.05625 0.92
vt 0.03125 0.855
vt 0.00625 0.915
vt 0.034375 0.855
vt 0.00625 0.865
vt 0.05625 0.92
vt 0.10625 0.92
vt 0.08125 0.855
vt 0.10625 0.915
vt 0.10625 0.865
vt 0.078125 0.855
vt 0.03125 0.845
vt 0.08125 0.845
vt 0.05625 0.745
vt 0.03125 0.845
vt 0.05625 0.745
vt 0.015625 0.74
vt 0.003125 0.85
vt 0.03125 0.845
vt 0.015625 0.74
vt 0.08125 0.845
vt 0.096875 0.74
vt 0.05625 0.745
vt 0.08125 0.845
vt 0.109375 0.85
vt 0.096875 0.74
vt 0.184375 0.96
vt 0.234375 0.96
vt 0.209375 0.86
vt 0.184375 0.96
vt 0.209375 0.86
vt 0.16875 0.85
vt 0.153125 0.96
vt 0.184375 0.96
vt 0.16875 0.85
vt 0.13125 0.945
vt 0.153125 0.96
vt 0.16875 0.85
vt 0.234375 0.96
vt 0.25 0.85
vt 0.209375 0.86
vt 0.234375 0.96
vt 0.265625 0.96
vt 0.25 0.85
vt 0.265625 0.96
vt 0.2875 0.945
vt 0.25 0.85
vt 0.05625 0.71
vt 0.0625 0.62
vt 0.05 0.62
vt 0.015625 0.71
vt 0.05625 0.71
vt 0.05 0.62
vt 0.015625 0.71
vt 0.05 0.62
vt 0.0125 0.615
vt 0.05625 0.71
vt 0.096875 0.71
vt 0.0625 0.62
vt 0.096875 0.71
vt 0.1 0.615
vt 0.0625 0.62
vt 0.209375 0.8049999999999999
vt 0.215625 0.745
vt 0.203125 0.745
vt 0.16875 0.8200000000000001
vt 0.209375 0.8049999999999999
vt 0.203125 0.745
vt 0.16875 0.8200000000000001
vt 0.203125 0.745
vt 0.165625 0.74
vt 0.16875 0.8200000000000001
vt 0.165625 0.74
vt 0.1125 0.79
vt 0.209375 0.8049999999999999
vt 0.25 0.8200000000000001
vt 0.215625 0.745
vt 0.25 0.8200000000000001
vt 0.253125 0.74
vt 0.215625 0.745
vt 0.25 0.8200000000000001
vt 0.30625 0.79
vt 0.253125 0.74
vt 0.328125 0.955
vt 0.296875 0.935
vt 0.296875 0.975
vt 0.328125 0.955
vt 0.296875 0.975
vt 0.346875 0.985
vt 0.328125 0.955
vt 0.346875 0.925
vt 0.296875 0.935
vt 0.371875 0.955
vt 0.353125 0.985
vt 0.403125 0.975
vt 0.371875 0.955
vt 0.403125 0.975
vt 0.403125 0.935
vt 0.371875 0.955
vt 0.403125 0.935
vt 0.353125 0.925
vt 0.165625 0.7050000000000001
vt 0.115625 0.7050000000000001
vt 0.109375 0.745
vt 0.165625 0.7050000000000001
vt 0.128125 0.6950000000000001
vt 0.115625 0.7050000000000001
vt 0.165625 0.7050000000000001
vt 0.165625 0.6950000000000001
vt 0.128125 0.6950000000000001
vt 0.165625 0.7050000000000001
vt 0.203125 0.7050000000000001
vt 0.203125 0.6950000000000001
vt 0.165625 0.6950000000000001
vt 0.234375 0.7050000000000001
vt 0.271875 0.6950000000000001
vt 0.234375 0.6950000000000001
vt 0.234375 0.7050000000000001
vt 0.284375 0.7050000000000001
vt 0.271875 0.6950000000000001
vt 0.234375 0.7050000000000001
vt 0.290625 0.745
vt 0.284375 0.7050000000000001
vt 0.3 0.745
vt 0.3375 0.745
vt 0.3375 0.7050000000000001
vt 0.3 0.7050000000000001
vt 0.3 0.7050000000000001
vt 0.3375 0.7050000000000001
vt 0.3375 0.685
vt 0.3 0.685
vt 0.309375 0.91
vt 0.346875 0.91
vt 0.346875 0.77
vt 0.315625 0.77
vt 0.35 0.91
vt 0.3875 0.91
vt 0.3875 0.77
vt 0.35625 0.77
vt 0.3875 0.91
vt 0.425 0.91
vt 0.41875 0.77
vt 0.3875 0.77
vt 0.425 0.91
vt 0.4625 0.91
vt 0.45625 0.77
vt 0.425 0.77
vt 0.346875 0.755
vt 0.378125 0.755
vt 0.378125 0.595
vt 0.353125 0.595
vt 0.378125 0.755
vt 0.409375 0.755
vt 0.409375 0.595
vt 0.384375 0.595
vt 0.409375 0.755
vt 0.440625 0.755
vt 0.434375 0.595
vt 0.409375 0.595
vt 0.440625 0.755
vt 0.471875 0.755
vt 0.465625 0.595
vt 0.440625 0.595
vt 0.20625 0.63
vt 0.23125 0.63
vt 0.23125 0.565
vt 0.20625 0.565
vt 0.20625 0.565
vt 0.23125 0.565
vt 0.23125 0.5549999999999999
vt 0.20625 0.5549999999999999
vt 0.20625 0.44499999999999995
vt 0.20625 0.5549999999999999
vt 0.23125 0.5549999999999999
vt 0.23125 0.44499999999999995
vt 0.1875 0.495
vt 0.2 0.5549999999999999
vt 0.20625 0.5549999999999999
vt 0.20625 0.44499999999999995
vt 0.1875 0.45499999999999996
vt 0.1875 0.495
vt 0.20625 0.44499999999999995
vt 0.25 0.495
vt 0.23125 0.44499999999999995
vt 0.23125 0.5549999999999999
vt 0.2375 0.5549999999999999
vt 0.25 0.495
vt 0.25 0.45499999999999996
vt 0.23125 0.44499999999999995
vt 0.23125 0.41500000000000004
vt 0.20625 0.41500000000000004
vt 0.20625 0.44499999999999995
vt 0.23125 0.44499999999999995
vt 0.05 0.62
vt 0.0625 0.62
vt 0.0625 0.52
vt 0.05 0.52
vt 0.734375 0.95
vt 0.790625 0.99
vt 0.784375 0.95
vt 0.734375 0.95
vt 0.784375 0.95
vt 0.771875 0.94
vt 0.734375 0.95
vt 0.771875 0.94
vt 0.734375 0.94
vt 0.696875 0.95
vt 0.734375 0.95
vt 0.734375 0.94
vt 0.696875 0.94
vt 0.696875 0.95
vt 0.696875 0.94
vt 0.659375 0.94
vt 0.696875 0.95
vt 0.659375 0.94
vt 0.646875 0.95
vt 0.696875 0.95
vt 0.646875 0.95
vt 0.640625 0.99
vt 0.59375 0.99
vt 0.63125 0.99
vt 0.63125 0.95
vt 0.59375 0.95
vt 0.59375 0.95
vt 0.63125 0.95
vt 0.63125 0.9299999999999999
vt 0.59375 0.9299999999999999
vt 0.7375 0.925
vt 0.775 0.925
vt 0.76875 0.785
vt 0.7375 0.785
vt 0.7 0.925
vt 0.7375 0.925
vt 0.73125 0.785
vt 0.7 0.785
vt 0.6625 0.925
vt 0.7 0.925
vt 0.7 0.785
vt 0.66875 0.785
vt 0.625 0.925
vt 0.6625 0.925
vt 0.6625 0.785
vt 0.63125 0.785
vt 0.7375 0.77
vt 0.76875 0.77
vt 0.7625 0.61
vt 0.7375 0.61
vt 0.70625 0.77
vt 0.7375 0.77
vt 0.73125 0.61
vt 0.70625 0.61
vt 0.675 0.77
vt 0.70625 0.77
vt 0.70625 0.61
vt 0.68125 0.61
vt 0.64375 0.77
vt 0.675 0.77
vt 0.675 0.61
vt 0.65 0.61
vt 0.290625 0.63
vt 0.315625 0.63
vt 0.315625 0.565
vt 0.290625 0.565
vt 0.290625 0.565
vt 0.315625 0.565
vt 0.315625 0.5549999999999999
vt 0.290625 0.5549999999999999
vt 0.290625 0.44499999999999995
vt 0.290625 0.5549999999999999
vt 0.315625 0.5549999999999999
vt 0.315625 0.44499999999999995
vt 0.315625 0.41500000000000004
vt 0.290625 0.41500000000000004
vt 0.290625 0.44499999999999995
vt 0.315625 0.44499999999999995
vt 0.271875 0.495
vt 0.284375 0.5549999999999999
vt 0.290625 0.5549999999999999
vt 0.290625 0.44499999999999995
vt 0.271875 0.45499999999999996
vt 0.271875 0.495
vt 0.290625 0.44499999999999995
vt 0.334375 0.495
vt 0.315625 0.44499999999999995
vt 0.315625 0.5549999999999999
vt 0.321875 0.5549999999999999
vt 0.334375 0.495
vt 0.334375 0.45499999999999996
vt 0.315625 0.44499999999999995
vt 0.346875 0.42500000000000004
vt 0.359375 0.385
vt 0.346875 0.375
vt 0.346875 0.42500000000000004
vt 0.359375 0.42500000000000004
vt 0.359375 0.385
vt 0.346875 0.42500000000000004
vt 0.359375 0.46499999999999997
vt 0.359375 0.42500000000000004
vt 0.346875 0.42500000000000004
vt 0.346875 0.46499999999999997
vt 0.359375 0.46499999999999997
vt 0.346875 0.46499999999999997
vt 0.359375 0.505
vt 0.359375 0.46499999999999997
vt 0.346875 0.46499999999999997
vt 0.346875 0.515
vt 0.359375 0.505
vt 0.346875 0.5549999999999999
vt 0.359375 0.515
vt 0.346875 0.515
vt 0.346875 0.5549999999999999
vt 0.359375 0.5549999999999999
vt 0.359375 0.515
vt 0.359375 0.42500000000000004
vt 0.371875 0.42500000000000004
vt 0.359375 0.385
vt 0.371875 0.42500000000000004
vt 0.409375 0.385
vt 0.359375 0.385
vt 0.371875 0.42500000000000004
vt 0.409375 0.42500000000000004
vt 0.409375 0.385
vt 0.359375 0.46499999999999997
vt 0.371875 0.42500000000000004
vt 0.359375 0.42500000000000004
vt 0.359375 0.46499999999999997
vt 0.371875 0.46499999999999997
vt 0.371875 0.42500000000000004
vt 0.371875 0.46499999999999997
vt 0.409375 0.42500000000000004
vt 0.371875 0.42500000000000004
vt 0.371875 0.46499999999999997
vt 0.409375 0.46499999999999997
vt 0.409375 0.42500000000000004
vt 0.359375 0.505
vt 0.371875 0.46499999999999997
vt 0.359375 0.46499999999999997
vt 0.359375 0.505
vt 0.409375 0.46499999999999997
vt 0.371875 0.46499999999999997
vt 0.359375 0.505
vt 0.409375 0.505
vt 0.409375 0.46499999999999997
vt 0.359375 0.5549999999999999
vt 0.409375 0.515
vt 0.359375 0.515
vt 0.359375 0.5549999999999999
vt 0.409375 0.5549999999999999
vt 0.409375 0.515
vt 0.409375 0.42500000000000004
vt 0.459375 0.385
vt 0.409375 0.385
vt 0.409375 0.42500000000000004
vt 0.459375 0.405
vt 0.459375 0.385
vt 0.409375 0.46499999999999997
vt 0.459375 0.42500000000000004
vt 0.409375 0.42500000000000004
vt 0.409375 0.46499999999999997
vt 0.459375 0.45499999999999996
vt 0.459375 0.42500000000000004
vt 0.409375 0.505
vt 0.459375 0.485
vt 0.409375 0.46499999999999997
vt 0.409375 0.505
vt 0.459375 0.505
vt 0.459375 0.485
vt 0.409375 0.5549999999999999
vt 0.459375 0.525
vt 0.409375 0.515
vt 0.409375 0.5549999999999999
vt 0.459375 0.5549999999999999
vt 0.459375 0.525
vt 0.459375 0.405
vt 0.484375 0.41500000000000004
vt 0.484375 0.385
vt 0.459375 0.385
vt 0.459375 0.45499999999999996
vt 0.484375 0.46499999999999997
vt 0.484375 0.42500000000000004
vt 0.459375 0.42500000000000004
vt 0.459375 0.505
vt 0.484375 0.505
vt 0.484375 0.475
vt 0.459375 0.485
vt 0.459375 0.5549999999999999
vt 0.484375 0.5549999999999999
vt 0.484375 0.515
vt 0.459375 0.525
vt 0.484375 0.385
vt 0.484375 0.41500000000000004
vt 0.509375 0.41500000000000004
vt 0.509375 0.385
vt 0.775 0.38
vt 0.7875 0.42000000000000004
vt 0.7875 0.37
vt 0.775 0.38
vt 0.775 0.42000000000000004
vt 0.7875 0.42000000000000004
vt 0.775 0.45999999999999996
vt 0.7875 0.42000000000000004
vt 0.775 0.42000000000000004
vt 0.775 0.45999999999999996
vt 0.7875 0.45999999999999996
vt 0.7875 0.42000000000000004
vt 0.775 0.5
vt 0.7875 0.45999999999999996
vt 0.775 0.45999999999999996
vt 0.775 0.5
vt 0.7875 0.51
vt 0.7875 0.45999999999999996
vt 0.7875 0.5549999999999999
vt 0.7875 0.515
vt 0.775 0.515
vt 0.7875 0.5549999999999999
vt 0.775 0.515
vt 0.775 0.5549999999999999
vt 0.7625 0.42000000000000004
vt 0.775 0.42000000000000004
vt 0.775 0.38
vt 0.7625 0.42000000000000004
vt 0.775 0.38
vt 0.725 0.38
vt 0.7625 0.42000000000000004
vt 0.725 0.38
vt 0.725 0.42000000000000004
vt 0.7625 0.42000000000000004
vt 0.775 0.45999999999999996
vt 0.775 0.42000000000000004
vt 0.7625 0.42000000000000004
vt 0.7625 0.45999999999999996
vt 0.775 0.45999999999999996
vt 0.725 0.42000000000000004
vt 0.7625 0.45999999999999996
vt 0.7625 0.42000000000000004
vt 0.725 0.42000000000000004
vt 0.725 0.45999999999999996
vt 0.7625 0.45999999999999996
vt 0.7625 0.45999999999999996
vt 0.775 0.5
vt 0.775 0.45999999999999996
vt 0.725 0.45999999999999996
vt 0.775 0.5
vt 0.7625 0.45999999999999996
vt 0.725 0.45999999999999996
vt 0.725 0.5
vt 0.775 0.5
vt 0.725 0.515
vt 0.775 0.5549999999999999
vt 0.775 0.515
vt 0.725 0.515
vt 0.725 0.5549999999999999
vt 0.775 0.5549999999999999
vt 0.675 0.38
vt 0.725 0.42000000000000004
vt 0.725 0.38
vt 0.675 0.38
vt 0.675 0.4
vt 0.725 0.42000000000000004
vt 0.675 0.42000000000000004
vt 0.725 0.45999999999999996
vt 0.725 0.42000000000000004
vt 0.675 0.42000000000000004
vt 0.675 0.44999999999999996
vt 0.725 0.45999999999999996
vt 0.675 0.48
vt 0.725 0.5
vt 0.725 0.45999999999999996
vt 0.675 0.48
vt 0.675 0.5
vt 0.725 0.5
vt 0.675 0.525
vt 0.725 0.5549999999999999
vt 0.725 0.515
vt 0.675 0.525
vt 0.675 0.5549999999999999
vt 0.725 0.5549999999999999
vt 0.65 0.41000000000000003
vt 0.675 0.4
vt 0.675 0.38
vt 0.65 0.38
vt 0.65 0.45999999999999996
vt 0.675 0.44999999999999996
vt 0.675 0.42000000000000004
vt 0.65 0.42000000000000004
vt 0.65 0.5
vt 0.675 0.5
vt 0.675 0.48
vt 0.65 0.47
vt 0.65 0.5549999999999999
vt 0.675 0.5549999999999999
vt 0.675 0.525
vt 0.65 0.515
vt 0.65 0.41000000000000003
vt 0.65 0.38
vt 0.625 0.38
vt 0.625 0.41000000000000003
vt 0.496875 0.925
vt 0.496875 0.895
vt 0.478125 0.885
vt 0.478125 0.935
vt 0.496875 0.925
vt 0.521875 0.925
vt 0.521875 0.895
vt 0.496875 0.895
vt 0.496875 0.895
vt 0.521875 0.895
vt 0.509375 0.855
vt 0.496875 0.895
vt 0.509375 0.855
vt 0.4875 0.865
vt 0.521875 0.895
vt 0.528125 0.865
vt 0.50625 0.855
vt 0.521875 0.895
vt 0.521875 0.925
vt 0.540625 0.935
vt 0.540625 0.885
vt 0.521875 0.925
vt 0.496875 0.925
vt 0.509375 0.965
vt 0.521875 0.925
vt 0.509375 0.965
vt 0.53125 0.955
vt 0.496875 0.925
vt 0.490625 0.955
vt 0.5125 0.965
vt 0.48125 0.755
vt 0.503125 0.755
vt 0.503125 0.7050000000000001
vt 0.48125 0.7050000000000001
vt 0.503125 0.755
vt 0.534375 0.755
vt 0.534375 0.7050000000000001
vt 0.503125 0.7050000000000001
vt 0.534375 0.755
vt 0.55625 0.755
vt 0.55625 0.6950000000000001
vt 0.534375 0.7050000000000001
vt 0.55625 0.755
vt 0.578125 0.755
vt 0.578125 0.7050000000000001
vt 0.55625 0.6950000000000001
vt 0.578125 0.755
vt 0.609375 0.755
vt 0.609375 0.7050000000000001
vt 0.578125 0.7050000000000001
vt 0.609375 0.755
vt 0.63125 0.755
vt 0.63125 0.7050000000000001
vt 0.609375 0.7050000000000001
vt 0.559375 0.54
vt 0.571875 0.52
vt 0.546875 0.52
vt 0.503125 0.7050000000000001
vt 0.534375 0.7050000000000001
vt 0.534375 0.69
vt 0.509375 0.69
vt 0.48125 0.7050000000000001
vt 0.503125 0.7050000000000001
vt 0.5 0.685
vt 0.534375 0.7
vt 0.55625 0.69
vt 0.5375 0.69
vt 0.55625 0.69
vt 0.578125 0.7050000000000001
vt 0.575 0.69
vt 0.578125 0.7050000000000001
vt 0.609375 0.7050000000000001
vt 0.603125 0.69
vt 0.578125 0.69
vt 0.609375 0.7050000000000001
vt 0.63125 0.7050000000000001
vt 0.6125 0.69
vt 0.559375 0.565
vt 0.546875 0.595
vt 0.571875 0.595
vt 0.546875 0.52
vt 0.571875 0.52
vt 0.559375 0.49
vt 0.534375 0.575
vt 0.534375 0.5349999999999999
vt 0.521875 0.5549999999999999
vt 0.546875 0.52
vt 0.559375 0.49
vt 0.53125 0.5
vt 0.571875 0.52
vt 0.584375 0.5
vt 0.559375 0.49
vt 0.584375 0.5349999999999999
vt 0.584375 0.575
vt 0.596875 0.5549999999999999
vt 0.571875 0.595
vt 0.546875 0.595
vt 0.559375 0.625
vt 0.571875 0.595
vt 0.559375 0.625
vt 0.584375 0.615
vt 0.546875 0.595
vt 0.534375 0.615
vt 0.559375 0.625

# Groups

g Group79

f 1/1 3/3 2/2
f 4/4 6/6 5/5
f 7/7 9/9 8/8
f 10/10 12/12 11/11
f 13/13 15/15 14/14
f 16/16 18/18 17/17
f 19/19 21/21 20/20
f 22/22 24/24 23/23
f 25/25 27/27 26/26
f 28/28 30/30 29/29
f 31/31 33/33 32/32
f 34/34 36/36 35/35
f 37/37 39/39 38/38
f 40/40 42/42 41/41
f 43/43 45/45 44/44
f 46/46 48/48 47/47
f 49/49 51/51 50/50
f 52/52 54/54 53/53
f 55/55 57/57 56/56
f 58/58 60/60 59/59
f 61/61 63/63 62/62
f 64/64 66/66 65/65
f 103/103 105/105 104/104
f 106/106 108/108 107/107
f 109/109 111/111 110/110
f 112/112 114/114 113/113
f 115/115 117/117 116/116
f 118/118 120/120 119/119

g Group82

f 67/67 69/69 68/68
f 70/70 72/72 71/71
f 73/73 75/75 74/74
f 76/76 78/78 77/77
f 79/79 81/81 80/80
f 82/82 84/84 83/83
f 85/85 87/87 86/86
f 88/88 90/90 89/89
f 91/91 93/93 92/92
f 94/94 96/96 95/95
f 97/97 99/99 98/98
f 100/100 102/102 101/101
f 121/121 123/123 122/122
f 124/124 126/126 125/125
f 127/127 129/129 128/128
f 130/130 132/132 131/131
f 130/130 133/133 132/132
f 134/134 136/136 135/135
f 137/137 139/139 138/138
f 140/140 142/142 141/141
f 143/143 145/145 144/144
f 143/143 146/146 145/145
f 147/147 149/149 148/148
f 147/147 150/150 149/149
f 213/213 215/215 214/214
f 213/213 216/216 215/215
f 217/217 219/219 218/218
f 220/220 222/222 221/221
f 223/223 225/225 224/224
f 226/226 228/228 227/227
f 226/226 229/229 228/228
f 230/230 232/232 231/231
f 233/233 235/235 234/234
f 236/236 238/238 237/237
f 239/239 241/241 240/240
f 239/239 242/242 241/241
f 243/243 245/245 244/244
f 243/243 246/246 245/245

g Group83

f 151/151 153/153 152/152
f 151/151 154/154 153/153
f 155/155 157/157 156/156
f 155/155 158/158 157/157
f 159/159 161/161 160/160
f 159/159 162/162 161/161
f 163/163 165/165 164/164
f 163/163 166/166 165/165
f 167/167 169/169 168/168
f 167/167 170/170 169/169
f 171/171 173/173 172/172
f 171/171 174/174 173/173
f 175/175 177/177 176/176
f 175/175 178/178 177/177
f 179/179 181/181 180/180
f 179/179 182/182 181/181
f 183/183 185/185 184/184
f 183/183 186/186 185/185
f 187/187 189/189 188/188
f 187/187 190/190 189/189
f 191/191 193/193 192/192
f 191/191 194/194 193/193
f 195/195 197/197 196/196
f 195/195 198/198 197/197
f 199/199 201/201 200/200
f 202/202 204/204 203/203
f 202/202 205/205 204/204
f 206/206 208/208 207/207
f 209/209 211/211 210/210
f 209/209 212/212 211/211
f 247/247 249/249 248/248
f 247/247 250/250 249/249
f 251/251 253/253 252/252
f 251/251 254/254 253/253
f 255/255 257/257 256/256
f 255/255 258/258 257/257
f 259/259 261/261 260/260
f 259/259 262/262 261/261
f 263/263 265/265 264/264
f 263/263 266/266 265/265
f 267/267 269/269 268/268
f 267/267 270/270 269/269
f 271/271 273/273 272/272
f 271/271 274/274 273/273
f 275/275 277/277 276/276
f 275/275 278/278 277/277
f 279/279 281/281 280/280
f 279/279 282/282 281/281
f 283/283 285/285 284/284
f 283/283 286/286 285/285
f 287/287 289/289 288/288
f 287/287 290/290 289/289
f 291/291 293/293 292/292
f 291/291 294/294 293/293
f 295/295 297/297 296/296
f 295/295 298/298 297/297
f 299/299 301/301 300/300
f 302/302 304/304 303/303
f 302/302 305/305 304/304
f 306/306 308/308 307/307

g Group80

f 309/309 311/311 310/310
f 312/312 314/314 313/313
f 315/315 317/317 316/316
f 318/318 320/320 319/319
f 321/321 323/323 322/322
f 324/324 326/326 325/325
f 327/327 329/329 328/328
f 330/330 332/332 331/331
f 333/333 335/335 334/334
f 336/336 338/338 337/337
f 339/339 341/341 340/340
f 342/342 344/344 343/343
f 345/345 347/347 346/346
f 348/348 350/350 349/349
f 351/351 353/353 352/352
f 354/354 356/356 355/355
f 357/357 359/359 358/358
f 360/360 362/362 361/361
f 363/363 365/365 364/364
f 366/366 368/368 367/367
f 413/413 415/415 414/414
f 416/416 418/418 417/417
f 419/419 421/421 420/420
f 422/422 424/424 423/423
f 425/425 427/427 426/426
f 428/428 430/430 429/429
f 431/431 433/433 432/432
f 434/434 436/436 435/435
f 437/437 439/439 438/438
f 440/440 442/442 441/441
f 443/443 445/445 444/444
f 446/446 448/448 447/447
f 449/449 451/451 450/450
f 452/452 454/454 453/453
f 455/455 457/457 456/456
f 458/458 460/460 459/459
f 461/461 463/463 462/462
f 464/464 466/466 465/465
f 467/467 469/469 468/468
f 470/470 472/472 471/471

g Group81

f 369/369 371/371 370/370
f 372/372 374/374 373/373
f 375/375 377/377 376/376
f 378/378 380/380 379/379
f 381/381 383/383 382/382
f 384/384 386/386 385/385
f 387/387 389/389 388/388
f 390/390 392/392 391/391
f 393/393 395/395 394/394
f 393/393 396/396 395/395
f 397/397 399/399 398/398
f 397/397 400/400 399/399
f 401/401 403/403 402/402
f 401/401 404/404 403/403
f 405/405 407/407 406/406
f 405/405 408/408 407/407
f 409/409 411/411 410/410
f 409/409 412/412 411/411
f 473/473 475/475 474/474
f 476/476 478/478 477/477
f 479/479 481/481 480/480
f 482/482 484/484 483/483
f 485/485 487/487 486/486
f 488/488 490/490 489/489
f 491/491 493/493 492/492
f 494/494 496/496 495/495
f 497/497 499/499 498/498
f 497/497 500/500 499/499
f 501/501 503/503 502/502
f 501/501 504/504 503/503
f 505/505 507/507 506/506
f 505/505 508/508 507/507
f 509/509 511/511 510/510
f 509/509 512/512 511/511
f 513/513 515/515 514/514
f 513/513 516/516 515/515

g Group78

f 517/517 519/519 518/518
f 517/517 520/520 519/519
f 521/521 523/523 522/522
f 521/521 524/524 523/523
f 525/525 527/527 526/526
f 528/528 530/530 529/529
f 531/531 533/533 532/532
f 534/534 536/536 535/535
f 534/534 537/537 536/536
f 538/538 540/540 539/539
f 541/541 543/543 542/542
f 544/544 546/546 545/545
f 547/547 549/549 548/548
f 547/547 550/550 549/549
f 551/551 553/553 552/552
f 551/551 554/554 553/553
f 555/555 557/557 556/556
f 555/555 558/558 557/557
f 559/559 561/561 560/560
f 559/559 562/562 561/561
f 563/563 565/565 564/564
f 563/563 566/566 565/565
f 567/567 569/569 568/568
f 567/567 570/570 569/569
f 571/571 573/573 572/572
f 574/574 576/576 575/575
f 574/574 577/577 576/576
f 578/578 580/580 579/579
f 581/581 583/583 582/582
f 584/584 586/586 585/585
f 587/587 589/589 588/588
f 587/587 590/590 589/589
f 591/591 593/593 592/592
f 594/594 596/596 595/595
f 597/597 599/599 598/598
f 600/600 602/602 601/601
f 603/603 605/605 604/604
f 606/606 608/608 607/607
f 609/609 611/611 610/610
f 612/612 614/614 613/613
f 615/615 617/617 616/616
f 618/618 620/620 619/619
