# Vertices

v -32 64 -160
v 32 64 -160
v 32 0 -160
v -32 0 -160
v 32 64 -160
v 32 64 -96
v 32 0 -96
v 32 0 -160
v 32 64 -96
v 96 64 -96
v 96 0 -96
v 32 0 -96
v 96 64 -96
v 96 64 -32
v 96 0 -32
v 96 0 -96
v 96 64 -32
v 160 64 -32
v 160 0 -32
v 96 0 -32
v 160 64 -32
v 160 64 32
v 160 0 32
v 160 0 -32
v 160 64 32
v 96 64 32
v 96 0 32
v 160 0 32
v 96 64 32
v 96 64 96
v 96 0 96
v 96 0 32
v 96 64 96
v 32 64 96
v 32 0 96
v 96 0 96
v 32 64 96
v 32 64 160
v 32 0 160
v 32 0 96
v 32 64 160
v -32 64 160
v -32 0 160
v 32 0 160
v -32 64 160
v -32 64 96
v -32 0 96
v -32 0 160
v -32 64 96
v -96 64 96
v -96 0 96
v -32 0 96
v -96 64 96
v -96 64 32
v -96 0 32
v -96 0 96
v -96 64 32
v -96 64 -32
v -96 0 -32
v -96 0 32
v -96 64 -32
v -96 64 -96
v -96 0 -96
v -96 0 -32
v -96 64 -96
v -32 64 -96
v -32 0 -96
v -96 0 -96
v -32 64 -96
v -32 64 -160
v -32 0 -160
v -32 0 -96
v -32 0 -160
v 32 0 -160
v 32 0 -96
v -32 0 -96
v -96 0 -96
v -32 0 -96
v -32 0 -32
v -96 0 -32
v -32 0 -96
v 32 0 -96
v 32 0 -32
v -32 0 -32
v 32 0 -96
v 96 0 -96
v 96 0 -32
v 32 0 -32
v -96 0 -32
v -32 0 -32
v -32 0 32
v -96 0 32
v -32 0 -32
v 32 0 -32
v 32 0 32
v -32 0 32
v 32 0 -32
v 96 0 -32
v 96 0 32
v 32 0 32
v 96 0 -32
v 160 0 -32
v 160 0 32
v 96 0 32
v -96 0 32
v -32 0 32
v -32 0 96
v -96 0 96
v -32 0 32
v 32 0 32
v 32 0 96
v -32 0 96
v 32 0 32
v 96 0 32
v 96 0 96
v 32 0 96
v -32 0 96
v 32 0 96
v 32 0 160
v -32 0 160
v -32 64 -160
v 32 64 -160
v 32 64 -96
v -32 64 -96
v -96 64 -96
v -32 64 -96
v -32 64 -32
v -96 64 -32
v -32 64 -96
v 32 64 -96
v 32 64 -32
v -32 64 -32
v 32 64 -96
v 96 64 -96
v 96 64 -32
v 32 64 -32
v -96 64 -32
v -32 64 -32
v -32 64 32
v -96 64 32
v -32 64 -32
v 32 64 -32
v 32 64 32
v -32 64 32
v 32 64 -32
v 96 64 -32
v 96 64 32
v 32 64 32
v 96 64 -32
v 160 64 -32
v 160 64 32
v 96 64 32
v -96 64 32
v -32 64 32
v -32 64 96
v -96 64 96
v -32 64 32
v 32 64 32
v 32 64 96
v -32 64 96
v 32 64 32
v 96 64 32
v 96 64 96
v 32 64 96
v -32 64 96
v 32 64 96
v 32 64 160
v -32 64 160

# Texture Coordinates

vt 0.2 0.6799999999999999
vt 0.396875 0.6799999999999999
vt 0.396875 0.365
vt 0.2 0.365
vt 0 1
vt 0.196875 1
vt 0.196875 0.685
vt 0 0.685
vt 0.2 0.84
vt 0.396875 0.84
vt 0.396875 0.525
vt 0.2 0.525
vt 0.2 0.84
vt 0.396875 0.84
vt 0.396875 0.525
vt 0.2 0.525
vt 0 1
vt 0.196875 1
vt 0.196875 0.685
vt 0 0.685
vt 0.2 0.6799999999999999
vt 0.396875 0.6799999999999999
vt 0.396875 0.365
vt 0.2 0.365
vt 0 1
vt 0.196875 1
vt 0.196875 0.685
vt 0 0.685
vt 0.2 0.84
vt 0.396875 0.84
vt 0.396875 0.525
vt 0.2 0.525
vt 0.2 0.84
vt 0.396875 0.84
vt 0.396875 0.525
vt 0.2 0.525
vt 0 1
vt 0.196875 1
vt 0.196875 0.685
vt 0 0.685
vt 0.2 0.6799999999999999
vt 0.396875 0.6799999999999999
vt 0.396875 0.365
vt 0.2 0.365
vt 0 1
vt 0.196875 1
vt 0.196875 0.685
vt 0 0.685
vt 0.2 0.84
vt 0.396875 0.84
vt 0.396875 0.525
vt 0.2 0.525
vt 0 1
vt 0.196875 1
vt 0.196875 0.685
vt 0 0.685
vt 0.2 0.84
vt 0.396875 0.84
vt 0.396875 0.525
vt 0.2 0.525
vt 0 1
vt 0.196875 1
vt 0.196875 0.685
vt 0 0.685
vt 0.2 0.84
vt 0.396875 0.84
vt 0.396875 0.525
vt 0.2 0.525
vt 0 1
vt 0.196875 1
vt 0.196875 0.685
vt 0 0.685
vt 0 1
vt 0.196875 1
vt 0.196875 0.685
vt 0 0.685
vt 0 1
vt 0.196875 1
vt 0.196875 0.685
vt 0 0.685
vt 0 1
vt 0.196875 1
vt 0.196875 0.685
vt 0 0.685
vt 0 1
vt 0.196875 1
vt 0.196875 0.685
vt 0 0.685
vt 0 1
vt 0.196875 1
vt 0.196875 0.685
vt 0 0.685
vt 0 1
vt 0.196875 1
vt 0.196875 0.685
vt 0 0.685
vt 0 1
vt 0.196875 1
vt 0.196875 0.685
vt 0 0.685
vt 0 1
vt 0.196875 1
vt 0.196875 0.685
vt 0 0.685
vt 0 1
vt 0.196875 1
vt 0.196875 0.685
vt 0 0.685
vt 0 1
vt 0.196875 1
vt 0.196875 0.685
vt 0 0.685
vt 0 1
vt 0.196875 1
vt 0.196875 0.685
vt 0 0.685
vt 0 1
vt 0.196875 1
vt 0.196875 0.685
vt 0 0.685
vt 0 1
vt 0.196875 1
vt 0.196875 0.685
vt 0 0.685
vt 0 1
vt 0.196875 1
vt 0.196875 0.685
vt 0 0.685
vt 0 1
vt 0.196875 1
vt 0.196875 0.685
vt 0 0.685
vt 0 1
vt 0.196875 1
vt 0.196875 0.685
vt 0 0.685
vt 0 1
vt 0.196875 1
vt 0.196875 0.685
vt 0 0.685
vt 0 1
vt 0.196875 1
vt 0.196875 0.685
vt 0 0.685
vt 0 1
vt 0.196875 1
vt 0.196875 0.685
vt 0 0.685
vt 0 1
vt 0.196875 1
vt 0.196875 0.685
vt 0 0.685
vt 0 1
vt 0.196875 1
vt 0.196875 0.685
vt 0 0.685
vt 0 1
vt 0.196875 1
vt 0.196875 0.685
vt 0 0.685
vt 0 1
vt 0.196875 1
vt 0.196875 0.685
vt 0 0.685
vt 0 1
vt 0.196875 1
vt 0.196875 0.685
vt 0 0.685

# Groups

g Group1

f 5/5 7/7 6/6
f 5/5 8/8 7/7
f 9/9 11/11 10/10
f 9/9 12/12 11/11
f 13/13 15/15 14/14
f 13/13 16/16 15/15
f 17/17 19/19 18/18
f 17/17 20/20 19/19
f 25/25 27/27 26/26
f 25/25 28/28 27/27
f 29/29 31/31 30/30
f 29/29 32/32 31/31
f 33/33 35/35 34/34
f 33/33 36/36 35/35
f 37/37 39/39 38/38
f 37/37 40/40 39/39
f 45/45 47/47 46/46
f 45/45 48/48 47/47
f 49/49 51/51 50/50
f 49/49 52/52 51/51
f 53/53 55/55 54/54
f 53/53 56/56 55/55
f 57/57 59/59 58/58
f 57/57 60/60 59/59
f 61/61 63/63 62/62
f 61/61 64/64 63/63
f 65/65 67/67 66/66
f 65/65 68/68 67/67
f 69/69 71/71 70/70
f 69/69 72/72 71/71

g Group5

f 73/73 75/75 74/74
f 73/73 76/76 75/75
f 77/77 79/79 78/78
f 77/77 80/80 79/79
f 81/81 83/83 82/82
f 81/81 84/84 83/83
f 85/85 87/87 86/86
f 85/85 88/88 87/87
f 89/89 91/91 90/90
f 89/89 92/92 91/91
f 93/93 95/95 94/94
f 93/93 96/96 95/95
f 97/97 99/99 98/98
f 97/97 100/100 99/99
f 101/101 103/103 102/102
f 101/101 104/104 103/103
f 105/105 107/107 106/106
f 105/105 108/108 107/107
f 109/109 111/111 110/110
f 109/109 112/112 111/111
f 113/113 115/115 114/114
f 113/113 116/116 115/115
f 117/117 119/119 118/118
f 117/117 120/120 119/119

g Group2

f 124/124 122/122 123/123
f 124/124 121/121 122/122
f 128/128 126/126 127/127
f 128/128 125/125 126/126
f 132/132 130/130 131/131
f 132/132 129/129 130/130
f 136/136 134/134 135/135
f 136/136 133/133 134/134
f 140/140 138/138 139/139
f 140/140 137/137 138/138
f 144/144 142/142 143/143
f 144/144 141/141 142/142
f 148/148 146/146 147/147
f 148/148 145/145 146/146
f 152/152 150/150 151/151
f 152/152 149/149 150/150
f 156/156 154/154 155/155
f 156/156 153/153 154/154
f 160/160 158/158 159/159
f 160/160 157/157 158/158
f 164/164 162/162 163/163
f 164/164 161/161 162/162
f 168/168 166/166 167/167
f 168/168 165/165 166/166
