# Vertices

v -32 64 -8
v -16 32 -8
v -16 0 -8
v -32 0 -8
v -32 64 -8
v 32 64 -8
v 16 32 -8
v -16 32 -8
v 32 64 -8
v 32 0 -8
v 16 0 -8
v 16 32 -8
v 32 64 8
v 16 32 8
v 16 0 8
v 32 0 8
v 32 64 8
v -32 64 8
v -16 32 8
v 16 32 8
v -32 64 8
v -32 0 8
v -16 0 8
v -16 32 8
v -16 0 -8
v 16 0 -8
v 16 0 8
v -16 0 8
v -16 32 -8
v 16 32 -8
v 16 32 8
v -16 32 8
v -16 32 8
v -16 32 -8
v -16 0 -8
v -16 0 8
v 16 32 -8
v 16 32 8
v 16 0 8
v 16 0 -8

# Texture Coordinates

vt 0 1
vt 0.046875 0.84
vt 0.046875 0.685
vt 0 0.685
vt 0 1
vt 0.196875 1
vt 0.146875 0.845
vt 0.05 0.845
vt 0.196875 1
vt 0.196875 0.685
vt 0.146875 0.685
vt 0.146875 0.845
vt 0 1
vt 0.046875 0.84
vt 0.046875 0.685
vt 0 0.685
vt 0 1
vt 0.196875 1
vt 0.146875 0.845
vt 0.05 0.845
vt 0.196875 1
vt 0.196875 0.685
vt 0.146875 0.685
vt 0.146875 0.845
vt 0.05 1
vt 0.146875 1
vt 0.146875 0.96
vt 0.05 0.96
vt 0.05 1
vt 0.146875 1
vt 0.146875 0.96
vt 0.05 0.96
vt 0 1
vt 0.025 1
vt 0.025 0.845
vt 0 0.845
vt 0 1
vt 0.025 1
vt 0.025 0.845
vt 0 0.845

# Groups

g Group1

f 4/4 2/2 3/3
f 4/4 1/1 2/2
f 8/8 6/6 7/7
f 8/8 5/5 6/6
f 12/12 10/10 11/11
f 12/12 9/9 10/10
f 16/16 14/14 15/15
f 16/16 13/13 14/14
f 20/20 18/18 19/19
f 20/20 17/17 18/18
f 24/24 22/22 23/23
f 24/24 21/21 22/22
f 33/33 35/35 34/34
f 33/33 36/36 35/35
f 37/37 39/39 38/38
f 37/37 40/40 39/39

g Group2

f 32/32 30/30 31/31
f 32/32 29/29 30/30
