# Vertices

v -64 64 64
v 0 64 64
v 0 0 64
v -64 0 64
v 0 64 64
v 64 64 64
v 64 0 64
v 0 0 64
v 64 64 64
v 64 64 0
v 64 0 0
v 64 0 64
v 64 64 0
v 64 64 -64
v 64 0 -64
v 64 0 0
v 64 64 -64
v 0 64 -64
v 0 0 -64
v 64 0 -64
v 0 64 -64
v -64 64 -64
v -64 0 -64
v 0 0 -64
v -64 64 -64
v -64 64 0
v -64 0 0
v -64 0 -64
v -64 64 0
v -64 64 64
v -64 0 64
v -64 0 0
v -64 96 0
v 0 96 0
v 0 64 64
v -64 64 64
v 0 96 0
v 64 96 0
v 64 64 64
v 0 64 64
v 64 96 0
v 64 64 0
v 64 64 64
v 64 96 0
v 64 64 -64
v 64 64 0
v 64 96 0
v 0 96 0
v 0 64 -64
v 64 64 -64
v 0 96 0
v -64 96 0
v -64 64 -64
v 0 64 -64
v -64 96 0
v -64 64 0
v -64 64 -64
v -64 96 0
v -64 64 64
v -64 64 0

# Texture Coordinates

vt 0.2 0.6799999999999999
vt 0.396875 0.6799999999999999
vt 0.396875 0.365
vt 0.2 0.365
vt 0.2 1
vt 0.396875 1
vt 0.396875 0.685
vt 0.2 0.685
vt 0.2 1
vt 0.396875 1
vt 0.396875 0.685
vt 0.2 0.685
vt 0.396875 1
vt 0.2 1
vt 0.2 0.685
vt 0.396875 0.685
vt 0.2 1
vt 0.396875 1
vt 0.396875 0.685
vt 0.2 0.685
vt 0.2 1
vt 0.396875 1
vt 0.396875 0.685
vt 0.2 0.685
vt 0 1
vt 0.196875 1
vt 0.196875 0.685
vt 0 0.685
vt 0 1
vt 0.196875 1
vt 0.196875 0.685
vt 0 0.685
vt 0 1
vt 0.196875 1
vt 0.196875 0.685
vt 0 0.685
vt 0 1
vt 0.196875 1
vt 0.196875 0.685
vt 0 0.685
vt 0.196875 0.84
vt 0.196875 0.685
vt 0 0.685
vt 0 0.84
vt 0.196875 0.685
vt 0 0.685
vt 0 1
vt 0.196875 1
vt 0.196875 0.685
vt 0 0.685
vt 0 1
vt 0.196875 1
vt 0.196875 0.685
vt 0 0.685
vt 0.196875 0.84
vt 0.196875 0.685
vt 0 0.685
vt 0 0.84
vt 0.196875 0.685
vt 0 0.685

# Groups

g Group1

f 1/1 3/3 2/2
f 1/1 4/4 3/3
f 5/5 7/7 6/6
f 5/5 8/8 7/7
f 9/9 11/11 10/10
f 9/9 12/12 11/11
f 13/13 15/15 14/14
f 13/13 16/16 15/15
f 17/17 19/19 18/18
f 17/17 20/20 19/19
f 21/21 23/23 22/22
f 21/21 24/24 23/23
f 25/25 27/27 26/26
f 25/25 28/28 27/27
f 29/29 31/31 30/30
f 29/29 32/32 31/31
f 41/41 43/43 42/42
f 44/44 46/46 45/45
f 55/55 57/57 56/56
f 58/58 60/60 59/59

g Group2

f 33/33 35/35 34/34
f 33/33 36/36 35/35
f 37/37 39/39 38/38
f 37/37 40/40 39/39
f 47/47 49/49 48/48
f 47/47 50/50 49/49
f 51/51 53/53 52/52
f 51/51 54/54 53/53
