# Vertices

v -64 32 32
v 0 32 32
v 0 0 32
v -64 0 32
v 0 32 32
v 64 32 32
v 64 0 32
v 0 0 32
v 64 64 0
v 64 32 -32
v 64 0 -32
v 64 0 32
v 64 32 32
v 64 32 -32
v 0 32 -32
v 0 0 -32
v 64 0 -32
v 0 32 -32
v -64 32 -32
v -64 0 -32
v 0 0 -32
v -64 64 0
v -64 32 32
v -64 0 32
v -64 0 -32
v -64 32 -32
v -64 64 0
v 0 64 0
v 0 32 32
v -64 32 32
v 0 64 0
v 64 64 0
v 64 32 32
v 0 32 32
v 64 64 0
v 0 64 0
v 0 32 -32
v 64 32 -32
v 0 64 0
v -64 64 0
v -64 32 -32
v 0 32 -32

# Texture Coordinates

vt 0.2 0.52
vt 0.396875 0.52
vt 0.396875 0.365
vt 0.2 0.365
vt 0.2 0.84
vt 0.396875 0.84
vt 0.396875 0.685
vt 0.2 0.685
vt 0.1 1
vt 0.196875 0.84
vt 0.196875 0.685
vt 0 0.685
vt 0 0.84
vt 0.2 0.84
vt 0.396875 0.84
vt 0.396875 0.685
vt 0.2 0.685
vt 0.2 1
vt 0.396875 1
vt 0.396875 0.84
vt 0.2 0.84
vt 0.1 1
vt 0.196875 0.84
vt 0.196875 0.685
vt 0 0.685
vt 0 0.84
vt 0 1
vt 0.196875 1
vt 0.196875 0.845
vt 0 0.845
vt 0 1
vt 0.196875 1
vt 0.196875 0.845
vt 0 0.845
vt 0 1
vt 0.196875 1
vt 0.196875 0.845
vt 0 0.845
vt 0 1
vt 0.196875 1
vt 0.196875 0.845
vt 0 0.845

# Groups

g Group1

f 1/1 3/3 2/2
f 1/1 4/4 3/3
f 5/5 7/7 6/6
f 5/5 8/8 7/7
f 9/9 11/11 10/10
f 9/9 12/12 11/11
f 9/9 13/13 12/12
f 14/14 16/16 15/15
f 14/14 17/17 16/16
f 18/18 20/20 19/19
f 18/18 21/21 20/20
f 22/22 24/24 23/23
f 22/22 25/25 24/24
f 22/22 26/26 25/25

g Group2

f 27/27 29/29 28/28
f 27/27 30/30 29/29
f 31/31 33/33 32/32
f 31/31 34/34 33/33
f 35/35 37/37 36/36
f 35/35 38/38 37/37
f 39/39 41/41 40/40
f 39/39 42/42 41/41
