# Vertices

v 8 7 -15
v -8 7 -15
v -8 0 -15
v 8 0 -15
v -8 7 15
v -8 0 15
v -8 0 -15
v -8 7 -15
v 8 0 15
v -8 0 15
v -8 7 15
v 8 7 15
v 8 7 15
v 8 7 -15
v 8 0 -15
v 8 0 15
v 8 7 15
v -8 7 15
v -8 7 -15
v 8 7 -15
v 8 0 -15
v -8 0 -15
v -8 0 15
v 8 0 15

# Texture Coordinates

vt 0.009375 0.985
vt 0.109375 0.985
vt 0.109375 0.915
vt 0.009375 0.915
vt 0.303125 0.985
vt 0.303125 0.915
vt 0.115625 0.915
vt 0.115625 0.985
vt 0.409375 0.915
vt 0.309375 0.915
vt 0.309375 0.985
vt 0.409375 0.985
vt 0.415625 0.985
vt 0.603125 0.985
vt 0.603125 0.915
vt 0.415625 0.915
vt 0.196875 0.9
vt 0.196875 0.74
vt 0.009375 0.74
vt 0.009375 0.9
vt 0.390625 0.9
vt 0.390625 0.74
vt 0.203125 0.74
vt 0.203125 0.9

# Groups

g Group0

f 1/1 3/3 2/2
f 1/1 4/4 3/3
f 5/5 7/7 6/6
f 5/5 8/8 7/7
f 9/9 11/11 10/10
f 9/9 12/12 11/11
f 13/13 15/15 14/14
f 13/13 16/16 15/15
f 17/17 19/19 18/18
f 17/17 20/20 19/19
f 21/21 23/23 22/22
f 21/21 24/24 23/23
