# Vertices

v 17 15 -8
v -17 15 -8
v -17 0 -8
v 17 0 -8
v 17 0 -8
v -17 0 -8
v -17 15 -8
v 17 15 -8
v -17 15 8
v -17 0 8
v -17 0 -8
v -17 15 -8
v -17 15 -8
v -17 0 -8
v -17 0 8
v -17 15 8
v 17 15 8
v -17 15 8
v -17 0 8
v 17 0 8
v 17 0 8
v -17 0 8
v -17 15 8
v 17 15 8
v 17 15 8
v 17 15 -8
v 17 0 -8
v 17 0 8
v 17 0 8
v 17 0 -8
v 17 15 -8
v 17 15 8
v 17 15 8
v -17 15 8
v -17 15 -8
v 17 15 -8
v 17 15 -8
v -17 15 -8
v -17 15 8
v 17 15 8
v 17 0 -8
v -17 0 -8
v -17 0 8
v 17 0 8
v 17 0 8
v -17 0 8
v -17 0 -8
v 17 0 -8

# Texture Coordinates

vt 0.009375 0.98
vt 0.221875 0.98
vt 0.221875 0.83
vt 0.009375 0.83
vt 0.009375 0.8200000000000001
vt 0.221875 0.8200000000000001
vt 0.221875 0.6699999999999999
vt 0.009375 0.6699999999999999
vt 0.328125 0.98
vt 0.328125 0.83
vt 0.228125 0.83
vt 0.228125 0.98
vt 0.228125 0.6699999999999999
vt 0.228125 0.8200000000000001
vt 0.328125 0.8200000000000001
vt 0.328125 0.6699999999999999
vt 0.546875 0.6699999999999999
vt 0.334375 0.6699999999999999
vt 0.334375 0.8200000000000001
vt 0.546875 0.8200000000000001
vt 0.546875 0.83
vt 0.334375 0.83
vt 0.334375 0.98
vt 0.546875 0.98
vt 0.553125 0.98
vt 0.653125 0.98
vt 0.653125 0.83
vt 0.553125 0.83
vt 0.553125 0.8200000000000001
vt 0.653125 0.8200000000000001
vt 0.653125 0.6699999999999999
vt 0.553125 0.6699999999999999
vt 0.225 0.495
vt 0.0125 0.495
vt 0.0125 0.655
vt 0.225 0.655
vt 0.234375 0.655
vt 0.446875 0.655
vt 0.446875 0.495
vt 0.234375 0.495
vt 0.66875 0.495
vt 0.45625 0.495
vt 0.45625 0.655
vt 0.66875 0.655
vt 0.778125 0.98
vt 0.778125 0.64
vt 0.678125 0.64
vt 0.678125 0.98

# Groups

g Group0

f 1/1 3/3 2/2
f 1/1 4/4 3/3
f 5/5 7/7 6/6
f 5/5 8/8 7/7
f 9/9 11/11 10/10
f 9/9 12/12 11/11
f 13/13 15/15 14/14
f 13/13 16/16 15/15
f 17/17 19/19 18/18
f 17/17 20/20 19/19
f 21/21 23/23 22/22
f 21/21 24/24 23/23
f 25/25 27/27 26/26
f 25/25 28/28 27/27
f 29/29 31/31 30/30
f 29/29 32/32 31/31
f 33/33 35/35 34/34
f 33/33 36/36 35/35
f 37/37 39/39 38/38
f 37/37 40/40 39/39
f 41/41 43/43 42/42
f 41/41 44/44 43/43
f 45/45 47/47 46/46
f 45/45 48/48 47/47
