# Vertices

v 5 15 2
v 7 10 3
v 3 10 7
v 2 15 5
v 2 15 5
v 3 10 7
v -3 10 7
v -2 15 5
v -2 15 5
v -3 10 7
v -7 10 3
v -5 15 2
v -5 15 2
v -7 10 3
v -7 10 -3
v -5 15 -2
v -5 15 -2
v -7 10 -3
v -3 10 -7
v -2 15 -5
v -2 15 -5
v -3 10 -7
v 3 10 -7
v 2 15 -5
v 2 15 -5
v 3 10 -7
v 7 10 -3
v 5 15 -2
v 5 15 -2
v 7 10 -3
v 7 10 3
v 5 15 2
v 7 10 3
v 7 5 3
v 3 5 7
v 3 10 7
v 3 10 7
v 3 5 7
v -3 5 7
v -3 10 7
v -3 10 7
v -3 5 7
v -7 5 3
v -7 10 3
v -7 10 3
v -7 5 3
v -7 5 -3
v -7 10 -3
v -7 10 -3
v -7 5 -3
v -3 5 -7
v -3 10 -7
v -3 10 -7
v -3 5 -7
v 3 5 -7
v 3 10 -7
v 3 10 -7
v 3 5 -7
v 7 5 -3
v 7 10 -3
v 7 10 -3
v 7 5 -3
v 7 5 3
v 7 10 3
v 7 5 3
v 5 0 2
v 2 0 5
v 3 5 7
v 3 5 7
v 2 0 5
v -2 0 5
v -3 5 7
v -3 5 7
v -2 0 5
v -5 0 2
v -7 5 3
v -7 5 3
v -5 0 2
v -5 0 -2
v -7 5 -3
v -7 5 -3
v -5 0 -2
v -2 0 -5
v -3 5 -7
v -3 5 -7
v -2 0 -5
v 2 0 -5
v 3 5 -7
v 3 5 -7
v 2 0 -5
v 5 0 -2
v 7 5 -3
v 7 5 -3
v 5 0 -2
v 5 0 2
v 7 5 3
v 5 0 -2
v 2 0 -5
v -2 0 -5
v -5 0 -2
v -5 0 2
v -2 0 5
v 2 0 5
v 5 0 2
v 5 0 2
v 2 0 5
v -2 0 5
v -5 0 2
v -5 0 -2
v -2 0 -5
v 2 0 -5
v 5 0 -2
v 2 15 5
v 3 10 7
v 7 10 3
v 5 15 2
v -2 15 5
v -3 10 7
v 3 10 7
v 2 15 5
v -5 15 2
v -7 10 3
v -3 10 7
v -2 15 5
v -5 15 -2
v -7 10 -3
v -7 10 3
v -5 15 2
v -2 15 -5
v -3 10 -7
v -7 10 -3
v -5 15 -2
v 2 15 -5
v 3 10 -7
v -3 10 -7
v -2 15 -5
v 5 15 -2
v 7 10 -3
v 3 10 -7
v 2 15 -5
v 5 15 2
v 7 10 3
v 7 10 -3
v 5 15 -2
v 3 10 7
v 3 5 7
v 7 5 3
v 7 10 3
v -3 10 7
v -3 5 7
v 3 5 7
v 3 10 7
v -7 10 3
v -7 5 3
v -3 5 7
v -3 10 7
v -7 10 -3
v -7 5 -3
v -7 5 3
v -7 10 3
v -3 10 -7
v -3 5 -7
v -7 5 -3
v -7 10 -3
v 3 10 -7
v 3 5 -7
v -3 5 -7
v -3 10 -7
v 7 10 -3
v 7 5 -3
v 3 5 -7
v 3 10 -7
v 7 10 3
v 7 5 3
v 7 5 -3
v 7 10 -3
v 3 5 7
v 2 0 5
v 5 0 2
v 7 5 3
v -3 5 7
v -2 0 5
v 2 0 5
v 3 5 7
v -7 5 3
v -5 0 2
v -2 0 5
v -3 5 7
v -7 5 -3
v -5 0 -2
v -5 0 2
v -7 5 3
v -3 5 -7
v -2 0 -5
v -5 0 -2
v -7 5 -3
v 3 5 -7
v 2 0 -5
v -2 0 -5
v -3 5 -7
v 7 5 -3
v 5 0 -2
v 2 0 -5
v 3 5 -7
v 7 5 3
v 5 0 2
v 5 0 -2
v 7 5 -3

# Texture Coordinates

vt 0.053125 0.965
vt 0.059375 0.91
vt 0.021875 0.91
vt 0.028125 0.965
vt 0.1125 0.965
vt 0.11875 0.91
vt 0.08125 0.91
vt 0.0875 0.965
vt 0.16875 0.965
vt 0.171875 0.91
vt 0.1375 0.91
vt 0.14375 0.965
vt 0.225 0.965
vt 0.23125 0.91
vt 0.19375 0.91
vt 0.2 0.965
vt 0.284375 0.96
vt 0.290625 0.905
vt 0.253125 0.905
vt 0.259375 0.96
vt 0.34375 0.96
vt 0.35 0.905
vt 0.3125 0.905
vt 0.31875 0.96
vt 0.40625 0.96
vt 0.4125 0.905
vt 0.375 0.905
vt 0.38125 0.96
vt 0.459375 0.96
vt 0.465625 0.905
vt 0.428125 0.905
vt 0.434375 0.96
vt 0.059375 0.885
vt 0.059375 0.835
vt 0.025 0.835
vt 0.025 0.885
vt 0.11875 0.89
vt 0.11875 0.84
vt 0.08125 0.84
vt 0.08125 0.89
vt 0.16875 0.885
vt 0.16875 0.835
vt 0.134375 0.835
vt 0.134375 0.885
vt 0.19375 0.835
vt 0.19375 0.885
vt 0.23125 0.885
vt 0.23125 0.835
vt 0.2875 0.88
vt 0.2875 0.83
vt 0.253125 0.83
vt 0.253125 0.88
vt 0.35 0.88
vt 0.35 0.83
vt 0.3125 0.83
vt 0.3125 0.88
vt 0.409375 0.88
vt 0.409375 0.83
vt 0.375 0.83
vt 0.375 0.88
vt 0.465625 0.88
vt 0.465625 0.83
vt 0.428125 0.83
vt 0.428125 0.88
vt 0.059375 0.8049999999999999
vt 0.05625 0.75
vt 0.028125 0.75
vt 0.025 0.8049999999999999
vt 0.115625 0.8049999999999999
vt 0.109375 0.75
vt 0.084375 0.75
vt 0.078125 0.8049999999999999
vt 0.16875 0.8049999999999999
vt 0.1625 0.75
vt 0.1375 0.75
vt 0.134375 0.8049999999999999
vt 0.23125 0.8049999999999999
vt 0.225 0.75
vt 0.2 0.75
vt 0.19375 0.8049999999999999
vt 0.2875 0.8049999999999999
vt 0.284375 0.75
vt 0.25625 0.75
vt 0.253125 0.8049999999999999
vt 0.353125 0.8049999999999999
vt 0.346875 0.75
vt 0.321875 0.75
vt 0.315625 0.8049999999999999
vt 0.409375 0.8
vt 0.40625 0.745
vt 0.38125 0.745
vt 0.375 0.8
vt 0.46875 0.8
vt 0.4625 0.745
vt 0.4375 0.745
vt 0.43125 0.8
vt 0.5625 0.88
vt 0.54375 0.85
vt 0.51875 0.85
vt 0.5 0.88
vt 0.5 0.92
vt 0.51875 0.95
vt 0.54375 0.95
vt 0.5625 0.92
vt 0.653125 0.88
vt 0.634375 0.85
vt 0.609375 0.85
vt 0.590625 0.88
vt 0.590625 0.92
vt 0.609375 0.95
vt 0.634375 0.95
vt 0.653125 0.92
vt 0.05625 0.7050000000000001
vt 0.059375 0.65
vt 0.025 0.65
vt 0.03125 0.7050000000000001
vt 0.1125 0.7050000000000001
vt 0.11875 0.65
vt 0.08125 0.65
vt 0.0875 0.7050000000000001
vt 0.171875 0.7050000000000001
vt 0.175 0.65
vt 0.140625 0.65
vt 0.146875 0.7050000000000001
vt 0.23125 0.7050000000000001
vt 0.2375 0.65
vt 0.2 0.65
vt 0.20625 0.7050000000000001
vt 0.290625 0.7050000000000001
vt 0.296875 0.65
vt 0.259375 0.65
vt 0.265625 0.7050000000000001
vt 0.346875 0.7050000000000001
vt 0.353125 0.65
vt 0.315625 0.65
vt 0.321875 0.7050000000000001
vt 0.40625 0.7
vt 0.4125 0.645
vt 0.375 0.645
vt 0.38125 0.7
vt 0.465625 0.7
vt 0.471875 0.645
vt 0.434375 0.645
vt 0.440625 0.7
vt 0.059375 0.62
vt 0.059375 0.5700000000000001
vt 0.025 0.5700000000000001
vt 0.025 0.62
vt 0.115625 0.62
vt 0.115625 0.5700000000000001
vt 0.078125 0.5700000000000001
vt 0.078125 0.62
vt 0.175 0.62
vt 0.175 0.5700000000000001
vt 0.140625 0.5700000000000001
vt 0.140625 0.62
vt 0.2375 0.62
vt 0.2375 0.5700000000000001
vt 0.2 0.5700000000000001
vt 0.2 0.62
vt 0.29375 0.62
vt 0.29375 0.5700000000000001
vt 0.259375 0.5700000000000001
vt 0.259375 0.62
vt 0.353125 0.62
vt 0.353125 0.5700000000000001
vt 0.315625 0.5700000000000001
vt 0.315625 0.62
vt 0.409375 0.625
vt 0.409375 0.575
vt 0.375 0.575
vt 0.375 0.625
vt 0.471875 0.62
vt 0.471875 0.5700000000000001
vt 0.434375 0.5700000000000001
vt 0.434375 0.62
vt 0.059375 0.54
vt 0.05625 0.485
vt 0.028125 0.485
vt 0.025 0.54
vt 0.11875 0.54
vt 0.1125 0.485
vt 0.0875 0.485
vt 0.08125 0.54
vt 0.175 0.54
vt 0.171875 0.485
vt 0.14375 0.485
vt 0.140625 0.54
vt 0.240625 0.54
vt 0.234375 0.485
vt 0.209375 0.485
vt 0.203125 0.54
vt 0.296875 0.5349999999999999
vt 0.29375 0.48
vt 0.265625 0.48
vt 0.2625 0.5349999999999999
vt 0.353125 0.5349999999999999
vt 0.346875 0.48
vt 0.321875 0.48
vt 0.315625 0.5349999999999999
vt 0.409375 0.5349999999999999
vt 0.403125 0.48
vt 0.378125 0.48
vt 0.375 0.5349999999999999
vt 0.471875 0.54
vt 0.465625 0.485
vt 0.440625 0.485
vt 0.434375 0.54

# Groups

g Group0

f 1/1 3/3 2/2
f 1/1 4/4 3/3
f 5/5 7/7 6/6
f 5/5 8/8 7/7
f 9/9 11/11 10/10
f 9/9 12/12 11/11
f 13/13 15/15 14/14
f 13/13 16/16 15/15
f 17/17 19/19 18/18
f 17/17 20/20 19/19
f 21/21 23/23 22/22
f 21/21 24/24 23/23
f 25/25 27/27 26/26
f 25/25 28/28 27/27
f 29/29 31/31 30/30
f 29/29 32/32 31/31
f 33/33 35/35 34/34
f 33/33 36/36 35/35
f 37/37 39/39 38/38
f 37/37 40/40 39/39
f 41/41 43/43 42/42
f 41/41 44/44 43/43
f 45/45 47/47 46/46
f 45/45 48/48 47/47
f 49/49 51/51 50/50
f 49/49 52/52 51/51
f 53/53 55/55 54/54
f 53/53 56/56 55/55
f 57/57 59/59 58/58
f 57/57 60/60 59/59
f 61/61 63/63 62/62
f 61/61 64/64 63/63
f 65/65 67/67 66/66
f 65/65 68/68 67/67
f 69/69 71/71 70/70
f 69/69 72/72 71/71
f 73/73 75/75 74/74
f 73/73 76/76 75/75
f 77/77 79/79 78/78
f 77/77 80/80 79/79
f 81/81 83/83 82/82
f 81/81 84/84 83/83
f 85/85 87/87 86/86
f 85/85 88/88 87/87
f 89/89 91/91 90/90
f 89/89 92/92 91/91
f 93/93 95/95 94/94
f 93/93 96/96 95/95
f 97/97 99/99 98/98
f 97/97 100/100 99/99
f 97/97 101/101 100/100
f 97/97 102/102 101/101
f 97/97 103/103 102/102
f 97/97 104/104 103/103
f 105/105 107/107 106/106
f 105/105 108/108 107/107
f 105/105 109/109 108/108
f 105/105 110/110 109/109
f 105/105 111/111 110/110
f 105/105 112/112 111/111
f 113/113 115/115 114/114
f 113/113 116/116 115/115
f 117/117 119/119 118/118
f 117/117 120/120 119/119
f 121/121 123/123 122/122
f 121/121 124/124 123/123
f 125/125 127/127 126/126
f 125/125 128/128 127/127
f 129/129 131/131 130/130
f 129/129 132/132 131/131
f 133/133 135/135 134/134
f 133/133 136/136 135/135
f 137/137 139/139 138/138
f 137/137 140/140 139/139
f 141/141 143/143 142/142
f 141/141 144/144 143/143
f 145/145 147/147 146/146
f 145/145 148/148 147/147
f 149/149 151/151 150/150
f 149/149 152/152 151/151
f 153/153 155/155 154/154
f 153/153 156/156 155/155
f 157/157 159/159 158/158
f 157/157 160/160 159/159
f 161/161 163/163 162/162
f 161/161 164/164 163/163
f 165/165 167/167 166/166
f 165/165 168/168 167/167
f 169/169 171/171 170/170
f 169/169 172/172 171/171
f 173/173 175/175 174/174
f 173/173 176/176 175/175
f 177/177 179/179 178/178
f 177/177 180/180 179/179
f 181/181 183/183 182/182
f 181/181 184/184 183/183
f 185/185 187/187 186/186
f 185/185 188/188 187/187
f 189/189 191/191 190/190
f 189/189 192/192 191/191
f 193/193 195/195 194/194
f 193/193 196/196 195/195
f 197/197 199/199 198/198
f 197/197 200/200 199/199
f 201/201 203/203 202/202
f 201/201 204/204 203/203
f 205/205 207/207 206/206
f 205/205 208/208 207/207
