# Vertices

v 8 12 6
v -8 12 6
v -8 12 -6
v 8 12 -6
v 8 12 -6
v -8 12 -6
v -8 0 -6
v 8 0 -6
v 8 0 -6
v -8 0 -6
v -8 0 6
v 8 0 6
v 16 17 -13
v 8 17 -13
v 8 0 -10
v 12 0 -10
v 12 0 6
v 8 0 6
v 8 17 6
v 16 17 6
v 16 17 6
v 16 17 -13
v 12 0 -10
v 12 0 6
v 8 17 6
v 8 0 6
v 8 0 -10
v 8 17 -13
v 16 17 6
v 8 17 6
v 8 17 -13
v 16 17 -13
v 12 0 -10
v 8 0 -10
v 8 0 6
v 12 0 6
v -8 17 -13
v -16 17 -13
v -12 0 -10
v -8 0 -10
v -8 0 6
v -12 0 6
v -16 17 6
v -8 17 6
v -8 17 6
v -8 17 -13
v -8 0 -10
v -8 0 6
v -16 17 6
v -12 0 6
v -12 0 -10
v -16 17 -13
v -8 17 6
v -16 17 6
v -16 17 -13
v -8 17 -13
v -8 0 -10
v -12 0 -10
v -12 0 6
v -8 0 6
v 8 32 6
v -8 32 6
v -8 0 6
v 8 0 6
v 8 0 6
v -8 0 6
v -12 32 9
v -8 34 9
v 8 34 9
v 12 32 9
v 8 34 9
v -8 34 9
v -8 32 6
v 8 32 6
v 12 32 9
v 8 34 9
v 8 32 6
v 12 32 9
v 8 32 6
v 8 0 6
v -8 32 6
v -8 34 9
v -12 32 9
v -8 32 6
v -12 32 9
v -8 0 6

# Texture Coordinates

vt 0.0125 0.985
vt 0.1125 0.985
vt 0.1125 0.865
vt 0.0125 0.865
vt 0.0125 0.855
vt 0.1125 0.855
vt 0.1125 0.735
vt 0.0125 0.735
vt 0.0125 0.725
vt 0.1125 0.725
vt 0.1125 0.605
vt 0.0125 0.605
vt 0.734375 0.98
vt 0.784375 0.98
vt 0.784375 0.8049999999999999
vt 0.759375 0.8049999999999999
vt 0.15 0.815
vt 0.125 0.815
vt 0.125 0.985
vt 0.175 0.985
vt 0.184375 0.985
vt 0.303125 0.985
vt 0.284375 0.81
vt 0.184375 0.81
vt 0.725 0.98
vt 0.725 0.81
vt 0.625 0.81
vt 0.60625 0.98
vt 0.59375 0.795
vt 0.54375 0.795
vt 0.54375 0.985
vt 0.59375 0.985
vt 0.521875 0.8049999999999999
vt 0.496875 0.8049999999999999
vt 0.496875 0.965
vt 0.521875 0.965
vt 0.315625 0.98
vt 0.365625 0.98
vt 0.340625 0.8049999999999999
vt 0.315625 0.8049999999999999
vt 0.48125 0.8049999999999999
vt 0.45625 0.8049999999999999
vt 0.43125 0.975
vt 0.48125 0.975
vt 0.125 0.785
vt 0.24375 0.785
vt 0.225 0.615
vt 0.125 0.615
vt 0.78125 0.785
vt 0.78125 0.61
vt 0.68125 0.61
vt 0.6625 0.785
vt 0.31875 0.6
vt 0.26875 0.6
vt 0.26875 0.79
vt 0.31875 0.79
vt 0.409375 0.815
vt 0.384375 0.815
vt 0.384375 0.975
vt 0.409375 0.975
vt 0.440625 0.46499999999999997
vt 0.340625 0.46499999999999997
vt 0.340625 0.785
vt 0.440625 0.785
vt 0.58125 0.43500000000000005
vt 0.48125 0.43500000000000005
vt 0.45625 0.755
vt 0.48125 0.775
vt 0.58125 0.775
vt 0.60625 0.755
vt 0.3125 0.5449999999999999
vt 0.2125 0.5449999999999999
vt 0.2125 0.5800000000000001
vt 0.3125 0.5800000000000001
vt 0.19375 0.565
vt 0.165625 0.5549999999999999
vt 0.165625 0.5900000000000001
vt 0.625 0.745
vt 0.65625 0.745
vt 0.65625 0.42500000000000004
vt 0.14375 0.595
vt 0.14375 0.56
vt 0.115625 0.5700000000000001
vt 0.015625 0.51
vt 0.015625 0.56
vt 0.215625 0.51

# Groups

g Group0

f 1/1 3/3 2/2
f 1/1 4/4 3/3
f 5/5 7/7 6/6
f 5/5 8/8 7/7
f 9/9 11/11 10/10
f 9/9 12/12 11/11
f 13/13 15/15 14/14
f 13/13 16/16 15/15
f 17/17 19/19 18/18
f 17/17 20/20 19/19
f 21/21 23/23 22/22
f 21/21 24/24 23/23
f 25/25 27/27 26/26
f 25/25 28/28 27/27
f 29/29 31/31 30/30
f 29/29 32/32 31/31
f 33/33 35/35 34/34
f 33/33 36/36 35/35
f 37/37 39/39 38/38
f 37/37 40/40 39/39
f 41/41 43/43 42/42
f 41/41 44/44 43/43
f 45/45 47/47 46/46
f 45/45 48/48 47/47
f 49/49 51/51 50/50
f 49/49 52/52 51/51
f 53/53 55/55 54/54
f 53/53 56/56 55/55
f 57/57 59/59 58/58
f 57/57 60/60 59/59
f 61/61 63/63 62/62
f 61/61 64/64 63/63
f 65/65 67/67 66/66
f 65/65 68/68 67/67
f 65/65 69/69 68/68
f 65/65 70/70 69/69
f 71/71 73/73 72/72
f 71/71 74/74 73/73
f 75/75 77/77 76/76
f 78/78 80/80 79/79
f 81/81 83/83 82/82
f 84/84 86/86 85/85
