# Vertices

v 32 10 -4
v -32 10 -4
v -42 0 -12
v 42 0 -12
v 42 0 12
v -42 0 12
v -32 10 4
v 32 10 4
v 32 10 4
v 32 10 -4
v 42 0 -12
v 42 0 12
v -32 10 4
v -42 0 12
v -42 0 -12
v -32 10 -4
v 42 0 -12
v -42 0 -12
v -42 0 12
v 42 0 12
v 46 13 -16
v -46 13 -16
v -46 10 -16
v 46 10 -16
v 46 10 16
v -46 10 16
v -46 13 16
v 46 13 16
v 46 13 16
v 46 13 -16
v 46 10 -16
v 46 10 16
v -46 13 16
v -46 10 16
v -46 10 -16
v -46 13 -16
v 46 13 16
v -46 13 16
v -46 13 -16
v 46 13 -16
v 46 10 -16
v -46 10 -16
v -46 10 16
v 46 10 16

# Texture Coordinates

vt 0.246875 0.915
vt 0.046875 0.915
vt 0.015625 0.98
vt 0.278125 0.98
vt 0.275 0.83
vt 0.0125 0.83
vt 0.04375 0.895
vt 0.24375 0.895
vt 0.265625 0.89
vt 0.265625 0.9299999999999999
vt 0.309375 0.97
vt 0.309375 0.85
vt 0.3625 0.89
vt 0.31875 0.85
vt 0.31875 0.97
vt 0.3625 0.9299999999999999
vt 0.640625 0.855
vt 0.378125 0.855
vt 0.378125 0.975
vt 0.640625 0.975
vt 0.296875 0.795
vt 0.009375 0.795
vt 0.009375 0.81
vt 0.296875 0.81
vt 0.296875 0.76
vt 0.009375 0.76
vt 0.009375 0.775
vt 0.296875 0.775
vt 0.759375 0.95
vt 0.659375 0.95
vt 0.659375 0.965
vt 0.759375 0.965
vt 0.6625 0.915
vt 0.6625 0.9299999999999999
vt 0.7625 0.9299999999999999
vt 0.7625 0.915
vt 0.61875 0.675
vt 0.33125 0.675
vt 0.33125 0.835
vt 0.61875 0.835
vt 0.303125 0.5800000000000001
vt 0.015625 0.5800000000000001
vt 0.015625 0.74
vt 0.303125 0.74

# Groups

g Group0

f 1/1 3/3 2/2
f 1/1 4/4 3/3
f 5/5 7/7 6/6
f 5/5 8/8 7/7
f 9/9 11/11 10/10
f 9/9 12/12 11/11
f 13/13 15/15 14/14
f 13/13 16/16 15/15
f 17/17 19/19 18/18
f 17/17 20/20 19/19
f 21/21 23/23 22/22
f 21/21 24/24 23/23
f 25/25 27/27 26/26
f 25/25 28/28 27/27
f 29/29 31/31 30/30
f 29/29 32/32 31/31
f 33/33 35/35 34/34
f 33/33 36/36 35/35
f 37/37 39/39 38/38
f 37/37 40/40 39/39
f 41/41 43/43 42/42
f 41/41 44/44 43/43
